<svg width="18" height="12" viewBox="0 0 18 12" fill="none" xmlns="http://www.w3.org/2000/svg">
<path d="M16.71 1.88C16.51 1.14 15.94 0.56 15.2 0.36C13.87 0 8.52999 0 8.52999 0C8.52999 0 3.18999 0 1.85999 0.36C1.12999 0.56 0.54999 1.14 0.34999 1.88C-0.0100098 3.22 -0.0100098 6.01 -0.0100098 6.01C-0.0100098 6.01 -0.0100098 8.8 0.34999 10.14C0.54999 10.88 1.11999 11.44 1.85999 11.63C3.18999 11.99 8.52999 11.99 8.52999 11.99C8.52999 11.99 13.87 11.99 15.2 11.63C15.93 11.43 16.51 10.87 16.71 10.14C17.07 8.8 17.07 6.01 17.07 6.01C17.07 6.01 17.07 3.22 16.71 1.88ZM6.78999 8.55V3.47L11.25 6.01L6.78999 8.55Z" fill="#F62F42"/>
</svg>
