<?xml version="1.0" encoding="UTF-8" standalone="no"?>
<!DOCTYPE svg PUBLIC "-//W3C//DTD SVG 1.1//EN" "http://www.w3.org/Graphics/SVG/1.1/DTD/svg11.dtd">
<svg width="100%" height="100%" viewBox="0 0 236 110" version="1.1" xmlns="http://www.w3.org/2000/svg" xmlns:xlink="http://www.w3.org/1999/xlink" xml:space="preserve" xmlns:serif="http://www.serif.com/" style="fill-rule:evenodd;clip-rule:evenodd;stroke-linejoin:round;stroke-miterlimit:2;">
    <g transform="matrix(1,0,0,1,-1310,-2.86885)">
        <g id="Artboard4" transform="matrix(1.10779,0,0,0.927204,-141.46,2.86885)">
            <rect x="1310.24" y="0" width="213.037" height="118.636" style="fill:none;"/>
            <g transform="matrix(1.21218,0,0,1.44826,1299.61,-81.2435)">
                <path d="M81.832,105.393L76.981,105.393L80.417,89.729L85.268,89.729L81.832,105.393Z" style="fill:rgb(116,126,131);"/>
                <path d="M108.512,105.393L112.959,85.282L118.719,85.282C122.358,85.282 123.975,86.596 123.975,89.324C123.975,91.75 122.358,94.074 119.528,94.377C122.156,94.377 123.672,96.096 123.672,98.319C123.672,102.867 120.033,105.393 115.688,105.393L108.512,105.393ZM121.347,98.42C121.347,96.702 120.337,95.388 117.406,95.388L112.858,95.388L111.14,103.473L115.385,103.473C119.225,103.473 121.347,101.452 121.347,98.42ZM121.751,89.627C121.751,88.213 120.741,87.202 118.821,87.202L114.677,87.202L113.262,93.468L117.305,93.468C119.932,93.468 121.751,91.75 121.751,89.627Z" style="fill:rgb(116,126,131);"/>
                <path d="M70.311,103.675L69.906,105.393L74.555,105.393L77.89,89.729L73.039,89.729L70.715,100.643C69.805,101.149 68.997,101.654 67.784,101.654C66.975,101.654 66.369,101.25 66.369,100.037C66.369,99.734 66.369,98.824 66.47,98.319C66.672,97.51 68.39,89.729 68.39,89.729L63.539,89.729L61.417,99.532C61.316,100.138 61.013,101.149 61.013,101.856C61.013,104.484 62.529,105.899 65.156,105.899C67.177,105.899 69.3,104.686 70.311,103.675Z" style="fill:rgb(116,126,131);"/>
                <path d="M105.379,89.729L101.134,99.835L100.023,89.729L93.05,89.729L94.06,84.878L89.209,84.878L88.199,89.729L86.481,89.729L85.672,93.468L87.39,93.468L85.874,100.239C85.672,101.048 85.571,101.452 85.571,102.26C85.571,104.787 87.289,105.797 90.119,105.797C91.129,105.797 92.746,105.595 93.555,105.393C93.656,104.585 94.161,102.26 94.363,101.553C93.858,101.856 92.949,102.159 92.241,102.159C91.231,102.159 90.725,101.856 90.725,100.946C90.725,100.34 90.826,99.734 91.028,99.127L92.241,93.468L95.576,93.468L97.699,105.494L95.677,109.739L100.73,109.739L110.432,89.729L105.379,89.729Z" style="fill:rgb(116,126,131);"/>
                <path d="M81.427,84.878L80.619,88.415L85.47,88.415L86.278,84.878L81.427,84.878Z" style="fill:rgb(116,126,131);"/>
                <path d="M57.88,89.324C50.907,89.324 47.672,94.883 47.672,99.127C47.672,103.372 50.603,105.899 54.646,105.899C56.364,105.899 58.284,105.292 58.789,104.989C58.992,104.383 59.497,101.654 59.699,100.744C58.688,101.351 57.273,101.957 56.061,101.957C53.938,101.957 52.625,100.643 52.625,98.622C52.625,95.691 54.545,93.165 57.678,93.165C58.992,93.165 60.507,93.872 61.013,94.377C61.215,93.367 61.72,91.143 61.922,90.133C61.215,89.83 59.497,89.324 57.88,89.324Z" style="fill:rgb(116,126,131);"/>
                <path d="M156.012,96.197L154.091,105.393L156.214,105.393L158.336,95.489C158.538,94.883 158.538,93.973 158.538,93.569C158.538,91.75 157.325,89.931 155.001,89.931C152.98,89.931 151.161,91.143 149.645,92.154L150.049,90.335L147.927,90.335L144.592,105.393L146.815,105.393L149.24,94.074C150.554,93.266 152.374,92.053 154.193,92.053C155.607,92.053 156.315,93.064 156.315,94.277C156.315,94.782 156.214,95.489 156.012,96.197Z" style="fill:rgb(116,126,131);"/>
                <path d="M142.166,97.308L141.257,101.755C139.336,103.069 138.023,103.776 136.507,103.776C135.092,103.776 133.98,103.17 133.98,101.654C133.98,98.016 138.225,97.409 142.166,97.308ZM140.852,103.574L140.448,105.393L142.57,105.393L144.794,95.388C144.794,95.085 144.996,94.175 144.996,93.67C144.996,91.042 143.076,89.931 139.943,89.931C138.528,89.931 136.102,90.436 135.395,90.638C135.294,91.143 134.991,92.356 134.889,92.861C136.001,92.356 138.123,91.75 139.639,91.75C141.56,91.75 142.772,92.457 142.772,93.872C142.772,94.074 142.772,94.681 142.671,94.883L142.57,95.489C141.257,95.59 139.741,95.691 137.82,95.994C134.384,96.5 131.656,98.521 131.656,101.755C131.656,104.282 133.273,105.696 135.9,105.696C137.113,105.696 139.437,104.888 140.852,103.574Z" style="fill:rgb(116,126,131);"/>
                <path d="M133.98,90.133C131.554,90.133 130.039,91.649 128.826,92.457L129.331,90.335L127.209,90.335L123.874,105.393L126.097,105.393L128.422,94.479C129.735,93.67 130.746,92.558 133.475,92.558C133.576,91.952 133.778,90.84 133.98,90.133Z" style="fill:rgb(116,126,131);"/>
                <path d="M172.485,84.372L171.07,91.042C169.958,90.436 168.847,89.931 167.23,89.931C162.278,89.931 159.246,95.59 159.246,100.239C159.246,103.17 160.459,105.797 163.49,105.797C165.613,105.797 167.533,104.282 168.24,103.675L167.937,105.393L170.059,105.393L174.607,84.372L172.485,84.372ZM168.746,101.856C167.432,102.665 165.916,103.675 164.299,103.675C162.177,103.675 161.469,101.856 161.469,100.138C161.469,96.702 163.288,91.952 167.331,91.952C168.543,91.952 170.059,92.558 170.565,92.963L168.746,101.856Z" style="fill:rgb(116,126,131);"/>
                <path d="M173.9,95.186C173.9,92.457 176.527,90.032 180.368,90.032C181.884,90.032 183.501,90.537 184.511,91.042C184.41,91.649 184.208,92.558 184.006,93.266C182.894,92.457 181.378,91.851 179.862,91.851C177.639,91.851 176.224,93.165 176.224,94.681C176.224,98.117 183.501,95.287 183.501,100.542C183.501,103.776 180.57,105.797 177.134,105.797C175.315,105.797 173.293,105.292 172.081,104.484C172.182,103.978 172.485,102.968 172.687,102.058C173.9,103.17 175.517,103.877 177.437,103.877C179.66,103.877 181.277,102.766 181.277,100.946C181.277,97.308 173.9,100.34 173.9,95.186Z" style="fill:rgb(116,126,131);"/>
                <path d="M35.747,99.835C34.332,99.734 32.513,99.43 30.694,99.026L27.157,105.393L32.816,105.393L35.747,99.835Z" style="fill:rgb(116,126,131);"/>
                <path d="M41.103,97.814C42.417,98.016 44.742,98.319 46.257,98.319L44.539,84.676L38.779,84.676L32.008,96.803C33.524,97.207 35.242,97.51 36.859,97.814L40.497,90.941L41.103,97.814Z" style="fill:rgb(116,126,131);"/>
                <path d="M46.257,98.42C45.045,98.824 42.619,99.127 41.204,99.33L41.811,105.393L47.066,105.393L46.257,98.42Z" style="fill:rgb(108,110,112);"/>
                <path d="M34.635,86.697C33.827,86.596 32.715,86.495 31.806,86.495C27.561,86.495 20.79,87.404 20.79,90.133C20.79,94.782 35.343,98.42 44.034,98.42C44.438,98.42 45.752,98.319 46.257,98.319C40.598,97.814 27.662,94.277 27.662,90.133C27.662,87.909 31.401,87 34.635,86.697Z" style="fill:rgb(234,40,52);"/>
                <path d="M22.407,86.697C21.598,86.596 20.487,86.495 19.577,86.495C14.928,86.495 8.763,87.808 8.763,90.84C8.763,96.399 22.609,100.037 32.614,100.037C33.018,100.037 35.242,99.936 35.747,99.835C29.077,99.33 15.433,95.792 15.433,90.638C15.433,88.011 18.668,87 22.407,86.697Z" style="fill:rgb(234,40,52);"/>
            </g>
        </g>
        <g id="Layer_1_1_">
        </g>
        <g id="Layer_1-2">
        </g>
    </g>
</svg>
