<?xml version="1.0" encoding="UTF-8" standalone="no"?>
<!DOCTYPE svg PUBLIC "-//W3C//DTD SVG 1.1//EN" "http://www.w3.org/Graphics/SVG/1.1/DTD/svg11.dtd">
<svg width="100%" height="100%" viewBox="0 0 236 110" version="1.1" xmlns="http://www.w3.org/2000/svg" xmlns:xlink="http://www.w3.org/1999/xlink" xml:space="preserve" xmlns:serif="http://www.serif.com/" style="fill-rule:evenodd;clip-rule:evenodd;stroke-linejoin:round;stroke-miterlimit:2;">
    <g transform="matrix(1,0,0,1,-1310,0)">
        <g id="Artboard4" transform="matrix(1.10779,0,0,0.927204,-141.46,-3.8475e-12)">
            <rect x="1310.24" y="0" width="213.037" height="118.636" style="fill:none;"/>
            <g id="Layer_1-2" transform="matrix(0.900357,0,0,1.07571,1385.27,21.7651)">
                <path d="M34.94,69.82C15.8,69.804 0.06,54.05 0.06,34.91C0.06,15.759 15.819,0 34.97,0C54.11,0 69.864,15.74 69.88,34.88C69.847,54.035 54.095,69.787 34.94,69.82ZM17.73,38.31C22.297,36.233 25.243,31.658 25.243,26.64C25.243,19.937 19.987,14.308 13.3,13.85L10.74,13.85L10.74,54.37L13.23,54.37L13.23,39.45C13.884,39.393 14.535,39.303 15.18,39.18L30,56.59L33.29,56.59L17.73,38.31ZM13.3,16.47C18.598,16.85 22.758,21.308 22.77,26.62C22.767,31.96 18.621,36.46 13.3,36.9L13.3,16.47ZM54.15,31.79C54.15,31.241 54.601,30.79 55.15,30.79C55.177,30.788 55.203,30.787 55.23,30.787C55.779,30.787 56.23,31.238 56.23,31.787C56.23,31.788 56.23,31.789 56.23,31.79L56.23,47.44L58.72,47.44L58.72,31.79C58.72,31.789 58.72,31.788 58.72,31.787C58.72,31.238 59.171,30.787 59.72,30.787C59.747,30.787 59.773,30.788 59.8,30.79C60.349,30.79 60.8,31.241 60.8,31.79L60.8,47.44L63.29,47.44L63.29,31.79C63.307,29.857 61.733,28.252 59.8,28.23C58.951,28.184 58.122,28.5 57.52,29.1C56.888,28.502 56.039,28.187 55.17,28.23C54.826,28.226 54.486,28.294 54.17,28.43L54.17,28.23L51.66,28.23L51.66,47.44L54.15,47.44L54.15,31.79ZM41.92,39L41.92,37.91C41.92,32.47 40.11,28.03 37.82,28.03C35.53,28.03 33.65,32.46 33.65,37.91C33.65,43.36 35.53,47.72 37.82,47.72C39.57,47.72 41.11,45.03 41.65,41.27L39.37,40.93C39.1,43.35 38.5,44.93 37.82,44.93C36.95,44.93 36.21,42.38 36.07,38.93L41.92,39ZM39.5,36.43L36.14,36.43C36.27,33.14 36.95,30.79 37.82,30.79C38.69,30.79 39.37,33.14 39.5,36.43ZM50.72,39C50.777,38.646 50.8,38.288 50.79,37.93C50.79,32.49 48.98,28.05 46.69,28.05C44.4,28.05 42.52,32.48 42.52,37.93C42.52,43.38 44.4,47.74 46.69,47.74C48.44,47.74 49.98,45.05 50.52,41.29L48.24,40.95C47.97,43.37 47.37,44.95 46.69,44.95C45.82,44.95 45.08,42.4 44.94,38.95L50.72,39ZM48.37,36.44L44.94,36.44C45.14,33.15 45.81,30.8 46.69,30.8C47.57,30.8 48.24,33.15 48.37,36.44ZM33,31.85C33.001,31.82 33.001,31.79 33.001,31.76C33.001,29.836 31.433,28.247 29.51,28.22C29.144,28.216 28.78,28.283 28.44,28.42L28.44,2.29L25.94,2.29L25.94,47.44L28.43,47.44L28.43,31.85C28.43,31.843 28.43,31.837 28.43,31.83C28.43,31.248 28.908,30.77 29.49,30.77C29.493,30.77 29.502,30.77 29.503,30.77C30.052,30.77 30.503,31.221 30.503,31.77C30.503,31.797 30.502,31.823 30.5,31.85L30.5,47.44L33,47.44L33,31.85ZM51.24,57.61C52.575,57.605 53.67,56.505 53.67,55.17C53.67,53.831 52.569,52.73 51.23,52.73C49.895,52.73 48.795,53.825 48.79,55.16C48.79,55.17 48.79,55.18 48.79,55.19C48.79,56.518 49.882,57.61 51.21,57.61C51.22,57.61 51.23,57.61 51.24,57.61ZM49.24,55.16C49.24,54.063 50.143,53.16 51.24,53.16C52.337,53.16 53.24,54.063 53.24,55.16C53.24,56.257 52.337,57.16 51.24,57.16C50.143,57.16 49.24,56.257 49.24,55.16ZM50.69,55.35L51.17,55.35L52,56.58L52.47,56.58L51.68,55.34C52.077,55.335 52.402,55.007 52.402,54.61C52.402,54.593 52.401,54.577 52.4,54.56C52.4,54 52.07,53.76 51.4,53.76L50.31,53.76L50.31,56.58L50.73,56.58L50.73,55.35L50.69,55.35ZM50.69,54.99L50.69,54.12L51.26,54.12C51.55,54.12 51.87,54.18 51.87,54.53C51.87,54.88 51.55,54.99 51.19,54.99L50.69,54.99Z" style="fill:rgb(231,29,53);"/>
            </g>
        </g>
    </g>
</svg>
