<?xml version="1.0" encoding="UTF-8" standalone="no"?>
<!DOCTYPE svg PUBLIC "-//W3C//DTD SVG 1.1//EN" "http://www.w3.org/Graphics/SVG/1.1/DTD/svg11.dtd">
<svg width="100%" height="100%" viewBox="0 0 236 110" version="1.1" xmlns="http://www.w3.org/2000/svg" xmlns:xlink="http://www.w3.org/1999/xlink" xml:space="preserve" xmlns:serif="http://www.serif.com/" style="fill-rule:evenodd;clip-rule:evenodd;stroke-linejoin:round;stroke-miterlimit:2;">
    <g transform="matrix(1,0,0,1,-1310,-2.86885)">
        <g id="Artboard4" transform="matrix(1.10779,0,0,0.927204,-141.46,2.86885)">
            <rect x="1310.24" y="0" width="213.037" height="118.636" style="fill:none;"/>
            <g id="path4" transform="matrix(0.163886,0,0,0.195805,-13732.9,-1939.81)">
                <path d="M92440.4,10277.2C92458.2,10277.2 92475.5,10269.5 92489.2,10254.3L92665.1,10050.5C92671.2,10043.4 92674.7,10034.7 92675.2,10025.1L92675.2,10020C92674.2,10000.6 92659.5,9981.85 92627.5,9981.34L92440.4,9981.34L92440.4,10003.7L92632.5,10003.7C92654.4,10003.7 92659.5,10024.5 92647.8,10038.3L92471.4,10240.6C92461.2,10249.7 92451.1,10254.3 92440.4,10254.3L92440.4,10277.2ZM92440.4,10200.4L92440.4,10037.2L92538.5,10037.2L92538.5,10064.7L92457.2,10064.7L92457.2,10200.4L92440.4,10200.4ZM92253.9,9981.34C92221.3,9981.85 92207.1,10000.6 92206.1,10020L92206.1,10025.1C92206.6,10034.7 92210.2,10043.4 92216.2,10050.5L92391.6,10254.3C92405.3,10269.5 92423.1,10277.2 92440.4,10277.2L92440.4,10254.3C92430.2,10254.3 92420.1,10249.7 92409.9,10240.6L92233.5,10038.3C92221.3,10024.5 92226.9,10003.7 92248.8,10003.7L92440.4,10003.7L92440.4,9981.34L92253.9,9981.34ZM92440.4,10037.2L92440.4,10200.4L92423.6,10200.4L92423.6,10064.7L92342.3,10064.7L92342.3,10037.2L92440.4,10037.2Z" style="fill:rgb(0,76,154);"/>
            </g>
            <g id="path6" transform="matrix(0.163886,0,0,0.195805,-13732.9,-1939.81)">
                <path d="M92315.4,10311.7L92315.4,10345.3L92312.3,10345.3C92310.3,10337.6 92307.7,10332.1 92305.7,10328.5C92303.2,10325.4 92300.1,10322.4 92296.1,10320.4C92293.5,10319.3 92289.4,10318.8 92283.9,10318.8L92274.7,10318.8L92274.7,10414.4C92274.7,10420.5 92274.7,10424.6 92275.7,10426.1C92276.2,10427.6 92277.8,10429.1 92279.8,10430.2C92281.8,10431.2 92284.4,10432.2 92287.9,10432.2L92292,10432.2L92292,10435.2L92227.4,10435.2L92227.4,10432.2L92231.5,10432.2C92235.1,10432.2 92238.1,10431.2 92240.1,10430.2C92241.7,10429.1 92243.2,10427.6 92243.7,10425.6C92244.7,10424.1 92244.7,10420.5 92244.7,10414.4L92244.7,10318.8L92236.1,10318.8C92227.9,10318.8 92221.8,10320.9 92217.8,10324.4C92212.7,10329 92209.1,10336.1 92208.1,10345.3L92204.6,10345.3L92204.6,10311.7L92315.4,10311.7ZM92321,10311.7L92384.5,10311.7L92384.5,10315.3L92381.4,10315.3C92376.9,10315.3 92373.3,10315.8 92371.8,10316.8C92369.8,10317.8 92368.2,10319.3 92367.7,10320.9C92367.2,10322.4 92366.7,10327 92366.7,10334.1L92366.7,10394.6C92366.7,10405.8 92367.2,10412.9 92369.2,10416.4C92370.8,10420 92373.3,10423 92377.4,10425.6C92380.9,10427.6 92386,10429.1 92391.6,10429.1C92398.7,10429.1 92404.3,10427.6 92408.9,10424.6C92413.5,10421.5 92417,10417.4 92419.6,10411.9C92421.6,10406.8 92423.1,10397.6 92423.1,10384.4L92423.1,10334.1C92423.1,10328.5 92422.6,10324.4 92421.1,10322.4C92420.1,10319.9 92418.5,10318.3 92417,10317.3C92414,10315.8 92410.4,10315.3 92405.3,10315.3L92405.3,10311.7L92448,10311.7L92448,10315.3L92445.5,10315.3C92441.9,10315.3 92438.9,10315.8 92436.8,10317.3C92434.3,10318.8 92432.8,10320.9 92431.8,10323.4C92431.3,10325.4 92430.7,10329 92430.7,10334.1L92430.7,10380.9C92430.7,10395.6 92429.7,10405.8 92427.7,10412.4C92425.7,10419 92421.1,10424.6 92414,10430.2C92406.3,10435.7 92396.2,10438.3 92383.5,10438.3C92372.8,10438.3 92364.7,10436.8 92358.6,10434.2C92350.9,10430.2 92344.8,10425.1 92341.8,10419C92338.7,10412.9 92336.7,10404.7 92336.7,10394.6L92336.7,10334.1C92336.7,10327 92336.7,10322.4 92335.7,10320.9C92334.7,10318.8 92333.7,10317.8 92331.6,10316.8C92329.6,10315.8 92326,10315.3 92321,10315.3L92321,10311.7ZM92510,10431.7C92511.1,10432.2 92512.1,10432.2 92513.1,10432.2L92513.1,10435.2L92510,10435.2L92510,10431.7ZM92510,10311.7C92524.8,10312.7 92535.5,10315.8 92542.1,10321.4C92550.2,10327.5 92553.8,10335.6 92553.8,10344.8C92553.8,10352.9 92551.2,10360 92546.6,10365.6C92541.6,10371.2 92534.4,10375.3 92525.8,10377.3C92522.2,10378.3 92516.6,10378.8 92510,10379.3L92510,10371.2C92513.1,10370.2 92515.6,10368.1 92517.7,10366.1C92521.7,10361.5 92523.8,10354.9 92523.8,10345.3C92523.8,10336.1 92521.7,10329.5 92517.7,10325.4C92515.6,10322.9 92513.1,10321.4 92510,10320.4L92510,10311.7ZM92495.8,10379.3L92495.8,10413.9C92495.8,10420.5 92496.3,10424.6 92497.3,10426.1C92497.8,10428.1 92499.4,10429.6 92501.4,10430.7C92503.4,10431.2 92506,10431.7 92510,10431.7L92510,10435.2L92450.6,10435.2L92450.6,10432.2C92456.2,10432.2 92459.7,10431.7 92461.8,10430.2C92463.8,10429.1 92465.3,10428.1 92466.3,10426.1C92466.8,10424.6 92467.3,10420.5 92467.3,10413.9L92467.3,10333.6C92467.3,10327 92466.8,10322.9 92466.3,10320.9C92465.3,10319.3 92463.8,10317.8 92461.8,10316.8C92459.7,10315.8 92456.2,10315.3 92450.6,10315.3L92450.6,10311.7L92510,10311.7L92510,10320.4C92507,10319.3 92503.4,10318.8 92499.9,10318.8L92495.8,10318.8L92495.8,10372.2C92497.8,10372.7 92499.4,10372.7 92500.4,10372.7C92503.9,10372.7 92507,10372.2 92510,10371.2L92510,10379.3L92495.8,10379.3ZM92675.2,10311.7L92675.2,10315.3C92671.2,10315.8 92668.1,10316.8 92666.1,10318.8C92663,10321.4 92658,10328.5 92651.3,10339.7L92624.9,10384.4L92624.9,10414.4C92624.9,10420.5 92624.9,10424.6 92625.9,10426.1C92626.4,10427.6 92628,10429.1 92630,10430.2C92631.5,10431.2 92634.6,10432.2 92637.6,10432.2L92644.7,10432.2L92644.7,10435.2L92575.1,10435.2L92575.1,10432.2L92581.7,10432.2C92585.3,10432.2 92588.3,10431.2 92590.3,10430.2C92591.9,10429.1 92593.4,10427.6 92593.9,10425.6C92594.9,10424.1 92594.9,10420.5 92594.9,10414.4L92594.9,10389.5L92566,10336.6C92560.4,10326 92556.3,10319.9 92553.8,10318.3C92551.7,10316.3 92548.2,10315.3 92544.6,10315.3L92544.6,10311.7L92603.6,10311.7L92603.6,10315.3L92601,10315.3C92597.5,10315.3 92594.9,10315.8 92593.4,10316.8C92591.9,10317.8 92591.4,10318.8 92591.4,10319.9C92591.4,10322.4 92593.9,10327.5 92598.5,10336.6L92620.8,10377.3L92643.2,10340.2C92648.8,10331 92651.3,10324.9 92651.3,10321.9C92651.3,10320.4 92650.8,10318.8 92648.8,10317.8C92646.8,10316.3 92643.2,10315.8 92637.6,10315.3L92637.6,10311.7L92675.2,10311.7Z" style="fill:rgb(0,76,154);"/>
            </g>
        </g>
        <g id="Layer_1_1_">
        </g>
        <g id="Layer_1-2">
        </g>
    </g>
</svg>
