<?xml version="1.0" encoding="UTF-8" standalone="no"?>
<!DOCTYPE svg PUBLIC "-//W3C//DTD SVG 1.1//EN" "http://www.w3.org/Graphics/SVG/1.1/DTD/svg11.dtd">
<svg width="100%" height="100%" viewBox="0 0 199 70" version="1.1" xmlns="http://www.w3.org/2000/svg" xmlns:xlink="http://www.w3.org/1999/xlink" xml:space="preserve" xmlns:serif="http://www.serif.com/" style="fill-rule:evenodd;clip-rule:evenodd;stroke-linejoin:round;stroke-miterlimit:2;">
    <g transform="matrix(1,0,0,1,-1038.6,-4.14957e-12)">
        <g id="Artboard3" transform="matrix(1,0,0,1.00519,-34.0553,-217.216)">
            <rect x="1072.66" y="216.095" width="199" height="69.639" style="fill:none;"/>
            <clipPath id="_clip1">
                <rect x="1072.66" y="216.095" width="199" height="69.639"/>
            </clipPath>
            <g clip-path="url(#_clip1)">
                <g transform="matrix(0.129484,0,0,0.128816,933.767,188.438)">
                    <g transform="matrix(1,0,0,1,1020.84,175.342)">
                        <path d="M167.84,395.102C167.777,395.032 167.672,395.046 167.63,395.123C165.616,399.382 164.041,403.397 162.905,407.175C158.534,421.765 162.117,438.536 170.572,450.623C172.447,453.307 175.555,456.806 179.898,461.135C184.742,465.966 189.475,470.643 194.082,475.181C197.797,478.848 202.112,482.229 205.931,485.944C233.505,512.767 261.037,539.549 288.52,566.281C288.736,566.483 288.715,566.665 288.457,566.811L268.188,578.48C267.993,578.598 267.742,578.598 267.54,578.48C206.698,543.334 145.493,508.041 83.94,472.609C78.769,469.632 74.949,467.095 72.475,465.011C61.755,455.949 55.154,444.559 52.673,430.848C52.122,427.829 51.843,424.072 51.829,419.569C51.822,415.923 51.815,412.131 51.815,408.179C51.871,305.354 51.885,201.142 51.857,95.543C51.857,89.848 53.14,83.734 55.712,77.196C61.197,63.22 70.878,52.861 84.763,46.114C92.528,42.335 101.171,40.753 110.092,40.753C215.132,40.823 320.171,40.823 425.211,40.76C429.581,40.753 433.366,41.039 436.551,41.604C460.124,45.772 478.727,63.882 483.048,87.408C483.655,90.712 483.955,95.208 483.955,100.896C483.892,209.437 483.906,314.744 483.982,416.815C483.989,422.559 483.745,427.014 483.251,430.178C480.616,447.02 470.216,461.951 455.461,470.476C434.634,482.507 409.89,496.776 381.236,513.29C381.006,513.422 380.797,513.402 380.609,513.213C343.068,475.997 309.34,442.461 279.424,412.605C253.655,386.89 226.765,360.025 198.752,332.017C188.91,322.174 179.319,312.102 169.701,302.022C169.596,301.91 169.408,301.938 169.331,302.071C168.097,304.274 166.913,306.539 165.776,308.86C157.747,325.332 160.535,347.053 172.049,360.973C174.524,363.964 177.737,367.428 181.675,371.36C205.144,394.774 228.208,417.917 250.881,440.774C255.656,445.584 260.186,450.121 264.48,454.381C291.371,481.057 318.268,507.455 345.173,533.575C345.396,533.791 345.375,533.979 345.103,534.132L320.938,548.053C320.722,548.185 320.52,548.157 320.338,547.976C272.517,500.492 222.666,450.589 170.788,398.266C169.68,397.144 168.697,396.092 167.84,395.102ZM394.891,264.018C394.688,270.131 394.542,276.258 394.668,282.386C394.911,293.957 392.709,311.941 382.581,319.56C376.211,324.356 366.404,325.416 359.266,322.383C353.244,319.825 347.975,315.441 343.319,310.861C333.122,300.823 322.499,290.332 311.451,279.381C310.845,278.775 310.664,278.064 310.908,277.248L317.16,256.747C317.313,256.245 317.578,256.176 317.955,256.545C331.504,269.824 345.04,283.097 358.562,296.355C360.639,298.39 369.965,307.752 371.833,300.551C372.935,296.292 373.618,291.643 373.876,286.596C373.89,286.359 373.785,286.205 373.555,286.136C364.626,283.382 355.217,274.815 350.986,266.13C345.41,254.691 346.511,240.777 354.067,230.356C362.396,218.862 376.733,214.324 390.555,216.052C392.388,216.282 394.375,216.972 396.515,218.116C396.772,218.248 396.968,218.192 397.114,217.934C400.655,211.528 403.331,205.108 405.137,198.66C405.227,198.34 405.004,198.019 404.677,197.977C400.174,197.434 395.239,197.155 389.872,197.141C382.609,197.12 378.183,194.84 374.078,188.915C370.502,183.757 366.501,179.219 362.082,175.302C343.716,159.011 317.906,158.398 295.323,164.595C275.277,170.094 258.402,185.932 250.421,204.767C242.19,224.194 244.838,246.18 258.291,262.686C259.099,263.676 262.319,267.015 267.951,272.696C304.035,309.097 339.381,344.557 374.001,379.083C378.587,383.656 381.794,387.016 383.627,389.17C393.05,400.253 400.097,413.037 402.425,427.334C404.433,439.665 403.819,451.627 400.585,463.233C399.602,466.754 398.599,470.253 397.567,473.738C397.421,474.233 397.574,474.345 398.013,474.087C406.984,468.845 416.003,463.652 425.078,458.514C430.285,455.559 434.174,453.056 436.739,451C451.251,439.359 458.528,423.026 458.507,404.345C458.374,312.199 458.367,219.315 458.472,125.698C458.479,121.669 458.214,117.995 457.691,114.67C453.781,89.897 434.334,70.553 409.632,66.977C406.496,66.524 402.272,66.301 396.954,66.308C311.786,66.426 225.831,66.426 139.102,66.301C133.839,66.294 129.706,66.489 126.709,66.886C116.275,68.273 106.907,72.337 98.599,79.092C87.439,88.161 80.623,99.872 78.134,114.21C77.619,117.201 77.361,120.791 77.361,124.966C77.402,218.171 77.402,311.279 77.368,404.289C77.361,408.785 77.612,412.466 78.106,415.345C80.671,430.143 87.76,442.105 99.365,451.244C101.826,453.182 105.387,455.482 110.057,458.138C124.66,466.468 139.248,474.867 153.83,483.337C154.011,483.441 154.241,483.4 154.366,483.232L159.448,476.812C159.629,476.582 159.615,476.359 159.413,476.15C151.571,467.876 145.549,458.765 141.353,448.825C132.229,427.188 134.669,404.08 145.675,383.544C148.358,378.532 149.404,373.869 146.776,368.801C144.58,364.577 142.775,360.632 141.353,356.965C132.613,334.457 134.174,312.527 146.044,291.19C147.487,288.596 149.069,285.955 150.784,283.264C153.488,279.019 152.847,274.641 151.062,269.831C134.55,225.351 146.553,176.159 181.801,144.484C182.184,144.143 182.128,143.885 181.647,143.71L162.361,136.907C162.152,136.83 162.117,136.551 162.298,136.433C168.488,132.327 174.621,128.27 180.699,124.269C195.371,114.608 211.73,108.794 229.776,106.821C241.855,105.504 254.924,105.532 268.983,106.905C279.828,107.965 290.437,110.063 300.808,113.2C319.565,118.874 339.388,129.427 348.916,146.896C349.062,147.161 349.285,147.328 349.585,147.391C363.525,150.256 375.123,157.296 384.373,168.519C386.436,171.022 388.367,173.566 390.172,176.152C390.318,176.354 390.513,176.466 390.764,176.48C392.709,176.584 394.793,176.647 397.003,176.675C401.505,176.731 405.743,177.205 409.716,178.09C419.384,180.265 426.249,186.852 425.984,197.106C425.831,202.878 423.691,209.402 421.44,214.86C415.529,229.164 407.109,241.969 398.745,254.956C398.647,255.109 398.417,255.102 398.334,254.942C395.595,249.749 392.834,244.562 390.06,239.376C389.217,237.801 387.802,236.309 385.85,236.323C378.824,236.372 371.764,238.61 369.199,245.413C367.254,250.564 367.881,255.228 371.081,259.417C373.353,262.387 379.333,268.089 383.446,266.876C387.342,265.726 391.001,264.659 394.431,263.662C394.668,263.599 394.898,263.774 394.891,264.018ZM172.935,256.831C176.859,269.288 183.473,280.315 192.779,289.907C213.989,311.774 235.533,333.516 257.405,355.146C260.653,358.359 263.95,361.663 267.289,365.058C301.233,399.598 335.519,434.507 370.154,469.786C370.279,469.918 370.502,469.89 370.6,469.737C381.78,451.787 382.358,430.297 370.474,412.605C368.934,410.298 366.522,407.489 363.246,404.164C319.23,359.53 280.63,320.878 247.431,288.199C244.329,285.139 241.73,282.344 239.646,279.799C230.821,269.058 225.043,257.166 222.304,244.137C214.442,206.649 233.01,170.115 267.637,153.755C269.289,152.981 270.858,152.047 272.335,150.96C275.744,148.457 279.152,146.011 282.56,143.62C282.902,143.376 282.867,143.236 282.449,143.188C275.409,142.428 268.383,141.326 261.336,141.117C239.22,140.469 219.342,147.001 201.7,160.712C198.166,163.451 194.8,166.63 191.587,170.248C170.628,193.844 163.497,226.899 172.935,256.831Z" style="fill:rgb(246,47,66);fill-rule:nonzero;"/>
                        <path d="M352.115,201.302C347.947,198.186 340.998,197.092 336.3,199.762C332.264,202.055 327.964,202.703 324.102,199.769C319.077,195.942 314.016,190.491 307.66,190.073C307.276,190.045 307.249,189.933 307.583,189.738C313.793,186.043 319.746,183.485 325.44,182.07C328.34,181.345 331.686,181.011 334.564,182.021C341.263,184.377 347.25,191.083 350.874,197.001C351.655,198.27 352.241,199.588 352.631,200.947C352.805,201.567 352.638,201.686 352.115,201.302Z" style="fill:rgb(246,47,66);fill-rule:nonzero;"/>
                    </g>
                    <g transform="matrix(1,0,0,1,1020.84,175.342)">
                        <path d="M774.761,173.127L591.029,173.134C590.695,173.134 590.423,172.862 590.423,172.527L590.527,124.13C590.527,123.844 590.764,123.607 591.057,123.607L849.278,123.6C849.55,123.6 849.773,123.823 849.766,124.095L848.93,174.138C848.923,174.542 848.742,174.918 848.428,175.169L667.603,320.355C667.401,320.515 667.435,320.599 667.693,320.599L854.388,320.104C854.638,320.104 854.841,320.306 854.841,320.55L854.847,369.345C854.847,369.457 854.792,369.512 854.68,369.512L590.848,369.512C590.653,369.512 590.499,369.359 590.499,369.164C590.444,352.65 590.437,335.802 590.479,318.626C590.479,317.413 590.862,316.995 591.782,316.284C652.993,268.681 714.024,221.064 774.866,173.433C775.123,173.231 775.089,173.127 774.761,173.127Z" style="fill:white;fill-rule:nonzero;"/>
                    </g>
                    <g transform="matrix(1,0,0,1,1020.84,175.342)">
                        <path d="M942.476,369.101C942.476,369.331 942.294,369.512 942.064,369.512L893.469,369.512C893.239,369.512 893.058,369.331 893.058,369.101L893.058,124.011C893.058,123.781 893.239,123.6 893.469,123.6L942.064,123.6C942.294,123.6 942.476,123.781 942.476,124.011L942.476,369.101Z" style="fill:white;fill-rule:nonzero;"/>
                    </g>
                    <g transform="matrix(1,0,0,1,1020.84,175.342)">
                        <path d="M1287.84,294.222C1287.81,318.814 1277,339.866 1257.08,354.483C1245.91,362.674 1233.26,367.505 1219.13,368.983C1215.28,369.38 1211.06,369.575 1206.48,369.568C1158.71,369.457 1110.69,369.464 1062.42,369.582C1057.3,369.596 1053.01,369.429 1049.54,369.087C1029.78,367.128 1013.03,358.812 999.282,344.132C986.589,330.588 980.212,314.067 980.142,294.57C980.01,256.866 980.017,224.703 980.17,198.096C980.288,177.393 988.499,158.377 1003.78,144.491C1019.14,130.543 1037.38,123.572 1058.52,123.593C1106.91,123.635 1155.5,123.614 1204.29,123.537C1210,123.53 1214.57,123.684 1218.02,124.011C1237.87,125.886 1254.71,134.168 1268.57,148.869C1281.39,162.489 1287.82,179.247 1287.85,199.141C1287.9,228.69 1287.9,260.386 1287.84,294.222ZM1030.39,301.457C1033.99,315.852 1046.07,320.006 1059.41,320.013C1108.42,320.027 1158.91,319.985 1210.88,319.881C1215.33,319.874 1219.22,319.281 1222.57,318.089C1232.94,314.409 1238.38,305.493 1238.38,294.368C1238.38,264.987 1238.39,233.57 1238.4,200.11C1238.4,189.884 1234.72,180.118 1224.62,175.95C1220.1,174.089 1215.53,173.155 1210.9,173.148C1155.65,173.113 1104.35,173.12 1057.01,173.155C1051.5,173.155 1046.5,174.298 1042.02,176.591C1033.35,181.011 1029.57,189.585 1029.58,199.107C1029.61,231.611 1029.6,262.449 1029.56,291.636C1029.55,295.951 1029.83,299.227 1030.39,301.457Z" style="fill:white;fill-rule:nonzero;"/>
                    </g>
                    <g transform="matrix(1,0,0,1,1020.84,175.342)">
                        <path d="M1375.19,189.041C1374.92,188.748 1374.79,188.797 1374.79,189.187L1374.79,369.268C1374.79,369.429 1374.71,369.512 1374.55,369.512L1325.57,369.512C1325.47,369.512 1325.38,369.422 1325.38,369.317C1325.37,289.53 1325.37,211.11 1325.38,134.056C1325.38,130.71 1325.41,127.357 1325.48,123.99C1325.49,123.774 1325.66,123.607 1325.87,123.607L1376.82,123.6C1377.38,123.6 1377.9,123.837 1378.27,124.248L1538.8,302.942C1539.14,303.319 1539.31,303.256 1539.31,302.747L1539.32,123.969C1539.32,123.774 1539.48,123.614 1539.67,123.614L1588.32,123.593C1588.52,123.593 1588.68,123.753 1588.68,123.955L1588.68,369.143C1588.68,369.387 1588.56,369.512 1588.31,369.512L1536.71,369.512C1536.47,369.512 1536.27,369.422 1536.1,369.24L1375.19,189.041Z" style="fill:white;fill-rule:nonzero;"/>
                    </g>
                    <g transform="matrix(1,0,0,1,1020.84,175.342)">
                        <path d="M691.636,486.418C693.399,486.418 694.898,485.261 694.905,483.407C694.926,473.885 694.926,464.913 694.905,456.486C694.905,456.2 695.051,456.054 695.337,456.054L703.812,455.998C704.147,455.998 704.314,456.165 704.314,456.5C704.314,465.081 704.321,473.899 704.328,482.947C704.342,490.607 698.592,495.724 691.008,495.787C683.097,495.856 675.319,495.842 667.686,495.752C660.431,495.668 654.924,490.266 654.91,482.933C654.896,473.655 654.903,464.781 654.938,456.304C654.938,456.116 655.029,456.026 655.217,456.026L663.923,456.04C664.208,456.04 664.355,456.186 664.355,456.472L664.355,483.441C664.355,485.059 665.665,486.369 667.282,486.376C675.117,486.397 683.237,486.411 691.636,486.418Z" style="fill:white;fill-rule:nonzero;"/>
                    </g>
                    <g transform="matrix(1,0,0,1,1020.84,175.342)">
                        <path d="M742.148,465.722L742.148,495.431C742.148,495.647 741.981,495.814 741.765,495.814L733.184,495.856C732.975,495.856 732.801,495.682 732.801,495.473L732.85,465.722C732.85,465.513 732.676,465.339 732.467,465.339L715.341,465.359C715.132,465.359 714.958,465.185 714.958,464.976L714.951,456.43C714.951,456.221 715.125,456.047 715.334,456.047L759.65,456.005C759.859,456.005 760.033,456.179 760.033,456.388L760.068,464.976C760.068,465.185 759.894,465.359 759.685,465.359L742.531,465.339C742.322,465.339 742.148,465.513 742.148,465.722Z" style="fill:white;fill-rule:nonzero;"/>
                    </g>
                    <g transform="matrix(1,0,0,1,1020.84,175.342)">
                        <path d="M998.404,465.708L998.397,495.452C998.397,495.654 998.236,495.814 998.034,495.814L989.426,495.821C989.224,495.821 989.064,495.661 989.064,495.459L989.064,465.708C989.064,465.506 988.903,465.346 988.701,465.346L971.562,465.359C971.36,465.359 971.199,465.199 971.199,464.997L971.185,456.402C971.185,456.2 971.346,456.04 971.548,456.04L1015.97,456.04C1016.17,456.04 1016.33,456.2 1016.33,456.402L1016.32,464.997C1016.32,465.199 1016.16,465.359 1015.96,465.359L998.766,465.346C998.564,465.346 998.404,465.506 998.404,465.708Z" style="fill:white;fill-rule:nonzero;"/>
                    </g>
                    <g transform="matrix(1,0,0,1,1020.84,175.342)">
                        <path d="M1036.82,495.48C1036.82,495.668 1036.67,495.821 1036.48,495.821L1027.76,495.821C1027.57,495.821 1027.41,495.668 1027.41,495.48L1027.41,456.374C1027.41,456.186 1027.57,456.033 1027.76,456.033L1036.48,456.033C1036.67,456.033 1036.82,456.186 1036.82,456.374L1036.82,495.48Z" style="fill:white;fill-rule:nonzero;"/>
                    </g>
                    <g transform="matrix(1,0,0,1,1020.84,175.342)">
                        <path d="M1121.91,469.716L1121.91,495.598C1121.91,495.717 1121.81,495.814 1121.69,495.814L1112.82,495.821C1112.7,495.821 1112.6,495.724 1112.6,495.605L1112.6,456.263C1112.6,456.144 1112.7,456.047 1112.82,456.047L1121.83,455.984C1121.89,455.984 1121.95,456.012 1121.99,456.054L1145.26,481.978C1145.4,482.124 1145.64,482.033 1145.64,481.831L1145.64,456.256C1145.64,456.137 1145.74,456.04 1145.86,456.04L1154.83,456.04C1154.95,456.04 1155.05,456.137 1155.05,456.256L1155.04,495.605C1155.04,495.724 1154.94,495.821 1154.83,495.821L1145.8,495.814C1145.74,495.814 1145.68,495.787 1145.64,495.745L1122.28,469.577C1122.15,469.423 1121.91,469.521 1121.91,469.716Z" style="fill:white;fill-rule:nonzero;"/>
                    </g>
                    <g transform="matrix(1,0,0,1,1020.84,175.342)">
                        <path d="M1245.35,465.025C1245.35,465.213 1245.2,465.359 1245.01,465.359L1201.9,465.359C1201.71,465.359 1201.56,465.213 1201.56,465.025L1201.56,456.367C1201.56,456.179 1201.71,456.033 1201.9,456.033L1245.01,456.033C1245.2,456.033 1245.35,456.179 1245.35,456.367L1245.35,465.025Z" style="fill:white;fill-rule:nonzero;"/>
                    </g>
                    <g transform="matrix(1,0,0,1,1020.84,175.342)">
                        <path d="M1260.14,495.821L1249.84,495.821C1249.65,495.821 1249.54,495.619 1249.63,495.452L1272.32,456.158C1272.36,456.088 1272.44,456.04 1272.52,456.04L1283.07,456.019C1283.15,456.019 1283.24,456.068 1283.28,456.144L1305.97,495.452C1306.06,495.619 1305.94,495.821 1305.75,495.821L1295.45,495.814C1295.37,495.814 1295.29,495.766 1295.25,495.696L1278,465.826C1277.91,465.659 1277.67,465.659 1277.58,465.826L1260.35,495.696C1260.31,495.773 1260.22,495.821 1260.14,495.821Z" style="fill:white;fill-rule:nonzero;"/>
                    </g>
                    <g transform="matrix(1,0,0,1,1020.84,175.342)">
                        <path d="M1326.28,465.436C1324.6,465.806 1323.25,467.214 1323.25,468.977C1323.26,473.738 1323.26,478.318 1323.27,482.73C1323.27,484.766 1324.91,486.411 1326.95,486.411L1357.06,486.411C1357.43,486.411 1357.62,486.599 1357.62,486.969L1357.62,495.32C1357.62,495.598 1357.39,495.821 1357.12,495.821C1347.72,495.821 1337.74,495.814 1327.15,495.807C1319.6,495.801 1313.91,490.036 1313.84,482.424C1313.81,478.492 1313.8,474.198 1313.82,469.542C1313.84,463.686 1317.19,458.451 1322.83,456.653C1324.27,456.193 1325.96,455.97 1327.89,455.991C1336.89,456.068 1346.61,456.068 1357.04,455.991C1357.38,455.984 1357.66,456.263 1357.66,456.604L1357.61,464.906C1357.6,465.157 1357.41,465.352 1357.16,465.352L1327,465.352C1326.75,465.352 1326.51,465.38 1326.28,465.436Z" style="fill:white;fill-rule:nonzero;"/>
                    </g>
                    <g transform="matrix(1,0,0,1,1020.84,175.342)">
                        <path d="M1384.78,465.346L1367.54,465.352C1367.35,465.352 1367.21,465.206 1367.21,465.018L1367.2,456.36C1367.2,456.179 1367.35,456.026 1367.53,456.026L1411.98,456.04C1412.16,456.04 1412.32,456.193 1412.32,456.374L1412.31,465.025C1412.31,465.213 1412.16,465.359 1411.98,465.359L1394.74,465.352C1394.55,465.352 1394.4,465.499 1394.4,465.687L1394.39,495.487C1394.39,495.675 1394.24,495.821 1394.06,495.821L1385.44,495.814C1385.25,495.814 1385.11,495.668 1385.11,495.48L1385.11,465.68C1385.11,465.499 1384.96,465.346 1384.78,465.346Z" style="fill:white;fill-rule:nonzero;"/>
                    </g>
                    <g transform="matrix(1,0,0,1,1020.84,175.342)">
                        <path d="M1506.45,482.912C1506.28,482.912 1506.17,483.1 1506.25,483.253L1513.2,495.292C1513.33,495.529 1513.16,495.821 1512.89,495.821L1503.08,495.814C1502.82,495.814 1502.57,495.668 1502.43,495.438L1489.97,473.864C1489.89,473.717 1489.99,473.536 1490.16,473.536C1498.23,473.487 1506.64,473.494 1515.38,473.557C1521.82,473.599 1521.61,465.339 1515.74,465.346C1504.84,465.366 1494.75,465.366 1485.46,465.346C1485.2,465.339 1484.97,465.206 1484.84,464.983L1479.93,456.458C1479.82,456.27 1479.96,456.033 1480.18,456.033C1493.39,456.04 1505.56,456.04 1516.67,456.033C1519.87,456.033 1522.83,457.315 1525.55,459.887C1530.78,464.816 1530.93,473.215 1526.01,478.569C1523.32,481.49 1519.82,482.947 1515.47,482.94C1512.27,482.94 1509.26,482.933 1506.45,482.912Z" style="fill:white;fill-rule:nonzero;"/>
                    </g>
                    <g transform="matrix(1,0,0,1,1020.84,175.342)">
                        <path d="M1568.77,481.016L1568.77,495.145C1568.77,495.598 1568.54,495.821 1568.09,495.821L1559.87,495.821C1559.57,495.821 1559.33,495.577 1559.34,495.278L1559.36,481.016C1559.36,480.723 1559.21,480.576 1558.92,480.569C1555.28,480.486 1550.94,481.03 1547.61,479.768C1544.14,478.45 1541.71,476.157 1540.32,472.888C1539.58,471.152 1539.26,468.698 1539.35,465.52C1539.44,462.111 1539.44,459.135 1539.35,456.59C1539.34,456.221 1539.51,456.04 1539.88,456.033L1548.25,455.977C1548.62,455.977 1548.8,456.158 1548.79,456.521C1548.74,460.354 1548.74,464.112 1548.76,467.799C1548.77,470.037 1549.84,471.159 1551.95,471.159C1560,471.159 1568.17,471.152 1576.45,471.138C1578.04,471.138 1579.33,469.856 1579.33,468.266L1579.33,456.465C1579.33,456.179 1579.47,456.04 1579.76,456.04L1588.16,455.998C1588.5,455.998 1588.67,456.172 1588.67,456.514C1588.68,460.382 1588.68,464.356 1588.67,468.447C1588.67,473.62 1585.28,477.935 1580.53,479.747C1577.19,481.023 1572.89,480.507 1569.23,480.549C1568.92,480.549 1568.77,480.702 1568.77,481.016Z" style="fill:white;fill-rule:nonzero;"/>
                    </g>
                    <g transform="matrix(1,0,0,1,1020.84,175.342)">
                        <path d="M618.554,465.896L601.373,495.675C601.324,495.759 601.226,495.814 601.122,495.814L590.925,495.821C590.702,495.821 590.569,495.584 590.681,495.389L613.313,456.179C613.361,456.095 613.459,456.04 613.564,456.04L624.061,456.04C624.165,456.04 624.263,456.095 624.311,456.179L646.943,495.389C647.055,495.584 646.922,495.821 646.699,495.821L636.495,495.814C636.391,495.814 636.293,495.759 636.244,495.675L619.056,465.896C618.944,465.701 618.666,465.701 618.554,465.896Z" style="fill:white;fill-rule:nonzero;"/>
                    </g>
                    <g transform="matrix(1,0,0,1,1020.84,175.342)">
                        <path d="M819.67,483.317C819.655,490.238 814.038,495.835 807.123,495.822L782.853,495.779C775.939,495.766 770.335,490.147 770.35,483.231L770.376,468.509C770.391,461.588 776.009,455.991 782.923,456.005L807.193,456.047C814.107,456.061 819.711,461.679 819.696,468.595L819.67,483.317ZM810.343,468.411C810.343,466.74 808.991,465.38 807.323,465.381L782.816,465.338C781.146,465.339 779.787,466.684 779.786,468.358L779.76,483.359C779.759,485.031 781.111,486.39 782.779,486.39L807.286,486.432C808.956,486.432 810.316,485.087 810.316,483.412L810.343,468.411Z" style="fill:white;fill-rule:nonzero;"/>
                    </g>
                    <g transform="matrix(1,0,0,1,1020.84,175.342)">
                        <path d="M855.656,465.813L838.398,495.696C838.356,495.773 838.28,495.814 838.189,495.814L827.887,495.828C827.706,495.828 827.587,495.633 827.678,495.473L850.38,456.151C850.422,456.074 850.498,456.033 850.589,456.033L861.142,456.04C861.232,456.04 861.309,456.081 861.351,456.158L867.052,466.057C867.143,466.217 867.366,466.217 867.456,466.057L873.151,456.158C873.193,456.088 873.27,456.04 873.36,456.04L883.92,456.04C884.01,456.04 884.087,456.081 884.129,456.158L906.817,495.473C906.907,495.633 906.789,495.828 906.607,495.828L896.299,495.814C896.208,495.814 896.131,495.773 896.09,495.696L878.839,465.82C878.748,465.659 878.525,465.659 878.434,465.82L861.19,495.696C861.148,495.773 861.072,495.814 860.981,495.814L850.665,495.828C850.484,495.828 850.366,495.633 850.456,495.473L861.748,475.913C861.79,475.836 861.79,475.753 861.748,475.676L856.06,465.813C855.97,465.652 855.747,465.652 855.656,465.813Z" style="fill:white;fill-rule:nonzero;"/>
                    </g>
                    <g transform="matrix(1,0,0,1,1020.84,175.342)">
                        <path d="M924.583,495.814L914.386,495.821C914.163,495.821 914.031,495.584 914.142,495.389L936.774,456.179C936.823,456.095 936.92,456.04 937.025,456.04L947.522,456.04C947.627,456.04 947.724,456.095 947.773,456.186L970.398,495.389C970.509,495.584 970.377,495.821 970.154,495.821L959.957,495.814C959.852,495.814 959.754,495.759 959.706,495.675L942.517,465.889C942.406,465.694 942.127,465.694 942.016,465.889L924.834,495.675C924.786,495.759 924.688,495.814 924.583,495.814Z" style="fill:white;fill-rule:nonzero;"/>
                    </g>
                    <g transform="matrix(1,0,0,1,1020.84,175.342)">
                        <path d="M1099.42,483.175C1099.43,490.126 1093.81,495.766 1086.86,495.779L1062.65,495.822C1055.7,495.835 1050.06,490.21 1050.04,483.261L1050.02,468.651C1050,461.7 1055.63,456.061 1062.58,456.047L1086.79,456.005C1093.74,455.991 1099.38,461.616 1099.39,468.565L1099.42,483.175ZM1089.99,468.358C1089.98,466.684 1088.62,465.339 1086.95,465.338L1062.46,465.381C1060.79,465.38 1059.44,466.74 1059.44,468.411L1059.47,483.412C1059.47,485.087 1060.83,486.432 1062.5,486.432L1086.99,486.39C1088.66,486.39 1090.01,485.031 1090.01,483.359L1089.99,468.358Z" style="fill:white;fill-rule:nonzero;"/>
                    </g>
                    <g transform="matrix(1,0,0,1,1020.84,175.342)">
                        <path d="M1471.94,483.224C1471.96,490.147 1466.36,495.766 1459.43,495.779L1435.18,495.822C1428.26,495.835 1422.64,490.231 1422.62,483.31L1422.6,468.602C1422.58,461.679 1428.19,456.061 1435.11,456.047L1459.37,456.005C1466.29,455.991 1471.9,461.595 1471.92,468.516L1471.94,483.224ZM1462.63,468.489C1462.63,466.761 1461.23,465.359 1459.5,465.359L1435.09,465.359C1433.36,465.359 1431.96,466.761 1431.96,468.489L1431.96,483.281C1431.96,485.01 1433.36,486.411 1435.09,486.411L1459.5,486.411C1461.23,486.411 1462.63,485.01 1462.63,483.281L1462.63,468.489Z" style="fill:white;fill-rule:nonzero;"/>
                    </g>
                    <g transform="matrix(1,0,0,1,1020.84,175.342)">
                        <path d="M1210.55,495.814L1201.89,495.821C1201.71,495.821 1201.56,495.675 1201.56,495.494L1201.56,471.487C1201.56,471.305 1201.71,471.159 1201.89,471.159L1245.02,471.152C1245.2,471.152 1245.35,471.298 1245.35,471.48L1245.35,480.228C1245.35,480.409 1245.2,480.556 1245.02,480.556L1211.21,480.556C1211.03,480.556 1210.89,480.702 1210.89,480.883L1210.88,495.487C1210.88,495.668 1210.73,495.814 1210.55,495.814Z" style="fill:white;fill-rule:nonzero;"/>
                    </g>
                </g>
            </g>
        </g>
    </g>
</svg>
