<?xml version="1.0" encoding="UTF-8" standalone="no"?>
<!DOCTYPE svg PUBLIC "-//W3C//DTD SVG 1.1//EN" "http://www.w3.org/Graphics/SVG/1.1/DTD/svg11.dtd">
<svg width="100%" height="100%" viewBox="0 0 1000 505" version="1.1" xmlns="http://www.w3.org/2000/svg" xmlns:xlink="http://www.w3.org/1999/xlink" xml:space="preserve" xmlns:serif="http://www.serif.com/" style="fill-rule:evenodd;clip-rule:evenodd;stroke-linejoin:round;stroke-miterlimit:2;">
    <g transform="matrix(0.360214,0,0,0.360214,49.7139,-197.786)">
        <path d="M2063.5,1725.5L2063.5,1268.8L1797,1268.8L1797,1725.5L2063.5,1725.5ZM2063.6,1231.1L1797,1231.1L1797,774.5L2063.6,774.5L2063.6,1231.1ZM2406.3,1269.2C2441.4,1319.1 2463.3,1379.1 2463.3,1440.1C2463.3,1597.1 2334.9,1725.6 2177.8,1725.6L2101.7,1725.6L2101.7,1268.9L2406.3,1269.2ZM2101.6,1231.1L2372.2,1231.8C2347.9,1209.2 2314.9,1187.3 2282.9,1175.5C2349,1137.1 2391.8,1065.6 2391.8,988.5C2391.8,871.6 2294.8,774.5 2177.8,774.5L2101.7,774.5L2101.6,1231.1ZM1321.1,1725.5L1055.2,1725.5L1055.2,1268.8L1321.1,1268.8L1321.1,1725.5ZM1321.1,1231.1L1055.2,1231.1L1055.2,774.5L1321.1,774.5L1321.1,1231.1ZM1359.2,1725.5L1359.2,1268.8L1663.9,1269.1C1698.9,1319 1720.9,1379 1720.9,1440C1720.9,1597 1592.5,1725.5 1435.5,1725.5L1359.2,1725.5ZM1359.2,1231.1L1359.2,774.5L1435.4,774.5C1552.3,774.5 1649.7,871.6 1649.7,988.5C1649.7,1065.7 1606.6,1137.1 1540.5,1175.5C1572.5,1187.3 1605.6,1209.2 1629.8,1231.8L1359.2,1231.1ZM493.7,1231.1L210,1231.1L369.7,774.5L493.7,774.5L493.7,1231.1ZM815.3,1231.1L655.2,774.5L531.8,774.5L531.8,1231.1L815.3,1231.1ZM988.5,1725.5L750.5,1725.5L684.1,1535.4L531.8,1535.4L531.8,1268.8L828.7,1268.8L988.5,1725.5ZM36.8,1725.5L274.7,1725.5L341.4,1535.4L493.7,1535.4L493.7,1268.8L196.8,1268.8L36.8,1725.5Z" style="fill:rgb(55,54,63);"/>
    </g>
</svg>
