<?xml version="1.0" encoding="UTF-8" standalone="no"?>
<!DOCTYPE svg PUBLIC "-//W3C//DTD SVG 1.1//EN" "http://www.w3.org/Graphics/SVG/1.1/DTD/svg11.dtd">
<svg width="100%" height="100%" viewBox="0 0 236 110" version="1.1" xmlns="http://www.w3.org/2000/svg" xmlns:xlink="http://www.w3.org/1999/xlink" xml:space="preserve" xmlns:serif="http://www.serif.com/" style="fill-rule:evenodd;clip-rule:evenodd;stroke-linejoin:round;stroke-miterlimit:2;">
    <g transform="matrix(1,0,0,1,-1310,0)">
        <g id="Artboard4" transform="matrix(1.10779,0,0,0.927204,-141.46,-3.8475e-12)">
            <rect x="1310.24" y="0" width="213.037" height="118.636" style="fill:none;"/>
            <g transform="matrix(0.247545,0,0,0.295757,1291.37,-10.6907)">
                <path d="M76.7,314L76.2,314L76.2,159L77.1,159C77.3,159.3 77.4,159.6 77.4,159.9L77.4,310.8C77.4,311.9 77.6,313.1 76.7,314Z" style="fill:rgb(140,137,190);fill-rule:nonzero;"/>
                <path d="M122.2,185C136.6,193.2 151,201.5 165.4,209.7C166.7,210.4 167.2,211.2 167.2,212.7C167.1,228.6 167.2,244.5 167.2,260.3C167.2,260.8 167.3,261.4 166.9,262.2C152.1,253.7 137.3,245.3 122.5,236.9C121.7,237.5 122,238.2 122,238.8C122,254.5 122,270.2 121.9,285.9C121.9,287.7 122.6,288.6 124.1,289.4C138.5,297.5 152.8,305.8 167.1,313.9C167.9,314.8 167.8,316 167.8,317.1L167.8,361.9C167.8,363.1 167.9,364.4 167,365.3C162.1,362.5 157.1,359.8 152.2,357C127.8,343.1 103.4,329.1 79,315.2C78.3,314.8 77.5,314.5 77,313.9C77,313.7 77.1,313.6 77.1,313.4C77.2,312.2 77.1,311 77.1,309.8L77.1,164.1C77.1,162.9 77,161.7 77.3,160.5C78.4,158.8 79.6,159.9 80.6,160.5C87.4,164.3 94.1,168.2 100.9,172.1C107.3,175.8 113.7,179.4 120.1,183.1C121,183.6 121.9,183.9 122.2,185Z" style="fill:rgb(55,54,63);fill-rule:nonzero;"/>
                <path d="M122.2,185C108.4,177.2 94.6,169.3 80.9,161.5C80,161 79,160.5 78.1,160C77.7,160.1 77.5,160 77.2,159.7C77.2,159.6 77.1,159.5 77.1,159.4C77.1,159.3 77,159.2 77,159C93.9,149.3 110.9,139.6 127.8,129.9C140.4,122.7 153.1,115.5 165.7,108.2C166.8,107.6 167.5,107.6 168.5,108.2C189.7,120.4 210.9,132.5 232.2,144.6C240.2,149.2 248.2,153.8 256.2,158.3C256.6,158.5 257,158.8 257.4,159.1C255.6,161.3 252.9,162.2 250.6,163.6C238.2,170.7 225.8,177.8 213.3,184.9C212.9,185 212.6,185 212.2,184.8C208.3,182.9 204.6,180.6 200.8,178.4C190,172.3 179.3,166.1 168.6,159.9C167.3,159.1 166.3,159.5 165.3,160.2C159.2,163.7 153.1,167.2 147,170.6C139.3,175 131.5,179.4 123.8,183.9C123.3,184.3 122.8,184.7 122.2,185Z" style="fill:rgb(144,144,145);fill-rule:nonzero;"/>
                <path d="M167.1,365.5C167.1,364.5 167.2,363.4 167.2,362.4L167.2,314.1C184.6,304.2 202.1,294.2 219.5,284.3C231.4,277.5 243.2,270.7 255.1,263.9C255.9,263.5 256.5,262.9 257.5,262.9C257.9,263.7 257.7,264.5 257.7,265.3C257.7,280.8 257.7,296.2 257.8,311.7C257.8,313.7 257.1,314.7 255.4,315.6C239.6,324.5 223.9,333.6 208.2,342.5C194.9,350.1 181.5,357.7 168.1,365.3C167.8,365.5 167.5,365.9 167.1,365.5Z" style="fill:rgb(144,144,145);fill-rule:nonzero;"/>
                <path d="M213.2,184.5C217.7,181.6 222.4,179.1 227,176.5C236.3,171.2 245.6,165.8 254.9,160.5C255.7,160 256.6,159.6 257.5,159.2C257.6,159.8 257.7,160.5 257.7,161.1L257.7,208.7C257.7,210.2 257.3,211 256,211.8C242.3,219.6 228.6,227.4 214.9,235.2C214.6,235.4 214.2,235.5 213.8,235.7C212.7,235.3 212.9,234.3 212.9,233.4L212.9,186.6C212.8,185.9 212.9,185.2 213.2,184.5Z" style="fill:rgb(55,54,63);fill-rule:nonzero;"/>
                <path d="M806.3,243.8C809.1,241.7 810.5,238.9 810.5,235.6C810.5,233.2 810.6,230.7 810.5,228.3C810.4,225.8 809.7,223.6 808,221.7C805.9,219.5 803.4,218.6 800.4,218.6L761.5,218.6C760.4,218.5 759.8,218.8 759.9,220.1L759.9,268.2C759.9,268.9 760.2,269.2 760.9,269.2L762.6,269.2C775.4,269.2 788.2,269.1 801,269.2C805.1,269.2 810,266.2 810.4,260.6C810.5,258.4 810.4,256.2 810.5,254.1C810.7,250.1 809.9,246.5 806.3,243.8ZM770.5,229.3C770.5,227.6 770.5,227.6 772.2,227.5L795.1,227.5C797.9,227.5 798.9,228.5 799,231.2L799,236.3C798.9,238.2 798.1,239.1 796.2,239.3C795.7,239.4 795.2,239.4 794.7,239.4L772.6,239.4C770.6,239.4 770.6,239.4 770.5,237.5L770.5,229.3ZM798.9,257.2C798.8,259.4 797.8,260.4 795.6,260.5L784,260.5C780,260.5 776.1,260.4 772.1,260.5C770.8,260.5 770.5,260.1 770.5,258.8C770.6,255.7 770.6,252.7 770.5,249.6C770.5,248.5 770.8,248.2 771.9,248.2L795.4,248.2C797.9,248.2 798.9,249.3 798.9,251.7L798.9,257.2Z" style="fill:rgb(55,54,63);fill-rule:nonzero;"/>
                <path d="M674.2,248.5C674.9,248.4 675.1,248.4 675.4,248.4C680.7,248.1 684.4,244.3 684.5,239L684.5,228.1C684.4,223.6 681.3,219.7 677,218.9C675.8,218.7 674.6,218.7 673.4,218.7L635,218.7C634.3,218.7 633.9,219 634,219.7L634,268.1C633.9,269.1 634.4,269.3 635.3,269.3L642.3,269.3C644.4,269.3 644.4,269.3 644.4,267.2L644.4,250.2C644.4,249 644.6,248.5 646,248.5C651.3,248.6 656.5,248.5 661.8,248.5C662.7,248.5 663.3,248.8 663.8,249.5C664.9,251.1 666.2,252.6 667.4,254.1C671,258.7 674.5,263.3 678.1,267.9C678.6,268.5 678.9,269.3 679.9,269.3L690.5,269.3C684.8,262.2 679.6,255.5 674.2,248.5ZM673.9,236.4C673.8,238.6 672.8,239.6 670.6,239.7C666.4,239.8 662.2,239.7 658,239.7L646.1,239.7C644.3,239.7 644.3,239.7 644.3,238L644.3,229C644.3,227.8 644.7,227.5 645.9,227.5L670.7,227.5C672.8,227.5 674,228.7 674,230.8C674,232.7 674,234.6 673.9,236.4Z" style="fill:rgb(55,54,63);fill-rule:nonzero;"/>
                <path d="M381.9,269.3L335.1,269.3C333.1,269.3 333.1,269.3 333.1,267.4L333.1,220.7C333.1,218.7 333.1,218.6 335,218.6L381.9,218.6C383.8,218.6 383.8,218.6 383.8,220.4C383.8,222.2 383.7,224 383.8,225.7C383.9,227 383.4,227.4 382.1,227.3C377.6,227.2 373,227.3 368.5,227.3L345.4,227.3C343.6,227.3 343.6,227.1 343.6,229.2L343.6,237.5C343.6,239.8 343.3,239.6 345.6,239.6L377.4,239.6C378.5,239.6 379.1,239.8 379,241.1C378.9,243 378.9,244.8 379,246.7C379.1,247.9 378.5,248.2 377.4,248.2C376.1,248.1 374.8,248.2 373.5,248.2L345.8,248.2C343.3,248.2 343.5,248 343.5,250.4L343.5,259.1C343.5,260.2 343.8,260.7 345,260.6C347.4,260.5 349.9,260.6 352.3,260.6L381.7,260.6C383.7,260.6 383.7,260.6 383.7,262.5L383.7,267.6C383.7,269.3 383.7,269.3 381.9,269.3Z" style="fill:rgb(55,54,63);fill-rule:nonzero;"/>
                <path d="M556,239.4C556.8,239.9 557.7,239.7 558.5,239.7L589.4,239.7C591.4,239.7 591.4,239.6 591.4,241.7L591.4,246.8C591.4,247.9 591,248.3 590,248.2L558.4,248.2C555.9,248.2 556.1,248 556.1,250.4L556.1,258.9C556.1,260.6 555.9,260.7 557.8,260.7L594,260.7C596.3,260.7 596.2,260.4 596.2,263L596.2,268.3C596.2,269.1 595.9,269.5 595.1,269.4L547.2,269.4C546,269.5 545.3,269.2 545.5,267.8L545.5,219.6C545.5,218.9 545.9,218.6 546.5,218.6L594.9,218.6C595.8,218.5 596.2,218.8 596.2,219.8L596.2,226.1C596.2,227.1 595.8,227.3 594.9,227.3L557.9,227.3C556,227.3 556.1,227.1 556.1,229.1C556,232.7 556,236 556,239.4Z" style="fill:rgb(55,54,63);fill-rule:nonzero;"/>
                <path d="M747.6,225.8C747.6,223.6 747,221.7 745.3,220.2C743.8,218.9 742,218.7 740.1,218.7L704.4,218.7C703.7,218.7 702.9,218.7 702.2,218.8C699.9,219.1 698.3,220.4 697.4,222.4C696.9,223.5 696.9,224.7 696.9,226L696.9,256.9C696.9,258.9 696.8,261 696.9,263C697,266.9 699.5,269.3 703.4,269.3L740.8,269.3C745.1,269.3 747.5,266.9 747.6,262.5L747.6,225.8ZM738.4,257.5C738.4,259.8 738.1,260.1 735.7,260.2L708.7,260.2C706.3,260.2 706.1,260 706.1,257.5L706.1,230.3C706.1,228.1 706.3,228 708.5,228L735.7,228C738.1,228 738.4,228.2 738.4,230.6C738.5,239.5 738.5,248.5 738.4,257.5Z" style="fill:rgb(55,54,63);fill-rule:nonzero;"/>
                <path d="M873.6,226C873.6,222.2 871.6,218.5 866.3,218.6C862.1,218.7 857.9,218.6 853.7,218.6L830.1,218.6C825.2,218.6 823,220.9 823,225.7L823,262.6C823,266.6 825.4,269.1 829.4,269.1L867.1,269.1C867.8,269.1 868.5,269.1 869.2,268.9C872.1,267.9 873.5,265.7 873.5,262.1C873.6,250.1 873.6,238.1 873.6,226ZM864.4,257.7C864.4,259.8 864.1,260.1 862,260.1L834.6,260.1C832.4,260.1 832.1,259.8 832.1,257.6L832.1,230.4C832.1,228.2 832.4,227.9 834.7,227.9L862.1,227.9C864.3,227.9 864.4,228 864.4,230.3L864.4,257.7Z" style="fill:rgb(55,54,63);fill-rule:nonzero;"/>
                <path d="M911.4,218.7L935,218.7C936.8,218.7 936.8,218.7 936.8,220.6L936.8,225.7C936.8,227.4 936.8,227.4 935.1,227.5L919.6,227.5C916.9,227.5 916.9,227.5 916.9,230.2L916.9,267.9C917,269 916.7,269.5 915.4,269.5C912.8,269.4 910.2,269.4 907.6,269.5C906.3,269.5 906.2,268.9 906.2,267.9L906.2,229.6C906.2,227.5 906.4,227.7 904.2,227.7L887.9,227.7C885.9,227.7 885.9,227.7 885.9,225.7L885.9,220.4C885.9,219.3 886.3,219 887.3,219C888.9,219.1 890.5,219 892.2,219C898.6,218.7 905,218.7 911.4,218.7Z" style="fill:rgb(55,54,63);fill-rule:nonzero;"/>
                <path d="M396.2,243.8L396.2,221C396.2,218.7 396.2,218.7 398.4,218.7L405.4,218.7C406.3,218.7 406.7,219 406.7,220L406.7,258.4C406.7,261 406.4,260.7 409.1,260.7L445.8,260.7C446.5,260.7 446.9,260.9 446.9,261.7L446.9,268.5C446.9,269.2 446.6,269.5 445.9,269.5L397.8,269.5C396.6,269.6 396.3,269.2 396.3,268C396.4,262.7 396.3,257.5 396.3,252.2C396.2,249.3 396.2,246.5 396.2,243.8Z" style="fill:rgb(55,54,63);fill-rule:nonzero;"/>
                <path d="M508,218.7L531.1,218.7C533.1,218.7 533.1,218.7 533.1,220.7L533.1,225.1C533.1,227.8 533,227.5 530.8,227.5L514.8,227.5C513,227.5 513,227.5 513,229.4L513,268.5C513,269.1 512.7,269.4 512.1,269.4L503.6,269.4C503,269.4 502.8,269.1 502.8,268.5L502.8,228.7C502.9,227.8 502.4,227.6 501.6,227.6L484.3,227.6C482.4,227.6 482.4,227.6 482.4,225.8L482.4,220.7C482.4,218.9 482.4,218.9 484.3,218.9C492.1,218.7 500,218.7 508,218.7Z" style="fill:rgb(55,54,63);fill-rule:nonzero;"/>
                <path d="M469.8,219.6L469.8,267.3C469.8,269.2 469.8,269.3 467.8,269.3L460.8,269.3C459.7,269.3 459.3,268.9 459.4,267.9L459.4,219.5C459.4,218.9 459.7,218.6 460.3,218.6L468.8,218.6C469.5,218.6 469.8,219 469.8,219.6Z" style="fill:rgb(55,54,63);fill-rule:nonzero;"/>
                <path d="M76.7,314L76.7,162.6C76.7,161.5 76.3,160.3 77.2,159.3L77.2,159.5C77.6,160.7 77.4,161.9 77.4,163.1L77.4,313.9C77.3,314 77.2,314 77.1,314L76.7,314Z" style="fill:rgb(100,98,161);fill-rule:nonzero;"/>
                <path d="M213.2,184.5C213.2,188.4 213.3,192.3 213.3,196.2L213.3,232.6C213.3,233.6 213.1,234.7 213.8,235.7C213.3,236.1 212.7,236.7 212.5,235.5C212.4,234.9 212.5,234.2 212.5,233.6L212.5,187.8C212.5,186.8 212.5,185.9 212.4,184.9C212.7,184.7 213,184.6 213.2,184.5Z" style="fill:rgb(44,48,120);fill-rule:nonzero;"/>
                <path d="M77.4,313.9C77.1,313.1 77.2,312.3 77.2,311.5L77.2,159.5C77.6,159.5 77.8,159.7 78.1,160C77.4,161 77.6,162.2 77.6,163.3L77.6,311.1C77.6,312 77.9,313 77.4,313.9Z" style="fill:rgb(43,48,123);fill-rule:nonzero;"/>
            </g>
        </g>
        <g id="Layer_1-2">
        </g>
    </g>
</svg>
