<?xml version="1.0" encoding="UTF-8" standalone="no"?>
<!DOCTYPE svg PUBLIC "-//W3C//DTD SVG 1.1//EN" "http://www.w3.org/Graphics/SVG/1.1/DTD/svg11.dtd">
<svg width="100%" height="100%" viewBox="0 0 236 110" version="1.1" xmlns="http://www.w3.org/2000/svg" xmlns:xlink="http://www.w3.org/1999/xlink" xml:space="preserve" xmlns:serif="http://www.serif.com/" style="fill-rule:evenodd;clip-rule:evenodd;stroke-linejoin:round;stroke-miterlimit:2;">
    <g transform="matrix(1,0,0,1,-1310,-2.86885)">
        <g id="Artboard4" transform="matrix(1.10779,0,0,0.927204,-141.46,2.86885)">
            <rect x="1310.24" y="0" width="213.037" height="118.636" style="fill:none;"/>
            <g transform="matrix(0.24468,0,0,0.292334,1338.35,-35.1642)">
                <path d="M34.8,434.2C35.5,433.6 36.4,433.3 37.6,433.3C38.8,433.3 39.9,433.7 41.1,434.4C42.2,435.1 43.6,436.5 45.3,438.6C43.5,439.2 42.2,439.5 41.3,439.5C39.9,439.5 38.5,439.3 37.1,438.9C36.2,438.6 35,438.1 33.5,437.2C33.7,435.8 34.1,434.8 34.8,434.2M40.4,405.4C41.7,405.4 43.1,405.6 44.7,406C46.1,406.4 47.3,406.9 48.3,407.6C49.9,408.7 51.2,410.1 52.2,411.7C53.2,413.3 53.9,415.1 54.3,417.2C54.5,418.3 54.7,419.2 54.8,419.9C54.9,420.6 55,421.4 55,422.1C55,423.2 54.9,424.3 54.8,425.6C54.6,427.8 54,429.7 53.2,431.3C52.4,432.8 51.1,434.6 49.1,436.5C48.2,435.2 47.4,434.1 46.6,433.3C45.8,432.5 45.1,431.8 44.3,431.3C42.1,429.9 39.9,429.1 37.6,429.1C35.7,429.1 34,429.6 32.5,430.7C31.5,431.3 30.7,432.6 30.1,434.6C29,433.1 28.3,431.9 28,431.3C27.4,429.9 26.9,428.1 26.4,425.9C26.2,425.1 26.2,423.8 26.2,422C26.2,419.5 26.6,417.2 27.5,414.9C28.4,412.6 29.5,410.8 30.7,409.6C32,408.3 33.4,407.3 34.9,406.6C36.6,405.8 38.4,405.4 40.4,405.4M44.2,401C42.8,400.7 41.4,400.6 39.9,400.6C38.6,400.6 37.1,400.8 35.4,401.2C34.3,401.4 32.8,402 31,402.9C29.6,403.6 28.2,404.6 26.8,406C25.4,407.4 24.2,408.9 23.4,410.5C22.3,412.6 21.5,414.8 21.1,417.2C20.7,419 20.5,421.1 20.5,423.3C20.5,424.4 20.7,425.9 21.1,428C21.6,430.6 22.5,432.8 23.6,434.7C24.8,436.7 26.3,438.3 28.2,439.7C30.1,441.1 32.1,442.2 34.2,443C36.4,443.7 38.5,444.1 40.6,444.1C42.2,444.1 44.7,443.6 48,442.7C49.6,444.9 50.9,446.4 51.9,447.2C53.1,448.1 54.1,448.7 55.1,449C55.3,449.1 55.7,449.1 56.2,449.2C56.7,449.2 57.3,449.3 57.9,449.3L60.8,449.3L60.8,444.3C59.6,444.3 58.9,444.4 58.7,444.4C57,444.4 55.8,444.2 55,443.8C54.4,443.5 53.4,442.4 52,440.6C54.1,438.9 55.6,437.5 56.5,436.4C57.8,434.8 58.8,432.8 59.6,430.4C60.4,428.1 60.8,425.4 60.8,422.2C60.8,420.7 60.6,418.9 60.1,416.8C59.5,414.1 58.5,411.6 57.1,409.4C56.1,407.7 54.8,406.3 53.1,405C51.5,403.7 49.7,402.7 48,402C46.8,401.6 45.5,401.2 44.2,401" style="fill:rgb(128,129,132);fill-rule:nonzero;"/>
                <path d="M89.7,433.3L89.7,413.3L94.7,413.3L94.7,443.2L89.7,443.2L89.7,438.7C87.8,440.6 86,442 84.4,442.7C82.7,443.4 80.8,443.8 78.6,443.8C76.4,443.8 74.3,443.3 72.5,442.2C70.7,441.1 69.4,439.7 68.6,437.9C68.1,436.8 67.9,435.1 67.9,432.9L67.9,413.3L73,413.3L73,432C73,434.7 73.5,436.6 74.7,437.8C75.8,439 77.3,439.6 79.2,439.6C83.2,439.6 86.7,437.5 89.7,433.3" style="fill:rgb(128,129,132);fill-rule:nonzero;"/>
                <path d="M110.4,439.7C109,439.7 108,439.3 107.2,438.6C106.4,437.9 106,437 106,436C106,434.9 106.4,433.8 107.2,432.7C108,431.6 109.3,430.7 111.2,429.9C113.2,429.1 116.4,428.3 120.7,427.5L120.7,434.2C117.2,437.9 113.8,439.7 110.4,439.7M122.5,442.4C123.4,443.2 124.6,443.5 125.9,443.5L131.3,443.5L131.3,439.1L129,439.1C127.8,439.1 127,438.8 126.5,438.3C126,437.7 125.7,436.8 125.7,435.6C125.7,435.5 125.7,435.1 125.8,434.5L125.8,433.7C125.8,427.4 125.7,423.2 125.4,421.2C125.2,419.2 124.5,417.5 123.5,416.2C122.5,414.9 121.1,413.9 119.3,413.1C117.7,412.4 116,412.1 114.2,412.1C110.4,412.1 107.3,413 105.1,414.9C103.8,416 102.5,418.1 101.4,421.2L107.5,421.2C107.9,419.6 108.6,418.5 109.4,417.9C110.7,416.9 112.2,416.4 113.9,416.4C115.8,416.4 117.3,416.9 118.5,418C119.6,419.1 120.3,420.9 120.6,423.5C115,424.4 111.1,425.4 108.8,426.3C105.8,427.5 103.7,428.9 102.4,430.6C101.1,432.3 100.5,434.1 100.5,435.9C100.5,438 101.2,439.9 102.6,441.7C104,443.4 106.2,444.3 109.3,444.3C111.4,444.3 113.2,444 114.9,443.4C116.5,442.8 118.5,441.5 121,439.7C121.2,440.9 121.7,441.8 122.5,442.4" style="fill:rgb(128,129,132);fill-rule:nonzero;"/>
                <rect x="135.1" y="400.6" width="5.6" height="42.9" style="fill:rgb(128,129,132);"/>
                <path d="M147.3,402.4L148.1,401.5L152.6,401.5L153.5,402.4L153.5,406.6L152.5,407.5L148,407.5L147.2,406.6M147.6,413L153,413L153,443.3L147.6,443.3L147.6,413Z" style="fill:rgb(128,129,132);fill-rule:nonzero;"/>
                <path d="M163.4,414L163.4,403.4L168.3,403.4L168.3,414L178.4,414L178.4,418.6L168.3,418.6L168.3,434.2C168.3,435.4 168.5,436.3 168.9,436.9C169.3,437.5 169.7,437.9 170.3,438.1C171.2,438.4 172.7,438.5 174.9,438.5C175.5,438.5 176.3,438.5 177.3,438.4L177.3,443.3C173.2,443.3 170.9,443.3 170.3,443.2C168.5,442.9 167.1,442.5 166.1,441.7C165,441 164.3,440.1 163.9,439.1C163.6,438.4 163.4,437.3 163.4,435.6L163.4,418.4L157.8,418.4L157.8,414" style="fill:rgb(128,129,132);fill-rule:nonzero;"/>
                <path d="M193.6,440.2L180.8,413.3L186.9,413.3L196.5,434.6L205,413.3L210.9,413.3C209.5,416.7 207.8,420.8 205.8,425.7C204,429.9 202.6,433.2 201.5,435.7C200.5,437.9 199.6,439.7 198.9,441C196.7,444.8 194.4,447.5 191.9,449C190,450.2 187.4,450.7 184.3,450.7L180.8,450.7L180.8,445.6C184.3,445.6 186.3,445.5 186.8,445.5C188.2,445.3 189.3,444.8 190.1,444.2C191.4,443.2 192.5,441.9 193.6,440.2" style="fill:rgb(128,129,132);fill-rule:nonzero;"/>
                <path d="M239.1,439.7C237.7,439.7 236.7,439.3 235.9,438.6C235.1,437.9 234.7,437 234.7,436C234.7,434.9 235.1,433.8 235.9,432.7C236.7,431.6 238,430.7 239.9,429.9C241.9,429.1 245.1,428.3 249.3,427.5L249.3,434.2C245.8,437.9 242.4,439.7 239.1,439.7M251.1,442.4C252,443.2 253.2,443.5 254.5,443.5L259.9,443.5L259.9,439.1L257.6,439.1C256.4,439.1 255.6,438.8 255.1,438.3C254.6,437.7 254.3,436.8 254.3,435.6C254.3,435.5 254.3,435.1 254.4,434.5L254.4,433.7C254.4,427.4 254.3,423.2 254,421.2C253.8,419.2 253.1,417.5 252.1,416.2C251.1,414.9 249.7,413.9 247.9,413.1C246.2,412.4 244.5,412.1 242.8,412.1C239,412.1 235.9,413 233.7,414.9C232.4,416 231.1,418.1 230,421.2L236.1,421.2C236.5,419.6 237.2,418.5 238,417.9C239.4,416.9 240.8,416.4 242.5,416.4C244.4,416.4 245.9,416.9 247.1,418C248.2,419.1 248.9,420.9 249.2,423.5C243.6,424.4 239.7,425.4 237.4,426.3C234.4,427.5 232.3,428.9 231,430.6C229.7,432.3 229.1,434.1 229.1,435.9C229.1,438 229.8,439.9 231.2,441.7C232.6,443.4 234.8,444.3 237.9,444.3C240,444.3 241.8,444 243.5,443.4C245.1,442.8 247.2,441.5 249.6,439.7C249.9,440.9 250.4,441.8 251.1,442.4" style="fill:rgb(128,129,132);fill-rule:nonzero;"/>
                <path d="M290,423.7L290,443.3L284.9,443.3L284.9,422.8C284.9,420.9 284.3,419.3 283.2,418.1C282.3,417.1 281.1,416.6 279.6,416.6C278,416.6 276.3,417.1 274.6,418.1C273.8,418.5 272.9,419.2 271.8,420.1C270.7,421 269.6,422.1 268.4,423.4L268.4,443.2L263.4,443.2L263.4,413.5L268.4,413.5L268.4,418.3C270.7,416.1 272.7,414.5 274.4,413.7C276.1,412.9 277.9,412.5 279.8,412.5C282.3,412.5 284.4,413 286,414.1C287.7,415.2 288.7,416.6 289.2,418.3C289.7,420.1 290,421.9 290,423.7" style="fill:rgb(128,129,132);fill-rule:nonzero;"/>
                <path d="M300.6,423.3C300.9,422.2 301.2,421.3 301.5,420.8C301.8,420.3 302.3,419.7 302.8,419.1C304.5,417.2 306.7,416.3 309.4,416.3C311.4,416.3 313.3,417 315.1,418.5C316.4,419.6 317.6,421.3 318.8,423.7L318.8,432.2C316.8,435 315.1,436.9 313.7,437.9C312.2,438.9 310.7,439.4 309.1,439.4C307.5,439.4 306,438.9 304.6,438C303.2,437.1 302.1,435.6 301.3,433.6C300.7,432.1 300.4,430.1 300.3,427.5C300.2,425.9 300.3,424.5 300.6,423.3M314.2,412.9C312.6,412.1 310.8,411.7 308.7,411.7C306.1,411.7 303.8,412.3 301.6,413.6C299.5,414.9 297.8,416.9 296.5,419.4C295.9,420.7 295.4,422 295.1,423.4C294.8,424.8 294.6,426.2 294.6,427.6C294.6,430.2 295,432.6 295.8,435C296.5,436.8 297.5,438.4 298.9,439.9C300.4,441.4 301.9,442.5 303.5,443.1C305.2,443.7 306.8,444.1 308.5,444.1C310.3,444.1 312.1,443.6 313.9,442.7C315.2,442 316.9,440.6 318.9,438.3L318.9,443.3L324.1,443.3L324.1,400.6L318.9,400.6L318.9,417C317.3,415.1 315.7,413.7 314.2,412.9" style="fill:rgb(128,129,132);fill-rule:nonzero;"/>
                <rect x="348.5" y="401.2" width="6" height="42.1" style="fill:rgb(128,129,132);"/>
                <path d="M389.3,423.7L389.3,443.3L384.2,443.3L384.2,422.8C384.2,420.9 383.6,419.3 382.5,418.1C381.6,417.1 380.4,416.6 378.9,416.6C377.3,416.6 375.6,417.1 373.9,418.1C373.1,418.5 372.2,419.2 371.1,420.1C370,421 368.9,422.1 367.7,423.4L367.7,443.2L362.7,443.2L362.7,413.5L367.7,413.5L367.7,418.3C370,416.1 372,414.5 373.7,413.7C375.4,412.9 377.2,412.5 379.1,412.5C381.6,412.5 383.7,413 385.3,414.1C387,415.2 388,416.6 388.5,418.3C389,420.1 389.3,421.9 389.3,423.7" style="fill:rgb(128,129,132);fill-rule:nonzero;"/>
                <path d="M422.4,423.7L422.4,443.3L417.3,443.3L417.3,422.8C417.3,420.9 416.7,419.3 415.6,418.1C414.7,417.1 413.5,416.6 412,416.6C410.4,416.6 408.7,417.1 407,418.1C406.2,418.5 405.3,419.2 404.2,420.1C403.1,421 402,422.1 400.8,423.4L400.8,443.2L395.8,443.2L395.8,413.5L400.8,413.5L400.8,418.3C403.1,416.1 405.1,414.5 406.8,413.7C408.5,412.9 410.3,412.5 412.2,412.5C414.7,412.5 416.8,413 418.4,414.1C420.1,415.2 421.1,416.6 421.6,418.3C422.1,420.1 422.4,421.9 422.4,423.7" style="fill:rgb(128,129,132);fill-rule:nonzero;"/>
                <path d="M433.2,427C433.4,424.5 433.8,422.5 434.6,420.9C435.3,419.5 436.2,418.4 437.6,417.6C439,416.8 440.5,416.4 442,416.4C443.7,416.4 445.2,417 446.6,418.1C448,419.2 448.9,420.5 449.4,422.2C450,424.3 450.4,426.5 450.4,428.7C450.4,431.2 449.9,433.6 448.8,435.8C448.1,437.3 447.1,438.4 445.8,439.1C444.5,439.8 443,440.2 441.3,440.2C439.9,440.2 438.6,439.7 437.3,438.8C436,437.9 435,436.7 434.4,435.2C433.8,433.6 433.4,431.4 433.2,428.4M437.8,412.9C436.4,413.3 435.1,413.9 434,414.8C432.5,415.9 431.2,417.3 430.3,418.9C429.4,420.5 428.7,422.1 428.4,423.9C428,426.3 427.8,428.1 427.9,429.4C428,431.1 428.2,432.5 428.4,433.5C428.8,435.2 429.5,436.8 430.3,438.2C431.3,439.8 432.4,441.1 433.8,442.1C435.2,443.1 436.6,443.8 438.1,444.1C439.6,444.4 441.2,444.6 442.8,444.6C443.5,444.6 444.7,444.3 446.5,443.8C447.6,443.5 448.7,442.8 450,441.8C451.3,440.8 452.5,439.5 453.4,437.9C454.2,436.6 454.7,434.9 455.2,432.6C455.5,431 455.6,429.5 455.6,427.9C455.6,427 455.4,425.5 455,423.6C454.7,422.3 454.3,420.9 453.5,419.5C452.8,418.2 452,417.1 450.9,416C449.9,415 448.8,414.3 447.4,413.7C445.3,412.8 443.3,412.4 441.5,412.4C440.6,412.2 439.3,412.5 437.8,412.9" style="fill:rgb(128,129,132);fill-rule:nonzero;"/>
                <path d="M473.3,437.1L483,413.3L488.8,413.3L475.9,443.2L470.5,443.2L457.5,413.3L463.4,413.3" style="fill:rgb(128,129,132);fill-rule:nonzero;"/>
                <path d="M501.3,439.7C499.9,439.7 498.9,439.3 498.1,438.6C497.3,437.9 496.9,437 496.9,436C496.9,434.9 497.3,433.8 498.1,432.7C498.9,431.6 500.2,430.7 502.1,429.9C504.1,429.1 507.3,428.3 511.5,427.5L511.5,434.2C508,437.9 504.7,439.7 501.3,439.7M513.3,442.4C514.2,443.2 515.4,443.5 516.7,443.5L522.1,443.5L522.1,439.1L519.8,439.1C518.6,439.1 517.8,438.8 517.3,438.3C516.8,437.7 516.5,436.8 516.5,435.6C516.5,435.5 516.5,435.1 516.6,434.5L516.6,433.7C516.6,427.4 516.5,423.2 516.3,421.2C516.1,419.2 515.4,417.5 514.4,416.2C513.4,414.9 512,413.9 510.2,413.1C508.5,412.4 506.8,412.1 505.1,412.1C501.3,412.1 498.2,413 496,414.9C494.7,416 493.4,418.1 492.3,421.2L498.4,421.2C498.8,419.6 499.5,418.5 500.3,417.9C501.7,416.9 503.1,416.4 504.8,416.4C506.7,416.4 508.2,416.9 509.4,418C510.5,419.1 511.2,420.9 511.5,423.5C505.9,424.4 502,425.4 499.7,426.3C496.7,427.5 494.6,428.9 493.3,430.6C492,432.3 491.4,434.1 491.4,435.9C491.4,438 492.1,439.9 493.5,441.7C494.9,443.4 497.2,444.3 500.2,444.3C502.3,444.3 504.1,444 505.8,443.4C507.4,442.8 509.5,441.5 511.9,439.7C512.1,440.9 512.6,441.8 513.3,442.4" style="fill:rgb(128,129,132);fill-rule:nonzero;"/>
                <path d="M528.4,414L528.4,403.4L533.3,403.4L533.3,414L543.3,414L543.3,418.6L533.3,418.6L533.3,434.2C533.3,435.4 533.5,436.3 533.9,436.9C534.3,437.5 534.7,437.9 535.3,438.1C536.2,438.4 537.7,438.5 540,438.5C540.6,438.5 541.4,438.5 542.3,438.4L542.3,443.3C538.2,443.3 535.9,443.3 535.3,443.2C533.5,442.9 532.1,442.5 531.1,441.7C530,441 529.3,440.1 528.9,439.1C528.6,438.4 528.4,437.3 528.4,435.6L528.4,418.4L522.8,418.4L522.8,414" style="fill:rgb(128,129,132);fill-rule:nonzero;"/>
                <path d="M548,402.4L548.8,401.5L553.3,401.5L554.2,402.4L554.2,406.6L553.2,407.5L548.8,407.5L548,406.6M548.3,413L553.7,413L553.7,443.3L548.3,443.3L548.3,413Z" style="fill:rgb(128,129,132);fill-rule:nonzero;"/>
                <path d="M565.7,427C565.9,424.5 566.3,422.5 567.1,420.9C567.8,419.5 568.7,418.4 570.1,417.6C571.5,416.8 573,416.4 574.5,416.4C576.2,416.4 577.7,417 579.1,418.1C580.5,419.2 581.4,420.5 581.9,422.2C582.5,424.3 582.9,426.5 582.9,428.7C582.9,431.2 582.4,433.6 581.3,435.8C580.6,437.3 579.6,438.4 578.3,439.1C577,439.8 575.5,440.2 573.8,440.2C572.4,440.2 571.1,439.7 569.8,438.8C568.5,437.9 567.5,436.7 566.9,435.2C566.3,433.6 565.9,431.4 565.7,428.4M570.2,412.9C568.8,413.3 567.5,413.9 566.4,414.8C564.9,415.9 563.6,417.3 562.7,418.9C561.8,420.5 561.1,422.1 560.8,423.9C560.4,426.3 560.2,428.1 560.3,429.4C560.4,431.1 560.6,432.5 560.8,433.5C561.2,435.2 561.9,436.8 562.7,438.2C563.7,439.8 564.8,441.1 566.2,442.1C567.6,443.1 569,443.8 570.5,444.1C572,444.4 573.6,444.6 575.2,444.6C575.9,444.6 577.2,444.3 578.9,443.8C580,443.5 581.1,442.8 582.4,441.8C583.7,440.8 584.9,439.5 585.8,437.9C586.6,436.6 587.1,434.9 587.6,432.6C587.9,431 588,429.5 588,427.9C588,427 587.8,425.5 587.4,423.6C587.1,422.3 586.7,420.9 585.9,419.5C585.2,418.2 584.4,417.1 583.3,416C582.3,415 581.2,414.3 579.8,413.7C577.7,412.8 575.7,412.4 573.9,412.4C573,412.2 571.7,412.5 570.2,412.9" style="fill:rgb(128,129,132);fill-rule:nonzero;"/>
                <path d="M620.4,423.7L620.4,443.3L615.3,443.3L615.3,422.8C615.3,420.9 614.7,419.3 613.6,418.1C612.7,417.1 611.5,416.6 610,416.6C608.4,416.6 606.7,417.1 605,418.1C604.2,418.5 603.3,419.2 602.2,420.1C601.1,421 600,422.1 598.8,423.4L598.8,443.2L593.8,443.2L593.8,413.5L598.8,413.5L598.8,418.3C601.1,416.1 603.1,414.5 604.8,413.7C606.5,412.9 608.3,412.5 610.2,412.5C612.7,412.5 614.8,413 616.5,414.1C618.2,415.2 619.2,416.6 619.7,418.3C620.2,420.1 620.4,421.9 620.4,423.7" style="fill:rgb(128,129,132);fill-rule:nonzero;"/>
                <path d="M258.9,334.6L329.3,334.6L338.4,381.3L407.7,381.3L371.8,196.1L298.7,196.1C305.4,202.6 305.4,207.6 300.8,215.3L179.2,381.2L245.7,381.2C240,377.9 237.1,368.1 241.7,359.7M313.5,251.6L324.8,310.7L274.4,310.8L313.5,251.6Z" style="fill:rgb(55,54,63);fill-rule:nonzero;"/>
                <path d="M486.4,195.8C498.5,205.3 496.4,213.7 495.3,223.2L461.2,380.9L527.9,380.9L566.4,195.7" style="fill:rgb(55,54,63);fill-rule:nonzero;"/>
                <path d="M100.6,195.8C112.7,205.3 110.6,213.7 109.5,223.2L75.3,380.9L142,380.9L180.5,195.7" style="fill:rgb(55,54,63);fill-rule:nonzero;"/>
            </g>
        </g>
        <g id="Layer_1_1_">
        </g>
        <g id="Layer_1-2">
        </g>
    </g>
</svg>
