<?xml version="1.0" encoding="UTF-8" standalone="no"?>
<!DOCTYPE svg PUBLIC "-//W3C//DTD SVG 1.1//EN" "http://www.w3.org/Graphics/SVG/1.1/DTD/svg11.dtd">
<svg width="100%" height="100%" viewBox="0 0 236 110" version="1.1" xmlns="http://www.w3.org/2000/svg" xmlns:xlink="http://www.w3.org/1999/xlink" xml:space="preserve" xmlns:serif="http://www.serif.com/" style="fill-rule:evenodd;clip-rule:evenodd;stroke-linejoin:round;stroke-miterlimit:2;">
    <g transform="matrix(1,0,0,1,-1310,-2.86885)">
        <g id="Artboard4" transform="matrix(1.10779,0,0,0.927204,-141.46,2.86885)">
            <rect x="1310.24" y="0" width="213.037" height="118.636" style="fill:none;"/>
            <g transform="matrix(0.144285,0,0,0.172386,1343.38,16.1643)">
                <g>
                    <path d="M625.6,200.1L585.6,200.1C572.3,200.1 559,200.2 545.6,200.3C542.8,200.3 539.9,200.3 537.1,200C531.1,199.3 527.2,195.6 524.3,190.6C522.9,188.2 522.2,185.6 522.2,182.7C522.3,175 522.2,167.4 522.2,159.7C522.2,157.5 523.2,156.9 525.3,156.9C583.1,157 640.9,156.9 698.8,157C707.2,157 713.3,162.3 716.2,169.4C717,171.3 717,173.6 717.1,175.8C717.3,182.5 717.3,189.3 717.4,196C717.4,199.7 716.7,200.4 713.1,200.3C683.9,199.7 654.8,200.5 625.6,200.1Z" style="fill:rgb(55,54,63);fill-rule:nonzero;"/>
                    <path d="M99.6,95C105.9,88.7 113.3,84.3 121.6,81.2C127.9,78.8 134.5,78 141.1,78L698.2,78C704.1,78 709,79.7 713.1,84.2C716.4,87.9 717.8,92.2 718,96.9C718.2,103.7 718.1,110.6 718.1,117.4C718.1,120.7 717.2,121.5 713.9,121.5L369.5,121.5C368.3,121.5 367.2,121.7 366.1,121C366.3,119.9 367.3,120 368.1,119.9C369.1,119.8 370.1,119.9 371.1,119.9L708.5,119.9C710.7,119.9 712.8,120.4 714.9,120C716.7,119.5 716.9,117.9 716.8,116.6C716,108.4 717.1,100.1 715.8,92C715,87.1 708.6,80.1 702,79.9L698,79.9C511.9,79.9 325.7,79.9 139.6,79.8C129.5,79.8 120.7,82.8 112.1,87.6C108.8,89.4 105.8,91.6 103.2,94.4C102.5,95.1 101.7,95.8 100.8,96.2C100.5,96.3 100.2,96.4 99.9,96.4C99.3,95.8 99.3,95.4 99.6,95Z" style="fill:rgb(55,54,63);fill-rule:nonzero;"/>
                    <path d="M775.5,276C771.5,279.9 766.5,280.9 761.3,280.9L540.1,280.9C531.7,280.9 524.5,275.5 521.9,267.5C521.5,266.4 521.5,265.2 521.5,264.1L521.5,240.1C521.5,236.1 521.7,235.9 525.8,235.9L722.5,235.9C725.4,235.9 728.3,235.5 731.1,234.8C735.6,233.7 737.6,231 738,226.3C738.5,220.4 738.4,214.5 738.4,208.6L738.4,95.6C738.4,90.8 740.2,86.6 743.5,83.2C747.1,79.5 751.7,77.8 757,77.8L879,77.8C893,77.8 905.2,82.4 915.4,92C919,95.3 922.4,98.8 924.5,103.3C924.2,103.6 923.9,103.6 923.5,103.5C923.3,103.4 923.1,103.2 922.9,103C915.1,91.3 904.3,83.7 890.6,80.3C888.3,79.7 886.1,79.3 883.7,79.5C880.2,79.4 876.7,79.7 873.2,79.3C872.1,78.9 870.9,79 869.7,79L761,79C759.9,79 758.8,78.9 757.8,79.2C756.8,79.5 755.8,79.4 754.7,79.5C753.7,79.5 752.6,79.3 751.7,80C750.6,80.7 749.5,81.1 748.3,81.6C743.2,84.4 740.8,88.8 740,94.5C739.4,98.9 739.6,103.3 739.6,107.7L739.6,222.9C739.6,224.6 739.5,226.4 739.3,228.1C738.8,232.8 735.8,235.2 731.6,236.1C726.6,237.3 721.5,238 716.3,237.1C715.3,236.9 714.3,237 713.3,237L526,237C524.1,237 523.3,238 523.3,239.8C523.3,248.4 523.2,257 523.4,265.5C523.5,268.5 525.4,270.7 527.1,273C530.5,276.9 534.7,279.1 539.9,279.1L715.6,279.1C731.1,279.1 746.6,279 762.1,279.1C766.1,279.1 769.6,278.1 773,276C773.7,275.6 774.4,275 775.3,275.1C775.6,275.4 775.7,275.6 775.5,276Z" style="fill:rgb(55,54,63);fill-rule:nonzero;"/>
                    <path d="M715.1,120.5C712.9,121.2 710.7,120.5 708.5,120.5C637.5,120.6 566.6,120.5 495.6,120.5L369.2,120.5C368.2,120.5 367,120.1 366.1,120.9L152.1,120.9C147.6,120.9 143.3,121.4 139.5,124C136.1,126.2 134.1,129.3 132.7,132.9C132.2,133.2 131.8,133.2 131.5,132.6C132,128.4 134.4,125.4 137.6,123C141.8,120 146.7,119.5 151.6,119.1C152.8,119 153.9,119.1 155.1,119.1L707.8,119.1C709.5,119.1 711.3,119 713,119.3C713.8,119.5 714.6,119.8 715.1,120.5Z" style="fill:rgb(55,54,63);fill-rule:nonzero;"/>
                    <path d="M89.2,109C90.6,107.3 91.7,105.5 92.7,103.5C93.2,103 93.6,102.4 94.4,103.2C94.5,103.5 94.5,103.8 94.4,104.1C93.3,106.9 91.4,109.3 90.1,112C79.7,134.6 81.4,156.2 96.1,176.1C105.5,188.8 118.7,196.3 134.6,198.6C135.8,198.8 137.1,198.7 138.3,198.7L206.8,198.7C214.5,198.7 221.2,200.9 226,207.4C234,218.4 228,234.6 214.7,237.5C212.7,237.9 210.6,238.2 208.5,238.2L88.3,238.2C86.9,238.2 85.5,238.5 84.2,237.7C84,237.5 83.9,237.2 84,236.9C84.9,235.5 86.3,236.1 87.4,236.1L177.1,236.1C185.8,236.1 194.4,236 203.1,236.1C207.1,236.2 211.1,236.6 215,235.6C223.6,233.4 228.6,224.9 227.6,216.8C226.7,209.9 222.9,205 216.5,202.2C213.4,200.8 210,200.8 206.7,200.9C201.6,201.1 196.6,200.8 191.5,200.8C177.8,200.7 164,200.8 150.3,200.8C144.2,200.8 138.1,201 132.1,200.1C122.7,198.7 114,195.1 106.4,189.4C103.5,187.2 100.9,184.6 98.3,182C90,173.2 85.2,162.6 82.7,150.9C81.6,145.9 82.3,140.6 82.2,135.5C82,129.6 83.4,124 85.4,118.5C85.7,117.5 86.1,116.5 86.6,115.6C87,114.3 87.4,112.9 88.2,111.7C88.5,110.7 88.6,109.8 89.2,109Z" style="fill:rgb(55,54,63);fill-rule:nonzero;"/>
                    <path d="M406,280.5C377.6,280.5 349.2,280.3 320.8,280.6C310.6,280.7 302.2,273.8 301.6,262.3C301.2,254.5 301.5,246.6 301.5,238.8C301.5,236.4 302.9,235.9 304.9,235.9L477.6,235.9C484.8,235.9 490.8,238.5 494.9,244.5C496.8,247.3 498,250.4 498,253.8C498.1,261.5 498,269.3 498.1,277C498.1,279.3 497.4,280.5 495,280.4C493.4,280.3 491.9,280.4 490.3,280.4C462.2,280.5 434.1,280.5 406,280.5Z" style="fill:rgb(55,54,63);fill-rule:nonzero;"/>
                    <path d="M98.1,181.3C101.9,184.9 105.7,188.5 110.2,191.3C118.7,196.5 127.8,199.7 137.9,200C161,200.7 184.2,200.1 207.3,200.3C211.3,200.3 215.3,200.6 218.8,202.8C225.2,206.7 228.4,212.6 227.9,219.9C227.4,227.3 223.4,232.6 216.4,235.4C214.3,236.2 212,236.4 209.8,236.4C169,236.4 128.2,236.3 87.4,236.3C86.3,236.3 85.1,235.9 84,236.7C83.3,237.7 82.8,238.9 82.8,240.2C82.8,247.9 82.6,255.6 82.9,263.2C83,263.5 83.1,263.7 83.1,264C83.1,266.1 83.3,268.2 84.3,270.1C84.4,270.5 84.3,270.9 84,271.2C81.8,269.4 81.6,266.7 81.5,264.2C81.4,255.7 81.5,247.2 81.4,238.7C81.4,236.9 82.1,235.9 83.8,235.5C84.8,235.2 85.8,235.2 86.8,235.2C125.3,235.2 163.8,235.2 202.3,235.3C206.5,235.3 210.7,235.8 214.9,234.8C222.4,232.9 228.2,223.9 226.9,216.3C225.3,207 217.9,201.3 209.5,201.2C185.6,200.7 161.8,201 137.9,200.8C127.9,200.7 118.7,197.5 110.1,192.5C105.4,189.7 101.5,186 97.9,181.9C97.8,181.8 97.9,181.5 98.1,181.3Z" style="fill:rgb(55,54,63);fill-rule:nonzero;"/>
                    <path d="M392.8,156.8C421.2,156.8 449.6,157.1 478,156.7C489.4,156.5 498.2,165.9 498,176.7C497.9,183.4 498,190 498,196.7C498,200.3 496.7,201.3 493.2,200.8C492.3,200.7 491.4,200.6 490.5,200.6L323.5,200.6C321.1,200.6 318.7,200.8 316.3,200.2C308.8,198.3 304.2,193.7 302.5,186.1C301.2,180.4 301.9,174.7 301.7,168.9C301.6,166.1 301.6,163.2 301.7,160.4C301.8,157.3 302.3,156.8 305.4,156.8L392.8,156.8Z" style="fill:rgb(55,54,63);fill-rule:nonzero;"/>
                    <path d="M775.5,276L775.5,275.4C775.3,274.5 775.9,274.1 776.3,273.5C778.2,271 779.7,268.3 780.2,265.2C780.3,263.8 780.3,262.4 780.3,261L780.3,137.7C780.3,134.1 781,130.6 781.9,127.1C782.2,126 782.8,125.1 783.5,124.3C783.7,124.1 783.8,123.8 784,123.6C785.4,121.9 787.3,121.3 789.3,120.6C789.6,120.5 789.9,120.5 790.2,120.4C816.4,120.3 842.6,120.4 868.8,120.4C869.8,120.4 870.8,120.4 871.8,120.5C872.1,120.5 872.3,120.6 872.6,120.7C873.7,121.6 875.7,121.2 876.1,123.1C869.1,120.7 861.8,121.7 854.6,121.7C833.9,121.6 813.3,121.7 792.6,121.7C787.7,121.7 784.8,124.1 783.7,126.9C782.5,130 782,133.2 782,136.6C782.1,160.4 782.1,184.2 782,208.1C782,213.5 781.5,218.9 781.6,224.3C781.9,236.2 782.1,248.1 781.9,260C781.8,263.7 781.9,267.5 779.9,270.9C778.7,272.7 777.5,274.6 775.5,276Z" style="fill:rgb(55,54,63);fill-rule:nonzero;"/>
                    <path d="M131.6,133L132.6,133C132.4,136.1 131.6,139.2 132.3,142.4C134.3,150.8 141.1,156.5 149.9,156.5C171.5,156.6 193,156.6 214.6,156.5C224.3,156.5 233.8,157.6 242.7,161.9C250.4,165.6 257.2,170.5 263,176.9C268.7,183.3 272.6,190.6 275.6,198.5C276,199.2 275.8,200 275.8,200.7C274.1,201.3 274.4,199.7 274.1,199C272.4,194.3 270.3,189.8 267.6,185.6C267.5,185.4 267.3,185.2 267.2,185C266.4,183.3 265.2,181.9 264.1,180.5C264,180.3 263.8,180.1 263.7,180C263,178.8 261.9,177.8 260.8,177C259.3,175.8 257.9,174.5 256.8,173C256.3,172.2 255.6,171.5 254.8,171C254.6,170.9 254.4,170.8 254.3,170.6C253.8,170.2 253.3,169.8 252.8,169.5C252.6,169.4 252.4,169.3 252.3,169.1C251.8,168.6 251.2,168.2 250.4,167.9C249.5,167.5 248.6,167.1 247.9,166.4C247.4,165.7 246.7,165.3 245.9,165C245.7,164.9 245.5,164.8 245.4,164.7C244.9,164.4 244.3,164.1 243.7,163.9C243.5,163.8 243.3,163.7 243.1,163.6C241.7,162.9 240.3,162 238.6,162C237.9,161.9 237.3,161.6 236.7,161.2C231.6,159.3 226.3,158.2 220.9,158.2L154.9,158.2C153.3,158.2 151.7,158.3 150,158.1C148.6,157.6 147.1,157.6 145.7,157.8C138.2,156.6 131.5,149.6 130.9,142.6L130.9,136C130.7,134.9 130.4,133.8 131.6,133Z" style="fill:rgb(55,54,63);fill-rule:nonzero;"/>
                    <path d="M931.4,244.5C932.6,246.1 933.3,248 934,249.9C934.3,250.3 934.4,250.8 934.4,251.3C934.9,252.9 934.9,254.6 934.9,256.2L934.9,276.4C934.9,279.7 934.2,280.4 931,280.4C911.7,280.4 892.4,280.5 873.1,280.4C868.5,280.4 864,280.1 859.4,280.4C853.3,280.8 847.3,280 841.4,278.5C833.8,276.9 827.1,273.4 820.9,268.8C817.7,266.4 814.5,264 812.2,260.7C811,258.9 809.4,257.4 808.3,255.6C807.9,254.9 807,254.1 808.5,253.5C809.7,253.9 810.3,255 811,255.9C820.6,268.2 833.1,275.5 848.5,278C852.7,278.7 856.7,278.4 860.9,278.4C874.1,278.3 887.4,278.5 900.6,278.4C910.7,278.3 920.7,279.5 930.7,278.5C931.9,278.4 932.6,278 932.8,276.9C932.9,276.5 933,276.1 933,275.7C933.2,268.8 933.4,261.9 932.9,255C932.6,251.2 931.5,247.7 929.2,244.6C929.1,244.3 929.1,244.1 929.2,243.8C930.4,242.9 930.7,244.2 931.4,244.5Z" style="fill:rgb(55,54,63);fill-rule:nonzero;"/>
                    <path d="M804,249.4C798.4,238.6 795.7,227.1 796.6,215C797.2,206.5 799.5,198.3 803.4,190.5C807.6,182.1 813.4,175.2 820.8,169.6C828.3,163.8 837,160.1 846.4,158.4C853.5,157.1 860.7,156.8 868,156.8C872.8,156.8 876.8,154.8 880.3,151.5C881.1,150.8 881.9,150.1 882.7,149.3C883,149.6 883.1,150 883.1,150.4C882.4,152.2 880.9,153.3 879.4,154.5C874.5,158.1 868.8,158.2 863.1,158.5C858.9,158.7 854.7,158.1 850.5,159.2C850,159.3 849.5,159.4 848.9,159.4C847.9,159.4 846.9,159.4 846.1,160.1C844.5,160.5 842.9,160.7 841.4,161.2C839.7,161.4 838.1,161.6 836.6,162.5C836.2,162.7 835.8,163 835.4,163.1C834.7,163.3 833.9,163.5 833.2,163.8C833,163.9 832.8,164 832.6,164C832,164.2 831.4,164.4 830.9,164.8C830.7,164.9 830.5,165 830.3,165.1C829.7,165.3 829.2,165.6 828.7,166C827.9,166.6 827.1,167.2 826.2,167.6C824.6,168.1 823.3,169.1 822.1,170.2C821.9,170.3 821.8,170.5 821.6,170.6C820.5,171.2 819.8,172.1 818.9,172.9C818.5,173.3 818.1,173.7 817.6,174C816.5,174.7 815.7,175.5 815,176.5C814.9,176.7 814.7,176.9 814.6,177C813.3,178.5 811.7,179.8 810.6,181.5C810.5,181.7 810.3,181.9 810.2,182C808.8,183.6 807.7,185.4 806.7,187.3C806.6,187.5 806.5,187.7 806.4,187.9C805.8,188.7 805.4,189.5 805.1,190.5C805,190.7 804.9,190.9 804.8,191.1C804,192.2 803.3,193.3 803.1,194.7C802.9,195.1 802.7,195.6 802.5,196C801.9,197.2 801.3,198.4 801.2,199.7C799,205.4 798.1,211.5 798,217.5C797.9,222.7 798.3,227.9 799.7,233C801.1,238.1 802.7,243 805.1,247.7C805.4,248.2 805.5,248.8 805.4,249.4C804.7,250.5 804.4,249.8 804,249.4Z" style="fill:rgb(55,54,63);fill-rule:nonzero;"/>
                    <path d="M84.1,271.4L84.1,270.5C85.2,270.1 85.5,271.2 85.9,271.8C87,273.3 88.2,274.6 89.7,275.6C90,275.8 90.2,276 90.5,276.2C91.5,277.3 92.7,277.8 94.1,278.1C94.9,278.3 95.7,278.4 96.5,278.7C97.8,279.1 99.1,279.2 100.4,279.2L219.5,279.2C223.4,279.2 227.3,278.6 231.1,277.7C231.4,277.6 231.6,277.5 231.9,277.5C235.9,276.9 239.7,275.5 243.3,273.6C250.7,270 256.6,264.6 262.2,258.8C263,258 263.6,256.7 265.2,256.9C265.4,257.3 265.4,257.6 265.1,257.9C260.1,263.6 254.6,268.8 248.1,272.8C241.5,276.8 234.4,279 226.8,280C221.2,280.8 215.7,280.5 210.1,280.5C173.8,280.5 137.5,280.4 101.2,280.6C93.6,280.6 88.1,277.7 84.1,271.4Z" style="fill:rgb(55,54,63);fill-rule:nonzero;"/>
                    <path d="M812.5,260.4C819.1,267.6 826.9,273 836,276.4C837.5,277 839,277.4 840.5,277.9C847.8,279.9 855.1,280.6 862.7,280C866.2,279.7 869.7,280.1 873.2,280.2C892.5,280.3 911.9,280.2 931.2,280.2C934.2,280.2 934.8,279.6 934.8,276.5L934.8,254.8C934.8,253.4 934.4,252.2 934,250.9C934,250.6 934,250.2 934.1,249.9C935.6,250.6 935.5,252.1 935.5,253.3C935.6,261.6 935.5,269.9 935.6,278.3C935.6,280.8 934,281 932,281L854.6,281C845,280.9 836.1,278.4 827.8,273.9C819.1,269.2 811.9,262.8 806.7,254.4C806.4,254 806.3,253.5 806.1,253.1C806.2,253 806.3,253 806.4,252.9C806.6,252.9 806.9,253 807.1,253.1C808.6,255.6 810.4,258.1 812.5,260.4Z" style="fill:rgb(55,54,63);fill-rule:nonzero;"/>
                    <path d="M923.5,103.5L924.5,103.5C930.3,112.3 933.5,122 934.6,132.5C935.4,140.4 935.1,148.3 933,155.9C931.1,162.7 927.9,169 924,174.9C923.5,175.8 922.6,176.5 922,177.4C920.8,179.5 919,181.1 917.5,182.9C915.4,184.4 914,186.6 911.7,187.9C910.8,188.4 910.2,189.6 908.9,188.9C908.7,188.4 908.9,187.9 909.2,187.4C913.8,184 917.8,180.2 921.3,175.6C927.1,167.8 931.2,159.3 932.6,149.6C934.5,136 932.9,122.9 926.9,110.5C926.1,108.8 924.9,107.4 924,105.8C923.6,105.2 922.8,104.4 923.5,103.5Z" style="fill:rgb(55,54,63);fill-rule:nonzero;"/>
                    <path d="M923,237.9C924.8,238.2 926,239.6 927.4,240.5C928.4,240.9 929,241.6 929.4,242.5C929.7,242.8 929.7,243.1 929.5,243.4L929.3,243.5C928.3,243.7 927.6,242.9 926.9,242.4C923,239.3 918.5,238.2 913.6,238.2L863.9,238.2C852.2,238.2 843.4,229.1 844.2,217.5C844.5,212.7 845.7,207.9 850.2,204.9C850.5,204.8 850.7,204.9 851,205.1C851.4,206.6 849.8,207 849.4,208C844.3,215.9 845.3,224.6 850.8,230.6C853.3,233.4 856.5,235 860.1,236C862.6,236.7 865.2,236.5 867.8,236.5L918.2,236.5C918.5,236.5 918.8,236.5 919.1,236.6C920.4,236.9 921.8,237.4 923,237.9Z" style="fill:rgb(55,54,63);fill-rule:nonzero;"/>
                    <path d="M909,189C911.4,188 913.2,186.3 915.1,184.6C915.8,184 916.3,183 917.4,182.9C913.7,187.6 908.8,190.6 903.7,193.4C897.1,196.9 890.1,199.1 882.8,200.2C882.3,200.3 881.8,200.4 881.3,200.4C875.2,200.6 869,200.8 862.9,200.9C862.2,201.3 861.5,201.2 860.8,201C861.3,199.1 863,199.5 864.2,199.3C866.3,199 868.5,199.2 870.7,199.2C883.4,199.3 895.4,196.7 906.3,189.8C907.3,189.4 908,188.8 909,189Z" style="fill:rgb(55,54,63);fill-rule:nonzero;"/>
                    <path d="M859.4,236C852.5,234.7 847.2,229 846,221.4C845.2,216.5 846,211.9 849.5,208C849.9,209.6 848.4,210.5 847.9,211.8C843.4,223.3 851.1,234.5 861.7,235.7C861.8,235.7 862,235.9 862.1,236C861.2,236.4 860.3,236.3 859.4,236Z" style="fill:rgb(55,54,63);fill-rule:nonzero;"/>
                    <path d="M859.4,236C860.3,236 861.1,236 862,235.9L862.5,235.9C863.4,236.4 864.3,236.2 865.2,236.2C882.3,236.2 899.4,236.2 916.5,236.3C917.3,236.3 918.5,235.5 919,237L864.8,237C862.9,236.9 861.1,236.7 859.4,236Z" style="fill:rgb(55,54,63);fill-rule:nonzero;"/>
                    <path d="M919,236.9C918.2,236 917.1,236.4 916.2,236.4L865.4,236.4C864.4,236.4 863.4,236.8 862.6,235.9L917.1,235.9C918.7,235.9 920.2,236.1 921.6,236.9C920.9,237.3 920.2,237.2 919.5,237L919.3,237L919,236.9Z" style="fill:rgb(55,54,63);fill-rule:nonzero;"/>
                    <path d="M882.6,150.5C882.6,150.1 882.6,149.8 882.5,149.4C888.7,140.6 886.1,127.6 876,122.9C875.1,121.7 873.4,122.1 872.5,120.9C873.6,120 874.7,120.7 875.8,121.1C882.9,124.2 886.6,129.7 887.2,137.3C887.5,141.4 887,145.3 884.6,148.7C884,149.5 883.7,150.5 882.6,150.5Z" style="fill:rgb(55,54,63);fill-rule:nonzero;"/>
                    <path d="M265,257.9L265,256.9C264.7,256.2 265.2,255.6 265.5,255.1C268.4,251 270.7,246.6 273,242.2C274.6,239.8 275,237 275.9,234.4C275.9,234.2 276,234 276.1,233.7C276.5,232.9 276.2,231.8 277.2,231.3C277.3,231.3 277.4,231.4 277.5,231.4C277.5,235.9 275.6,239.9 273.8,243.9C271.7,249 269,253.9 265,257.9Z" style="fill:rgb(55,54,63);fill-rule:nonzero;"/>
                    <path d="M275.6,200.9L275.6,198.4C278,202.9 278.5,207.9 278.9,212.8C279.3,219 280.1,225.4 277.7,231.5L277.6,231.4C276.3,229.7 277.3,228 277.6,226.4C278.4,220.8 278,215.3 277.3,209.8C277.1,208.2 277.1,206.6 276.6,205.1C276.6,204.9 276.5,204.6 276.4,204.4C276.2,203.4 276,202.4 275.7,201.4C275.6,201.2 275.6,201.1 275.6,200.9Z" style="fill:rgb(55,54,63);fill-rule:nonzero;"/>
                    <path d="M860.9,200.9C861.6,200.9 862.3,200.9 863,201C859.8,202 856.4,202.7 853.5,204.5C853.3,204.3 853.2,204.1 853.2,203.8C854.9,201.5 858.5,200.2 860.9,200.9Z" style="fill:rgb(55,54,63);fill-rule:nonzero;"/>
                    <path d="M917.5,182.9C918.6,180.7 920.4,179.1 922,177.4C921.2,179.9 919.4,181.5 917.5,182.9Z" style="fill:rgb(55,54,63);fill-rule:nonzero;"/>
                    <path d="M853.5,203.9L853.5,204.5C852.2,205.7 850.8,206.8 849.5,208C849.5,206.8 850.6,206.4 851,205.5C851.6,204.6 851.9,203.3 853.5,203.9Z" style="fill:rgb(55,54,63);fill-rule:nonzero;"/>
                    <path d="M804,249.4C804.3,249.6 804.6,249.7 805,249.9C805.5,250.1 805.7,250.5 805.9,250.9C806.2,251.5 806.6,252.2 806,252.9L805.9,253C804.8,252.1 804.3,250.8 804,249.4Z" style="fill:rgb(55,54,63);fill-rule:nonzero;"/>
                    <path d="M891.4,171.5C891.6,170.3 892.5,169.6 893.4,169C893.4,170.3 892.4,170.9 891.4,171.5Z" style="fill:rgb(55,54,63);fill-rule:nonzero;"/>
                    <path d="M899.1,237.4C899.1,237.1 899,236.8 899,236.5C899.9,236.9 900.7,237.5 901,238.5C900.1,238.5 899.7,237.8 899.1,237.4Z" style="fill:rgb(55,54,63);fill-rule:nonzero;"/>
                    <path d="M94,102.9C95.4,100.3 98.2,98.7 99.6,96C104,92.4 108,88.4 113.1,85.8C120.9,81.9 128.8,78.8 137.8,78.9C188.9,79 239.9,78.9 291,78.9L696.6,78.9C700.4,78.9 704.2,78.6 707.7,80.8C713.3,84.3 716.7,89.1 716.9,95.8C717.1,102.6 717.2,109.4 717.2,116.3C717.2,117.9 717.8,120.2 714.9,120.5C714.3,120.4 713.7,120.6 713.3,120C715.2,118.8 715.6,117 715.5,114.8C715.3,107.8 716,100.8 715.1,93.8C714.1,86.4 707.1,80.3 699.7,80.2L138.5,80.2C125,80.2 113.4,85.5 103.6,94.6C101,97 98.6,99.5 96.2,102.1C95.6,102.8 95,103.5 93.9,103.4C94.1,103.3 94.1,103.1 94,102.9Z" style="fill:rgb(55,54,63);fill-rule:nonzero;"/>
                    <path d="M882.6,150.5C890.2,141.9 887.2,125.1 874,121.2C873.5,121.1 873,121.1 872.5,121C871.5,120.4 870.4,120.9 869.3,120.7C868.7,120.7 868.1,120.7 867.6,120.5C856.6,120.3 845.6,120.5 834.5,120.4L794.9,120.4C792.9,120.4 790.9,120.5 789,120.9C787.3,121.4 785.5,121.7 784.5,123.4C781.3,126.9 780.8,131.3 780.8,135.7C780.7,160.5 780.8,185.2 780.8,210L780.8,212.7C780.5,213.8 780.6,214.9 780.6,215.9C780.6,231.3 780.5,246.7 780.6,262.1C780.7,272 772.7,279 763.4,279.5L540,279.5C534.7,279.5 530.4,277.3 526.9,273.4C526.4,272.6 525.9,271.9 525.4,271.1C523.9,268.8 522.9,266.3 522.9,263.4C523,255.5 522.9,247.6 522.9,239.7C522.9,237.2 523.3,236.8 525.8,236.7L714.3,236.7C718,236.7 721.8,236.9 725.5,236.7C728,236.5 730.5,236.1 732.8,235.4C737.4,233.9 739.4,230.7 739.6,225.2L739.6,99.7C739.6,97.6 739.7,95.5 740,93.5C740.8,87.7 743.9,83.4 749,80.5C749.9,80.1 750.7,79.6 751.6,79.2C752.7,78.6 753.8,79.1 754.9,78.9C797.8,78.4 840.7,78.5 883.6,78.9C888.9,78.8 893.9,80.4 898.7,82.4C906,85.4 912.4,89.7 917.7,95.5C919.9,97.9 921.9,100.4 923.5,103.2L923.6,103.2C925.1,106.8 927.7,109.8 929.1,113.4C931.1,118.6 932.6,123.9 933.4,129.4C934.8,139.2 934.5,149 931.2,158.4C927,170.3 920.2,180.4 909.6,187.7C900.4,194.6 890.1,198.1 878.7,198.9C873.9,199.2 869.1,199.2 864.3,199.5C859.4,199.8 854.9,201.4 851.1,204.6C842.5,211.9 843.5,227.1 852.7,233.5C856.3,236 860.2,237.2 864.6,237.2C880.8,237.1 897.1,237.2 913.3,237.1C919.6,237.1 925.1,238.7 929.6,243.2C934.2,248.9 934.3,255.7 934.1,262.6C934,267.5 934.6,272.4 933.7,277.3C933.5,278.6 932.7,279.4 931.8,279.1C929.5,278.4 927.4,279.2 925.2,279.2C920.5,279.3 915.9,278.8 911.3,278.7C898.5,278.6 885.7,278.6 873,278.7C867.8,278.7 862.5,278.8 857.3,279C847.4,279.3 838,276.6 829.2,271.8C823.9,268.9 819.1,265.4 815,261.1C813.1,259.1 811.5,256.9 809.8,254.7C809.3,254.1 809,253.4 808.2,253.2C808.1,253.1 808,253.1 807.8,253C804.9,248.9 802.8,244.3 801.2,239.7C798.8,233 797.5,226 797.7,218.8C797.8,212.2 798.7,205.7 801,199.4C800.9,198 802,196.9 802.2,195.6C802.4,195.3 802.5,194.9 802.7,194.6C803.2,193.2 804.1,191.9 804.8,190.6C805.4,189.6 805.6,188.5 806.3,187.6C807.6,185.6 808.9,183.6 810.3,181.6C811.7,179.8 813.5,178.5 814.8,176.6C815.6,175.4 816.7,174.5 817.8,173.5C818.1,173.2 818.5,172.9 818.8,172.5C820,171.9 820.7,170.7 821.8,170C823.3,169 824.8,168 826.3,167C827.1,166.5 827.9,165.9 828.7,165.4C829.4,165 830.1,164.9 830.8,164.5C831.4,164 832.2,163.9 832.8,163.5C833.6,163.1 834.5,163 835.3,162.5C835.6,162.3 835.9,162.1 836.2,161.9C837.9,161.3 839.5,160.8 841.3,160.5C842.8,159.7 844.5,159.3 846.2,159.4C847,158.7 847.9,158.6 848.8,158.7C849.8,158.8 850.7,158.5 851.6,158.2C857.5,157.2 863.5,158 869.5,157.3C873.4,156.9 876.7,155.7 879.7,153.4C880.5,152.7 881.5,151.6 882.6,150.5Z" style="fill:rgb(55,54,63);fill-rule:nonzero;"/>
                    <path d="M748.9,80.8C746.5,83.1 743.5,84.9 742,88.2C740.7,91.1 739.9,94 739.9,97.1L739.9,223.3C739.9,225.9 739.5,228.5 738.8,230.9C737.7,234.4 734.6,235.5 731.6,236.4C728.3,237.4 724.8,237.5 721.3,237.5C656.3,237.4 591.4,237.5 526.4,237.4C523,237.4 523,237.4 523,240.7C523,246.3 523.2,251.9 523,257.4C522.8,263.2 523.1,268.7 527,273.4C526.8,273.7 526.6,273.7 526.4,273.4C523.8,270.5 522.3,267.3 522.4,263.3C522.5,255.7 522.4,248.1 522.4,240.6C522.4,236.8 522.8,236.4 526.5,236.4L621.2,236.4C652.2,236.4 683.2,236.3 714.2,236.5C719.5,236.5 724.9,236.9 730.1,235.8C737.2,234.2 738.4,231.8 739,225.7C739.2,223.3 739.1,220.9 739.1,218.5L739.1,99.3C739.1,93.5 740,88 744.4,83.7C745.7,82.4 747,81.2 748.9,80.8Z" style="fill:rgb(55,54,63);fill-rule:nonzero;"/>
                    <path d="M526.5,273.5L527.1,273.5C530.8,277.5 535.3,279.5 540.8,279.5L710.7,279.5C727.9,279.5 745.2,279.6 762.4,279.4C768.9,279.3 774.4,276.9 777.8,271C779.2,268.6 780.1,266.1 780.1,263.2C780,247.4 780.1,231.6 780.1,215.7C780.1,214.7 779.8,213.7 780.5,212.8C780.9,213.3 780.8,213.9 780.8,214.5L780.8,264.5C780.8,265 780.9,265.5 780.6,266C780.2,269.8 777.9,272.6 775.6,275.4C770.7,279.2 765.1,280.1 759,280.1C686.2,280 613.4,280 540.7,280.1C535.6,280.1 531.5,278.3 527.8,275.2C527,274.6 526.6,274.2 526.5,273.5Z" style="fill:rgb(55,54,63);fill-rule:nonzero;"/>
                    <path d="M884.5,79.5L754.5,79.5C754.3,79.4 754.3,79.3 754.3,79.2C754.4,79.1 754.4,79 754.5,79C755.5,79 756.4,79 757.4,78.9C758.2,78.5 759,78.7 759.9,78.7L871.2,78.7C872,78.7 872.9,78.5 873.7,78.9C877.3,78.9 881,78.9 884.6,79C884.8,79.1 884.8,79.2 884.8,79.3C884.6,79.4 884.6,79.5 884.5,79.5Z" style="fill:rgb(55,54,63);fill-rule:nonzero;"/>
                    <path d="M873.6,78.9L757.4,78.9C758.2,78.3 759.2,78.5 760.1,78.5L870.7,78.5C871.7,78.6 872.7,78.3 873.6,78.9Z" style="fill:rgb(55,54,63);fill-rule:nonzero;"/>
                    <path d="M884.5,79.5L884.5,79C891.1,79 897,81.4 902.7,84.2C910.9,88.2 917.5,94.2 922.7,101.7C923.1,102.2 923.5,102.8 923.4,103.5C920.3,100 917.8,96.1 914.3,93C905.7,85.5 896,80.6 884.5,79.5Z" style="fill:rgb(55,54,63);fill-rule:nonzero;"/>
                    <path d="M754.5,79L754.5,79.5L751.5,79.5C752.4,78.6 753.5,79.1 754.5,79Z" style="fill:rgb(55,54,63);fill-rule:nonzero;"/>
                    <path d="M94.1,103.5C97.3,100.2 100.5,96.7 103.8,93.5C110.1,87.6 117.6,83.9 125.8,81.3C131.4,79.5 137,79.4 142.8,79.4C328.3,79.4 513.9,79.4 699.4,79.3C707,79.3 713.3,85.1 715.6,90.8C716.3,92.5 716.4,94.5 716.4,96.4C716.5,103.1 716.4,109.9 716.5,116.6C716.5,118.8 715.8,120 713.5,119.8L153.7,119.8C150.2,119.8 146.7,120.2 143.4,121C137.2,122.6 133.6,126.9 131.7,132.8C131.7,133.6 131,134.4 131.6,135.3C131.2,137.8 131.2,140.3 131.6,142.8C132.2,148.2 135.5,151.7 139.8,154.5C141.6,155.7 143.7,156.3 145.6,157.2C146.2,156.9 146.7,157 147.3,157.1C149.8,157.6 152.4,157.5 154.9,157.5L220.9,157.5C226.7,157.5 232.2,158.8 237.6,160.8C238,161.4 238.6,161.2 239.1,161.3C240.6,161.9 242,162.8 243.6,163.3C244.1,163.9 244.9,164 245.6,164.3C246.3,165 247.3,165.2 248.1,165.8C248.9,166.3 249.8,166.8 250.6,167.3C251.4,167.7 251.9,168.3 252.6,168.7C253.3,169.2 253.9,169.8 254.6,170.2C255.5,170.8 256.2,171.6 257.1,172.2C258.4,173.5 259.8,174.9 261.1,176.2C262,177.5 263.3,178.4 264.1,179.7C265.2,181.4 266.6,182.9 267.6,184.7C271.3,190.4 274.1,196.5 275.8,203C278.6,213 278.6,223.2 276.1,233.3C274.1,240.9 270.6,247.9 266.1,254.3C263.1,258.5 259.2,261.9 255.4,265.4C251.6,268.9 247.2,271.6 242.6,273.9C239.3,275.8 235.7,276.7 232.1,277.6C226.7,278.9 221.2,279.3 215.6,279.3L101.2,279.3C99.3,279.3 97.4,279.2 95.6,278.6C94.9,278.5 94.1,278.8 93.6,278.1C92.4,277.5 91.2,276.9 90.1,276.1C89.9,275.9 89.7,275.8 89.6,275.6C87.3,273.9 85.7,271.6 84.1,269.3C82.9,267.5 82.9,265.4 82.8,263.3C82.5,255.4 82.7,247.4 82.7,239.5C83,238.6 82.6,237.2 84.2,237.1L209.6,237.1C216.3,237.1 221.8,234.6 225.6,229.1C233.7,217.7 226.4,201.4 212.4,199.5C209.8,199.2 207.3,199.1 204.7,199.1C183.1,199.1 161.6,199 140,199.1C130.5,199.1 121.8,196.4 113.6,191.9C106.2,187.8 99.8,182.2 94.9,175.3C87.6,165.1 83.4,153.8 83.1,141.1C82.9,131.3 84.5,122 88.6,113C90.1,110 92.2,106.8 94.1,103.5Z" style="fill:rgb(55,54,63);fill-rule:nonzero;"/>
                    <path d="M302.5,262C302.4,261.8 302.1,261.6 302.1,261.4L302.1,239.4C302.1,237.1 303.6,236.9 305.5,236.9L478.5,236.9C485.4,236.9 490.7,239.9 494.4,245.6C496.4,248.6 497.4,252 497.4,255.5C497.5,262.3 497.5,269.2 497.4,276C497.4,279.2 496.6,280 493.4,280L320,280C310.5,279.9 302.3,272.1 302.5,262C303.8,262.1 303.6,263.2 303.8,264.1C306.2,273.9 312.3,278.7 322.4,278.7L490.3,278.7C495.5,278.7 495.6,278.6 495.6,273.4L495.6,256.2C495.5,246.1 488.3,238.7 478.2,238.4L309,238.4C303.2,238.4 303.4,238.5 303.6,244.4C303.8,249.7 303.1,255 303.2,260.4C303.3,260.8 303.1,261.5 302.5,262Z" style="fill:rgb(55,54,63);fill-rule:nonzero;"/>
                    <path d="M493.1,199.9L322,199.9C317.5,199.9 313.4,198.8 309.7,196C305.1,192.5 302.9,187.8 302.6,182.3C302.3,175 302.6,167.6 302.5,160.3C302.5,157.6 304.1,157.5 306.1,157.5L477.3,157.5C485,157.5 490.8,160.7 494.6,167.2C496.2,169.8 496.8,173 496.8,176.1C496.9,182.8 496.8,189.6 496.8,196.3C496.8,199.3 496.1,199.9 493.1,199.9Z" style="fill:rgb(55,54,63);fill-rule:nonzero;"/>
                    <path d="M780.5,266C780.5,248.3 780.5,230.6 780.4,212.9L780.4,135.8C780.4,132.7 780.9,129.7 781.9,126.8C782.4,125.4 783.1,124.2 784.4,123.6C781.2,128.7 780.9,134.3 780.9,140.1L780.9,262C781,263.2 781.4,264.7 780.5,266Z" style="fill:rgb(55,54,63);fill-rule:nonzero;"/>
                    <path d="M789,121C790.5,120.2 792.2,120 793.8,120L834.5,120C837.1,120.4 839.8,120.2 842.4,120.2L865.6,120.2C866.4,120.2 867.3,120 868.1,120.4L869.5,120.4C869.7,120.5 869.7,120.6 869.7,120.7C869.6,120.8 869.6,120.8 869.5,120.8C842.7,120.9 815.8,120.9 789,121Z" style="fill:rgb(55,54,63);fill-rule:nonzero;"/>
                    <path d="M784.5,123.5C785.2,121.3 787.1,121.1 789,121C787.5,121.8 786,122.6 784.5,123.5Z" style="fill:rgb(55,54,63);fill-rule:nonzero;"/>
                    <path d="M869.5,120.9L869.5,120.5C870.5,120.6 871.6,120.1 872.5,121C871.5,121 870.5,120.9 869.5,120.9Z" style="fill:rgb(55,54,63);fill-rule:nonzero;"/>
                    <path d="M237.5,161C233,160.1 228.7,158.6 224.2,158.2C223,158.1 221.9,158 220.7,158L154.6,158C154.4,157.9 154.4,157.8 154.4,157.7C154.5,157.6 154.5,157.5 154.6,157.5C177.2,157.5 199.9,157.4 222.5,157.6C227.6,157.6 232.8,158.5 237.5,161Z" style="fill:rgb(55,54,63);fill-rule:nonzero;"/>
                    <path d="M275.6,233.9C276.9,228 277.3,222.1 277.1,216.1C276.9,205.7 273.7,196.3 268.7,187.3C268.3,186.5 267.6,185.8 267.6,184.8C270.3,187.5 271.4,191.1 273,194.4C274,196.5 274.7,198.6 275.6,200.8C276.2,201.7 276.2,202.8 276.6,203.8C278.8,213.8 279,223.8 276.6,233.8C276,234.1 276.9,235.6 275.5,235.3C275.3,234.9 275.2,234.4 275.6,233.9Z" style="fill:rgb(55,54,63);fill-rule:nonzero;"/>
                    <path d="M131.5,143C130.5,140.5 130.5,138 131.5,135.5L131.5,143Z" style="fill:rgb(55,54,63);fill-rule:nonzero;"/>
                    <path d="M267.6,184.9C266.2,183.4 264.7,181.9 264.1,179.9C265.7,181.3 267,182.9 267.6,184.9Z" style="fill:rgb(55,54,63);fill-rule:nonzero;"/>
                    <path d="M154.6,157.4L154.6,157.9C152.1,157.7 149.5,158.5 147.1,157.4C148,157 148.8,157 149.7,157.3C151.3,157.4 152.9,157.4 154.6,157.4Z" style="fill:rgb(55,54,63);fill-rule:nonzero;"/>
                    <path d="M264.1,179.9C262.8,179 261.5,178.1 261.1,176.4C262.4,177.4 263.6,178.3 264.1,179.9Z" style="fill:rgb(55,54,63);fill-rule:nonzero;"/>
                    <path d="M243.6,163.4C241.8,163.3 240.4,162.5 239.1,161.4C240.8,161.6 242.2,162.4 243.6,163.4Z" style="fill:rgb(55,54,63);fill-rule:nonzero;"/>
                    <path d="M149.6,157.4C148.7,157.4 147.9,157.4 147,157.5C146.5,157.5 146,157.4 145.5,157.4C146.9,156.7 148.3,156.9 149.6,157.4Z" style="fill:rgb(55,54,63);fill-rule:nonzero;"/>
                    <path d="M257,172.5C255.8,172.3 255.1,171.4 254.5,170.5C255.8,170.7 256.5,171.4 257,172.5Z" style="fill:rgb(55,54,63);fill-rule:nonzero;"/>
                    <path d="M248,166C247,165.8 246,165.5 245.5,164.5C246.6,164.7 247.6,164.9 248,166Z" style="fill:rgb(55,54,63);fill-rule:nonzero;"/>
                    <path d="M254.6,170.4C253.6,170.4 253,169.7 252.6,168.9C253.6,169 254.1,169.7 254.6,170.4Z" style="fill:rgb(55,54,63);fill-rule:nonzero;"/>
                    <path d="M252.6,168.9C251.6,168.9 251.1,168.2 250.6,167.5C251.6,167.5 252.1,168.2 252.6,168.9Z" style="fill:rgb(55,54,63);fill-rule:nonzero;"/>
                    <path d="M245.6,164.4C244.7,164.5 244,164.3 243.6,163.4C244.4,163.5 245.1,163.8 245.6,164.4Z" style="fill:rgb(55,54,63);fill-rule:nonzero;"/>
                    <path d="M934,250.9C935,252 935,253.3 935,254.6L935,276.8C935,279.8 934.4,280.3 931.5,280.3C905.4,280.3 879.4,280.3 853.3,280.2C848.9,280.2 844.6,279.6 840.5,277.7C843,277.5 845.4,278.5 847.8,278.9C852.7,279.8 857.5,279.8 862.4,279.3C866.3,279 870.2,279.6 874.1,279.6C893.1,279.7 912,279.7 931,279.7C933.8,279.7 934.4,279.2 934.4,276.4L934.4,254.7C934.4,253.6 934.2,252.2 934,250.9Z" style="fill:rgb(55,54,63);fill-rule:nonzero;"/>
                    <path d="M812.5,260.4C809.7,258.5 808.4,255.5 806.5,252.9C806.4,252.8 806.3,252.6 806.3,252.5C806.3,252.4 806.4,252.3 806.4,252.3C807.3,252.1 807.5,252.9 808,253.4C808.9,256.2 811.4,257.8 812.5,260.4Z" style="fill:rgb(55,54,63);fill-rule:nonzero;"/>
                    <path d="M808,253.5C807.5,253.1 807,252.8 806.6,252.4C806.1,252 806,251.4 805.5,251C805.3,250.7 805.2,250.3 805,250C803.5,246 801.3,242.4 800.1,238.3C797.2,228.4 796.1,218.5 798.2,208.3C798.8,205.3 799.4,202.3 800.5,199.4C800.6,199.2 800.8,199.2 800.9,199.4C800.2,202.7 799.1,205.9 798.6,209.3C797.5,217.4 797.5,225.4 799.4,233.5C801,240.5 804,246.8 807.7,252.8C808,252.9 807.9,253.2 808,253.5Z" style="fill:rgb(55,54,63);fill-rule:nonzero;"/>
                    <path d="M879.4,153.9C877.4,156.5 874.4,157.4 871.4,157.9C868.5,158.4 865.5,158.7 862.5,158.5C858.7,158.2 854.9,159.1 851.1,159C850.7,159.3 850.3,159.3 849.9,158.9C851.5,158.2 853.2,158 855,158C860,157.9 864.9,157.9 869.8,157.5C873.4,157.2 876.3,155.3 879.4,153.9Z" style="fill:rgb(55,54,63);fill-rule:nonzero;"/>
                    <path d="M810,181.9C809.1,184.2 807.7,186.2 806,187.9C806.9,185.6 808.1,183.6 810,181.9Z" style="fill:rgb(55,54,63);fill-rule:nonzero;"/>
                    <path d="M814.5,176.9C813.6,179.1 811.8,180.5 810,181.9C811,179.8 812.7,178.3 814.5,176.9Z" style="fill:rgb(55,54,63);fill-rule:nonzero;"/>
                    <path d="M826,167.5C824.7,168.8 823.2,169.9 821.5,170.5C822.6,168.9 824.2,168 826,167.5Z" style="fill:rgb(55,54,63);fill-rule:nonzero;"/>
                    <path d="M841,161C839.4,161.6 837.7,162.4 835.9,162.4C837.5,161.3 839.1,160.8 841,161Z" style="fill:rgb(55,54,63);fill-rule:nonzero;"/>
                    <path d="M804.5,190.9C804.3,192.5 803.3,193.7 802.4,194.9C802.5,193.3 803.2,191.9 804.5,190.9Z" style="fill:rgb(55,54,63);fill-rule:nonzero;"/>
                    <path d="M817.5,173.9C816.9,175.3 815.8,176.2 814.5,177C815,175.4 816.1,174.5 817.5,173.9Z" style="fill:rgb(55,54,63);fill-rule:nonzero;"/>
                    <path d="M821.5,170.4C820.7,171.5 820,172.7 818.5,172.9C819.3,171.9 820.1,170.7 821.5,170.4Z" style="fill:rgb(55,54,63);fill-rule:nonzero;"/>
                    <path d="M801,199.4L800.6,199.4C800.5,198 801.1,196.9 802,195.8C802.3,197.3 801.1,198.2 801,199.4Z" style="fill:rgb(55,54,63);fill-rule:nonzero;"/>
                    <path d="M806,187.9C805.8,189.1 805.4,190.1 804.5,190.9C804.5,189.7 804.8,188.6 806,187.9Z" style="fill:rgb(55,54,63);fill-rule:nonzero;"/>
                    <path d="M848.5,159.5C847.7,159.7 846.8,159.8 846,160C846.4,158.5 847.6,159.2 848.5,159.1C848.7,159.2 848.7,159.3 848.7,159.4C848.6,159.4 848.6,159.5 848.5,159.5Z" style="fill:rgb(55,54,63);fill-rule:nonzero;"/>
                    <path d="M835,163C834.3,163.8 833.5,164.1 832.5,164C833.1,163.1 834,162.9 835,163Z" style="fill:rgb(55,54,63);fill-rule:nonzero;"/>
                    <path d="M830.5,164.9C830,165.6 829.3,165.9 828.4,165.8C828.9,165.1 829.6,164.9 830.5,164.9Z" style="fill:rgb(55,54,63);fill-rule:nonzero;"/>
                    <path d="M832.5,163.9C832,164.6 831.3,164.9 830.5,164.9C830.9,164.1 831.6,163.9 832.5,163.9Z" style="fill:rgb(55,54,63);fill-rule:nonzero;"/>
                    <path d="M848.5,159.5L848.5,159C849,159 849.4,158.9 849.9,158.9C850.3,158.9 850.7,159 851.1,159C850.3,159.7 849.4,159.4 848.5,159.5Z" style="fill:rgb(55,54,63);fill-rule:nonzero;"/>
                    <path d="M95.6,278.9C102.3,279.8 109.1,279.3 115.8,279.3C148.5,279.4 181.1,279.3 213.8,279.3C220,279.3 226,278.6 232.1,277.8C228.4,279.5 224.3,279.7 220.5,279.7C180.1,279.8 139.8,279.8 99.4,279.8C98,279.9 96.7,279.8 95.6,278.9Z" style="fill:rgb(55,54,63);fill-rule:nonzero;"/>
                    <path d="M275.6,233.9L275.6,235.4C275.7,237.9 274.5,240.1 273.6,242.4C271.3,247.5 268.4,252.3 265.1,256.9C261.2,260.2 258,264.3 253.9,267.5C250.7,270 247.3,272.3 243.6,274C243.3,274.3 242.9,274.3 242.6,274C246.8,271.5 250.9,269 254.7,265.8C262.8,258.9 269.3,250.9 273.1,240.9C273.9,238.6 274.7,236.2 275.6,233.9Z" style="fill:rgb(55,54,63);fill-rule:nonzero;"/>
                    <path d="M242.6,273.9L243.6,273.9C240.1,276.1 236.2,277.5 232.1,277.9C235.5,276.4 239.3,275.8 242.6,273.9Z" style="fill:rgb(55,54,63);fill-rule:nonzero;"/>
                    <path d="M805.5,251C806.2,251.2 806.4,251.8 806.6,252.4C806.6,252.6 806.6,252.8 806.5,253L806,253C805.8,252.3 805.7,251.6 805.5,251Z" style="fill:rgb(55,54,63);fill-rule:nonzero;"/>
                    <path d="M851,204.9C854.6,200.9 859.4,199.8 864.5,199.5C872.3,199 880.1,199.3 887.7,197.5C895.2,195.8 902.2,192.9 908.5,188.4C908.8,188.2 909.3,188.1 909.6,188C909.4,188.3 909.3,188.7 909.1,189C900.3,195.1 890.5,198.6 879.7,199.5C874.6,199.9 869.6,199.9 864.5,200C863.3,200 862,200.2 860.9,200.9C858.2,201.3 855.5,201.9 853.5,203.9C852.4,204 852,205.1 851,205.5L851,204.9Z" style="fill:rgb(55,54,63);fill-rule:nonzero;"/>
                    <path d="M276.6,233.9C276.3,230.6 277.4,227.5 277.8,224.3C278.5,218.5 277.6,212.8 276.9,207.1C276.8,206 276.7,205 276.6,203.9C278.3,207.9 278.1,212.3 278.6,216.5C279.1,221.5 278.2,226.4 277.6,231.3C276.7,232.1 277.5,233.3 276.6,233.9Z" style="fill:rgb(55,54,63);fill-rule:nonzero;"/>
                    <path d="M273.5,242.4C274.2,240.1 274.9,237.8 275.5,235.4C275.8,234.9 276.1,234.4 276.5,233.9C276,236.9 275.4,239.9 273.5,242.4Z" style="fill:rgb(55,54,63);fill-rule:nonzero;"/>
                    <path d="M276.6,203.9C275.9,203 275.6,202 275.6,200.9C276.5,201.7 276.6,202.8 276.6,203.9Z" style="fill:rgb(55,54,63);fill-rule:nonzero;"/>
                    <path d="M868.1,120.4L836.4,120.4C835.8,120.4 835.1,120.6 834.5,120C845.1,120 855.6,120 866.2,119.9C866.9,120 867.5,119.9 868.1,120.4Z" style="fill:rgb(55,54,63);fill-rule:nonzero;"/>
                    <path d="M302.5,262C302.7,256.4 302.4,250.9 303,245.3C303.2,243.3 302.2,241.3 302.9,239.1C303.3,237.9 303.8,237.4 305,237.4L477.4,237.4C488.2,237.4 497,245.4 496.6,256.4C496.3,262.8 496.6,269.2 496.6,275.6C496.6,278.8 496.1,279.3 492.8,279.3L321.5,279.3C311.6,279.3 304.3,273 303.2,262.9C303,262.6 302.9,262.2 302.5,262C302.5,261.9 302.5,262 302.5,262Z" style="fill:rgb(55,54,63);fill-rule:nonzero;"/>
                </g>
                <g>
                    <path d="M608,332.9L647.5,332.9C651,332.9 651,333 651,336.3C651,338.8 651,341.3 651.1,343.8C651.1,346 650.3,347.1 648,347C639.3,346.9 630.5,346.9 621.8,346.9C619.1,346.9 618.6,347.4 618.6,350L618.6,419.2C618.6,421.1 617.9,421.9 616,421.9C610.7,421.8 605.3,421.8 600,421.9C597.9,421.9 597.1,421.2 597.2,418.9C597.4,414.8 597.2,410.8 597.2,406.7L597.2,351.5C597.2,347.4 596.6,347 592.5,347C584.2,347.1 575.8,347 567.5,347.1C565.7,347.1 564.8,346.2 564.8,344.6C564.7,341.4 564.7,338.1 564.7,334.9C564.7,333.2 566,333 567.3,333L577.5,333C587.7,332.9 597.9,332.9 608,332.9Z" style="fill:rgb(55,54,63);fill-rule:nonzero;"/>
                    <path d="M673.5,418.7L673.5,335.6C673.5,333.4 674.1,332.7 676.3,332.7C681.5,332.8 686.8,332.8 692,332.7C693.9,332.7 694.7,333.3 694.7,335.3C694.6,362.9 694.6,390.6 694.6,418.2C694.6,421.7 694.5,421.8 690.9,421.8C686.2,421.8 681.4,421.7 676.7,421.8C674.3,421.9 673.5,421.1 673.5,418.7Z" style="fill:rgb(55,54,63);fill-rule:nonzero;"/>
                    <path d="M740,333.4C740.8,332.4 742,332.4 743.2,332.4L805.7,332.4C808.6,332.4 809,332.9 809,335.8L809,344C809,346.9 807.4,348.6 804.6,348.4C793.6,347.4 782.6,348.2 771.7,348C765.6,347.9 759.4,347.9 753.3,348.4C749.2,348.7 744.7,353.3 744.6,357.6C744.5,370.6 744.5,383.6 744.6,396.6C744.6,401.8 749.5,406.4 754.6,406.4L803.1,406.4C804.1,406.4 805.1,406.4 806.1,406.6C808.2,407.1 809.2,408.2 809.1,410.5C809,413.4 809.1,416.3 809.1,419.2C809.1,421.9 808,422.9 805.2,422.8C802,422.7 798.8,422.4 795.6,422.4C784.2,422.3 772.8,422.1 761.4,422.5C755.7,422.7 750.1,422.5 744.5,422.4C740.4,422.3 736.7,421 733.6,418.4C734,418 734.6,417.9 735.1,417.9C736.5,418.2 737.7,419 738.9,419.8C741.8,420.8 744.7,421.2 747.7,421.2C766.4,421.1 785,421.2 803.7,421.2C807.2,421.2 807.4,421 807.4,417.5C807.4,415.3 807.3,413.2 807.4,411C807.5,409.1 806.4,408.3 804.7,408.1C803.8,408 802.9,408.1 802,408.1L756,408.1C750.8,408.1 746.8,406 744.2,401.5C742.8,399.1 742.5,396.4 742.4,393.8C742.3,383.3 742.2,372.8 742.5,362.3C742.6,358.9 742.4,355.3 744.5,352.2C746.4,349.3 749,347.5 752.3,346.9C754.7,346.5 757.1,346.1 759.5,346.2L799.5,346.2C800.8,346.2 802.1,346.3 803.5,346.5C806,346.9 807.2,346 807.3,343.5C807.4,340.9 807.3,338.3 807.3,335.8C807.3,334.3 806.7,333.6 805.2,333.6L743.5,333.6C742.3,333.4 741.1,334.3 740,333.4Z" style="fill:rgb(55,54,63);fill-rule:nonzero;"/>
                    <path d="M835,345.9C838.1,339.8 843,335.8 849.4,333.4C851.9,332.5 854.4,332.4 857,332.4L911.2,332.4C914.8,332.4 914.9,332.6 914.6,336.2C914.4,338.6 915.1,341 915,343.4C914.8,347.2 913.5,348.9 909.8,348.3C906,347.7 902.2,348 898.5,348.2C887.3,348.6 876.2,348.4 865.1,348.3C860.8,348.3 856.5,351.4 855.3,356.3C854.3,360.1 856.3,364.6 860,366.9C862.3,368.4 864.9,368.9 867.6,368.9C875.6,368.9 883.6,368.8 891.6,369C896.1,369.1 900.7,369.4 904.8,371.6C913.1,376.1 918.6,382.6 919.6,392.3C920,396.1 920.5,399.9 918.6,403.4C918.1,403 918,402.5 918,402C918.9,396.9 918.7,391.9 916.9,387.1C914.4,380.1 909.7,374.9 902.5,372.5C901.7,372.3 900.9,372 900.2,371.6C899,370.7 897.6,370.7 896.1,370.7C887,370.7 878,370.8 868.9,370.7C865.5,370.7 862.1,370.1 859.1,368.2C854.5,365.2 852.7,360.4 854.2,355C855.5,350.3 860.1,346.9 865.3,346.8L910,346.8C912.7,346.7 913.4,346 913.5,343.3C913.6,340.9 913.5,338.5 913.5,336.1C913.5,335.2 913.6,334.2 912.4,333.8C911.5,333.6 910.6,333.7 909.7,333.7L856.3,333.7C851.1,333.7 846.7,335.9 842.8,339.2C840.3,341.3 838.6,344.1 836.1,346.2C835.5,346.1 835.2,346.1 835,345.9Z" style="fill:rgb(55,54,63);fill-rule:nonzero;"/>
                    <path d="M835,345.9L835.6,345.9C836.4,347 835.7,348 835.3,348.9C834.1,351.6 833.4,354.5 833.3,357.3C832.8,368.1 840.3,378.9 851,382.1C853.4,382.8 855.8,383.2 858.4,383.2C867.4,383.1 876.4,383.4 885.4,383.1C890.3,382.9 896.8,387.5 898,393.3C899.2,398.7 896.6,404.2 891.2,407C889.5,407.9 887.6,408.1 885.6,408.1L839.4,408.1C838,408.2 837.3,408.9 837.2,410.3C837.2,413.3 837.1,416.3 837.2,419.3C837.2,421.8 839.2,421 840.5,421.1L893,421.1C903,421.1 910.2,416.3 915.2,407.9C916,406.6 916.6,405.3 917,403.8C917.2,403 917.3,401.9 918.5,401.8L918.5,403.3C915.9,413.1 909.2,418.6 900,421.7C898.5,422.2 897.1,422.3 895.6,422.3L843.4,422.3C842.6,422.3 841.7,422.2 840.9,422.3C836.4,422.9 836,422.6 836.1,418C836.2,415.5 835.5,413.1 835.6,410.6C835.7,407.3 836.6,406.3 839.9,406.2L875.4,406.2C878.5,406.2 881.7,406.5 884.8,406.6C893.5,406.8 899.4,398.2 895.3,390.2C893.4,386.4 889.8,384.5 885.8,384.3C878.5,384 871.1,383.9 863.8,384.3C858.2,384.6 852.9,384.3 847.7,382.3C839.6,379.1 831.5,368.3 832,359C832.2,354.6 832.4,350 835,345.9Z" style="fill:rgb(55,54,63);fill-rule:nonzero;"/>
                    <path d="M428.8,384.1C428.8,384.1 428.8,384 428.7,384L428.7,383.9C427.4,381.4 426,379 423.9,377.1C422.9,376.2 422.9,375.3 423.7,374.3C425.1,372.6 426,370.6 426.8,368.7C429.8,361.7 429.9,354.6 426.7,347.5C424.7,343.1 421.6,339.7 417.8,337C417.7,337 417.6,336.9 417.5,336.9C417.4,336.9 417.4,336.9 417.3,336.8C416.2,336.3 415.1,335.6 414,335C411.1,333.5 408,332.7 404.7,332.7L345.5,332.7C342.3,332.7 342.3,332.7 342.3,335.9L342.3,419C342.3,419.8 342.1,420.7 342.5,421.5C342.7,421.7 342.8,421.9 343,422C343.9,422.4 344.8,422.2 345.7,422.2L408.7,422.2C408.9,422.2 409.1,422.2 409.3,422.1L409.5,422.1C412,421.7 414.3,420.8 416.5,419.7C429.8,413.5 435.4,397.1 428.8,384.1ZM343.1,378.7L343.1,338C343.1,333.5 343.1,333.5 347.7,333.5L403.9,333.5C414,333.5 424.9,342.4 427.2,352C429.1,359.9 427.4,366.8 422.9,373.2C421.6,375 421.3,376.2 423.1,378C428.1,383.1 430.5,389.5 430.3,396.5C429.9,406.5 424.6,415.1 414.5,419.3C410.9,420.8 407.2,421.4 403.3,421.4C384.5,421.3 365.7,421.3 346.8,421.3C343.5,421.3 343.6,421.3 343.4,418C342.5,404 343.5,390 343.1,378.7Z" style="fill:rgb(55,54,63);fill-rule:nonzero;"/>
                    <path d="M179,409.4C177.2,407.3 176.7,404.5 175.5,402.1C174.3,399.6 173.2,397 172.2,394.3C171.5,392.6 170.5,391.8 168.6,391.8L142.1,391.8C140.3,391.8 139.5,392.3 140,394.3C140.5,396.3 139.6,398.2 139.6,400.2C139.4,406.3 140.1,412.3 140.1,418.4C140.1,421.6 138.4,422.6 135.3,422.5C130.4,422.2 125.5,422.4 120.6,422.3C119.4,422.3 118.1,422.4 117.2,421.3C116.7,420.4 117,419.5 117,418.6L117,356C117,355.1 117.2,354.2 116.8,353.3L116.8,345.3C117.2,343.5 117.2,341.6 116.8,339.8C116.4,337.4 116.1,335.1 117.3,332.8C117.4,332.8 117.5,332.7 117.6,332.7C117.9,332.6 118.2,332.6 118.4,332.9C118.4,333 118.5,333 118.5,333.1C118.6,360.7 118.5,388.3 118.5,415.9C118.5,419 118.5,420.2 119.6,420.7C120.4,421 121.6,421 123.7,421L134.9,421C135.9,421 136.9,421.1 137.8,420.4C137.8,420.4 137.9,420.3 137.9,420.2C137.9,420.2 138,420.1 138,420C138.1,419.9 138.2,419.8 138.2,419.6C138.7,415.7 138.7,411.8 138.2,407.9C138.2,407.8 138.2,407.7 138.1,407.5C138,404.3 137.7,401.2 138.1,398C138.2,397.6 138.2,397.2 138.3,396.8C138.5,395.7 138.3,394.7 138.2,393.6C137.9,391.4 139,390 141.3,390C150.6,389.9 160,389.9 169.3,390C171.2,390 172.6,391 173.3,392.8C174.3,395.3 175.4,397.7 176.5,400.2C177.3,401.9 178,403.7 178.7,405.4C178.7,405.5 178.8,405.5 178.8,405.6C179.3,407 180,408.2 179,409.4Z" style="fill:rgb(55,54,63);fill-rule:nonzero;"/>
                    <path d="M203.2,422.3C199.3,421.9 195.4,422.2 191.5,422.1L191.4,422.1C183.2,422 185.3,423 181.9,415.8C181,414 180.6,411.8 179.2,410.3C179.2,410 179.1,409.7 179.1,409.4C178.7,405.5 176.4,402.4 175.1,398.8C174.4,397 173.4,395.3 172.9,393.6C172.3,391.7 171,390.9 169.2,390.9L141.3,390.9C139.6,390.9 138.8,391.8 138.9,393.4C139.2,398.2 138.6,403 138.7,407.8C139,412 139,416.2 138.7,420.4C138.5,420.5 138.3,420.5 138.1,420.4L138,420.4L137.9,420.3C137.4,419.4 137.4,418.4 137.4,417.4L137.4,394.4C137.4,390.6 138.7,389.3 142.5,389.2C151.1,389.1 159.7,389.2 168.2,389.2C171.4,389.2 173.1,390.8 174.4,393.7C177.8,401.8 181.2,409.8 184.9,417.7C185.9,419.9 187.4,420.8 189.8,420.7C193.5,420.6 197.1,420.7 200.8,420.7C203.7,420.7 204,420.2 202.8,417.5C199,409 195.2,400.6 191.7,392.1C191.3,391.1 190.8,390.1 190.6,389.1C190.3,387.5 190.6,386 192,385.1C196.5,382.1 199.9,378.2 202.2,373.4C202.4,372.9 202.8,372.6 203.3,372.4C203.4,372.4 203.5,372.4 203.5,372.5C203.7,372.6 203.8,372.7 203.9,372.9C203.9,373 204,373.1 204,373.2C203.9,375.9 202,377.6 200.7,379.7C200.6,379.8 200.6,379.8 200.5,379.9C198.4,382.4 196,384.5 193.4,386.4C193.2,386.5 193,386.7 192.9,386.9C192.7,387.1 192.6,387.4 192.5,387.7C192.2,388.5 192.6,389.5 193,390.3C194.6,393.9 195.7,397.6 197.5,401.1C199.6,405.2 201.2,409.4 203,413.6C203.8,415.5 204.8,417.3 205.6,419.3C206.4,421.3 205.6,422.6 203.2,422.3Z" style="fill:rgb(55,54,63);fill-rule:nonzero;"/>
                    <path d="M414,334.9C407.2,332.2 400.1,332.9 393.1,332.9L345.9,332.9C342.6,332.9 342.6,332.9 342.6,336.3L342.6,416.7C342.6,418.3 342.5,419.9 342.5,421.4C341.7,420.6 342,419.7 342,418.8L342,335.8C342,332.3 342,332.3 345.5,332.3C365.7,332.3 386,332.3 406.2,332.4C409,332.5 411.9,332.8 414,334.9Z" style="fill:rgb(55,54,63);fill-rule:nonzero;"/>
                    <path d="M740,333.4C741,333.3 742,333.1 743,333C743.1,333.2 743.1,333.5 742.9,333.7C739.4,335.4 735.6,336.5 732.6,339.1C731.4,340.1 730.1,341 729,342.1C728.4,342.7 727.7,343.3 727.4,344.1C727.2,344.5 727,344.9 726.8,345.2C726.3,345.9 725.7,346.5 725.4,347.3C725.1,348.1 724.8,349 724.4,349.8C723.3,351.4 723.2,353.2 723.1,355.1C723.1,355.4 723,355.6 722.9,355.9C722.5,357.4 722.3,358.8 722.4,360.3L722.4,395.7C722.4,396.9 722.3,398.2 722.8,399.4C722.9,399.7 722.9,399.9 723,400.2C723.3,401.4 723.2,402.6 723.8,403.7C723.9,403.9 724,404.1 724,404.4C724.3,406.2 725.2,407.9 726.3,409.3C726.8,410 727.3,410.8 727.9,411.5C729.1,413.2 730.5,414.6 732.2,415.8C733.1,416.7 734.8,417 735.1,418.6L733.5,418.6C726.9,414.2 722.9,408 721.3,400.2C721.1,399.1 721,398.1 721,397C721,385.1 721.1,373.2 721,361.3C720.8,348.1 727.3,337.6 740,333.4Z" style="fill:rgb(55,54,63);fill-rule:nonzero;"/>
                    <path d="M191.6,421.9L203.1,421.9C205.6,421.9 206,421.4 205,419.1C201.1,409.9 197.1,400.7 193.1,391.4C191.4,387.5 191.5,387.5 194.8,384.8C196.8,383.1 198.7,381.1 200.6,379.3C200.9,379.6 200.9,380 200.6,380.3C200.4,380.5 200.3,380.6 200.1,380.8C199.1,382.2 197.9,383.3 196.6,384.3C195.8,385 194.9,385.6 194.1,386.3C193.1,386.9 192.4,387.5 193.1,388.8C193.3,389.7 193.5,390.6 194.1,391.3C194.6,392.1 194.7,393 195.1,393.8C196.3,398.1 198.8,401.9 200.5,406C202.3,410.4 204.3,414.8 206.3,419.1C207.1,420.9 206.5,422.1 204.6,422.7C203.8,422.2 202.9,422.8 202.1,422.3L191.6,422.3C191.4,422.2 191.4,422.1 191.4,422C191.5,422 191.5,421.9 191.6,421.9Z" style="fill:rgb(55,54,63);fill-rule:nonzero;"/>
                    <path d="M428.5,383.9L429.1,383.9C432.4,390.3 433,397 430.8,403.8C427.7,413.6 420.6,419.3 411,422.3C410.5,422.4 410,422.4 409.5,422.4C409.3,422.3 409.3,422.2 409.3,422.1C409.4,422 409.4,421.9 409.5,421.9C414.1,420.4 418.6,418.8 422.2,415.5C431,407.4 433.4,395.9 428.7,384.9C428.7,384.6 428.6,384.2 428.5,383.9Z" style="fill:rgb(55,54,63);fill-rule:nonzero;"/>
                    <path d="M207.1,364.4C206.1,369.8 205.2,375.2 201.5,379.6C201.2,379.9 200.9,380.1 200.6,380.4L200.6,379.4C201.4,377.3 203.4,375.9 203.6,373.5C203.8,373.3 203.9,373.1 203.9,372.8C204,372.5 204,372.2 204,371.8C204,371.5 204,371.2 204.1,370.9C204.1,370.8 204.1,370.7 204.2,370.6C204.2,370.5 204.2,370.4 204.3,370.3L204.3,370.1C207.7,358.6 204.1,346.4 194.4,339.1L194.3,339C193.5,338.4 192.7,337.9 191.9,337.4C191.1,336.9 190.1,336.7 189.5,336C189.2,335.7 189,335.3 189,334.8L189,334.7C189.3,334.6 189.5,334.5 189.8,334.6C189.9,334.6 190,334.7 190,334.7C196.7,338.2 201.7,343.3 204.8,350.2C205.7,352.1 205.7,354.2 206.5,356.1C207,356.9 206.4,357.9 207,358.6L207,361.6C207.4,362.7 207.4,363.6 207.1,364.4Z" style="fill:rgb(55,54,63);fill-rule:nonzero;"/>
                    <path d="M190.1,334.9L189,334.9C187.2,335.9 185.6,334.6 184,334.3C182,333.9 180.1,333.6 178.1,333.6L122,333.6C120.7,333.6 119.3,333.9 118.2,332.9C117.8,332.9 117.5,332.9 117.1,332.8C119.1,331.7 121.2,332.3 123.4,332.3L180,332.3C183.6,332.4 186.9,333.2 190.1,334.9Z" style="fill:rgb(55,54,63);fill-rule:nonzero;"/>
                    <path d="M409.5,421.9L409.5,422.4L345.1,422.4C344.4,422.4 343.6,422.6 343,421.9C363.1,421.9 383.2,421.9 403.3,421.8C405.4,421.9 407.5,421.9 409.5,421.9Z" style="fill:rgb(55,54,63);fill-rule:nonzero;"/>
                    <path d="M191.6,421.9L191.6,422.4L191.4,422.4C184.3,422.5 184.3,422.5 181.5,416.2C180.7,414.3 179.9,412.3 179.2,410.3C181,410.7 180.7,412.5 181.4,413.6C181.9,414.3 182.3,415 182.4,415.8C183.5,420.8 186.6,422.8 191.6,421.9Z" style="fill:rgb(55,54,63);fill-rule:nonzero;"/>
                    <path d="M196.6,384.4C197.6,383 198.7,381.9 200.1,380.9C199.5,382.6 198.3,383.8 196.6,384.4Z" style="fill:rgb(55,54,63);fill-rule:nonzero;"/>
                    <path d="M417.5,336.4L417.5,337C416.2,336.5 414.9,336.1 414,334.9C415.5,334.7 416.3,336 417.5,336.4Z" style="fill:rgb(55,54,63);fill-rule:nonzero;"/>
                    <path d="M193.1,388.9C192.2,387.6 192.5,386.7 194.1,386.4C193.6,387.2 192.9,387.9 193.1,388.9Z" style="fill:rgb(55,54,63);fill-rule:nonzero;"/>
                    <path d="M195.1,393.9C194.3,393.3 194.1,392.4 194.1,391.4C194.9,392 195.1,392.9 195.1,393.9Z" style="fill:rgb(55,54,63);fill-rule:nonzero;"/>
                    <path d="M207.1,364.4L207.1,361.9C207.8,362.7 207.8,363.6 207.1,364.4Z" style="fill:rgb(55,54,63);fill-rule:nonzero;"/>
                    <path d="M207.1,358.9C206.3,358.2 206.7,357.2 206.6,356.4C207.4,357.1 207,358 207.1,358.9Z" style="fill:rgb(55,54,63);fill-rule:nonzero;"/>
                    <path d="M202,422.4C202.9,422.5 203.8,422.1 204.5,422.8C203.7,422.8 202.8,423.1 202,422.4Z" style="fill:rgb(55,54,63);fill-rule:nonzero;"/>
                    <path d="M728.5,341.9C732.5,337.6 737.3,334.8 743,333.4C743.7,332.9 744.5,333.1 745.2,333.1L804.7,333.1C807.5,333.1 807.5,333.1 807.5,335.8C807.5,338.5 807.6,341.1 807.5,343.8C807.4,345.9 806.4,346.8 804.3,346.8C790.5,346.3 776.7,346.7 762.8,346.6C758.9,346.6 755,346.3 751.2,347.4C746.5,348.7 743.4,352.7 743,357.6C742,369.8 742.7,382.1 742.6,394.3C742.6,398.7 744.1,402.7 747.9,405.6C750.3,407.4 753.1,407.9 755.9,407.9C771.6,408 787.4,407.9 803.1,407.9C803.9,407.9 804.8,407.8 805.6,408C806.9,408.2 807.8,409.1 807.7,410.4C807.4,413.4 807.6,416.4 807.5,419.4C807.5,421.1 806.6,421.7 805,421.7L745.8,421.7C743.1,421.7 740.6,420.8 738.1,420C737.1,419.5 736.1,419 735.2,418.5C734.2,417.7 733.1,416.9 732.1,416.1C730.5,414.7 729,413.2 727.6,411.6C726.7,411.2 726.6,410.2 726.1,409.6C725.1,407.8 724.1,406.1 723.6,404.1C722.9,403 723,401.7 722.6,400.6C721.9,398.8 721.9,396.9 721.9,395L721.9,362.5C721.9,360 722,357.5 722.6,355.1C722.9,353.2 723.1,351.3 724.1,349.6C724.3,348.7 724.5,347.8 725.1,347.1C725.6,346.4 726.2,345.8 726.6,345.1C726.8,344.8 726.9,344.4 727.1,344.1C727.5,343.2 728.1,342.6 728.5,341.9Z" style="fill:rgb(55,54,63);fill-rule:nonzero;"/>
                    <path d="M738,419.9C759.9,423.1 782,420.5 804,421.4C806.3,421.5 807.1,420.8 807,418.4C806.9,415.8 806.8,413.3 807.2,410.7C807.5,408.9 806.2,408.3 804.5,408.3L756.8,408.3C747,408.4 742.2,402.8 742,393.6C741.8,382.7 741.8,371.8 742,360.9C742.1,356.1 743.2,351.5 747.5,348.5C749.6,347 751.9,346.3 754.5,346.3L803.2,346.3C806.5,346.3 806.8,346 806.9,342.8C806.9,340.4 806.8,338 806.9,335.6C807,333.8 806.3,333.3 804.6,333.3C796.9,333.4 789.1,333.3 781.4,333.3L742.9,333.3L742.9,332.8C763.7,332.8 784.6,332.7 805.4,332.7C807,332.7 808,333.1 807.9,334.9C807.8,337.9 807.9,340.9 807.8,343.9C807.7,346.2 806.6,347.3 804.3,347.2C792,346.4 779.7,347 767.3,346.9C762.9,346.9 758.5,346.8 754.1,347.2C747.7,347.8 743.6,351.9 743.2,358.3C742.5,370.2 743,382.1 742.9,394C742.9,397.3 743.6,400.6 746,403.3C748.6,406.3 752,407.4 755.8,407.4L804.5,407.4C807.4,407.6 807.9,408.2 807.8,411.1C807.7,413.8 807.7,416.6 807.7,419.3C807.7,421.1 807,421.9 805.2,421.9C784.9,421.8 764.5,421.9 744.2,421.7C742.3,421.8 739.9,421.5 738,419.9Z" style="fill:rgb(55,54,63);fill-rule:nonzero;"/>
                    <path d="M900.5,371.4C901.2,371.4 901.9,371.5 902.5,371.9C910.3,374.9 918.3,383.3 918.5,394.7C918.7,405.1 914.2,412.9 905.6,418.2C901.9,420.5 897.7,421.7 893.1,421.7C875.5,421.5 858,421.6 840.4,421.6C836.9,421.6 836.7,421.4 836.7,417.9C836.7,415.5 836.8,413.1 836.7,410.7C836.6,408.6 837.6,407.8 839.5,407.9L841.5,407.9C856.2,407.9 871,407.7 885.7,408C891.3,408.1 896.9,403 897.8,398C898.8,392.5 895.2,386.2 889.9,384.2C888.7,383.7 887.5,383.6 886.2,383.6C876.8,383.6 867.4,383.8 858,383.5C847.7,383.2 840,378.2 835.5,368.8C831.2,359.9 832.4,351.4 837.9,343.6C842.7,336.8 849.4,332.9 858.2,333C876.3,333.2 894.5,333 912.6,333.1C913.6,333.5 913.5,334.4 913.5,335.2C913.5,338 913.6,340.9 913.5,343.7C913.5,346 912.8,346.6 910.5,346.8L865.8,346.8C856.6,346.8 851.3,355 855,363.4C856.3,366.2 858.7,367.9 861.5,368.9C863.8,369.7 866.3,370.1 868.8,370.1C877.6,370 886.5,370.1 895.3,370.1C897.1,370.1 898.9,370.4 900.5,371.4Z" style="fill:rgb(55,54,63);fill-rule:nonzero;"/>
                    <path d="M912.5,333.4C894.1,333.4 875.7,333.5 857.3,333.4C849,333.3 839,340.5 835.8,348C832,356.9 832.9,365.1 838.1,372.8C841.8,378.4 847.5,381.6 854.1,382.9C857.4,383.6 860.7,383.3 864,383.3L886.7,383.3C891.6,383.3 894.8,386 896.9,390.1C899.3,394.8 898.9,399.4 895.5,403.6C892.6,407 889.1,408.5 884.6,408.4C869.9,408.2 855.1,408.3 840.4,408.3C837.1,408.3 837.1,408.3 837.1,411.6L837.1,417.8C837.1,420.9 837.3,421.1 840.6,421.2C840.8,421.3 840.8,421.4 840.8,421.5C840.7,421.6 840.7,421.6 840.6,421.6C836.6,421.7 836.6,421.7 836.6,417.9C836.6,415.4 836.7,412.9 836.5,410.4C836.3,408 837.5,407.1 839.8,407.1L852,407.1C863.1,407.1 874.2,406.8 885.2,407.3C892.9,407.6 900.4,399.3 896.6,390.8C894.9,387 890.3,383.6 886.1,383.6C876.9,383.6 867.8,383.4 858.6,383.7C847.3,384 836.9,376 833.6,364.8C831.9,359 832.7,353.5 834.9,348C835.2,347.2 835.7,346.5 835.6,345.6C839.8,339.6 844.9,334.8 852.3,333C853,332.8 853.8,332.6 854.5,332.6L912.6,332.6C912.8,332.7 912.8,332.8 912.8,332.9C912.6,333.3 912.6,333.4 912.5,333.4Z" style="fill:rgb(55,54,63);fill-rule:nonzero;"/>
                    <path d="M912.5,333.4L912.5,332.9C914,332.9 914,334 914,335L914,343.2C914,346.6 913.3,347.3 909.9,347.3L864.7,347.3C859,347.5 854.7,351.8 854.1,357.9C853.7,362.4 857.6,367.6 862.3,368.8C864.8,369.4 867.3,369.8 869.9,369.8C878.8,369.7 887.7,369.8 896.6,369.9C898,369.9 899.7,369.7 900.5,371.4C889.4,369.3 878.3,370.9 867.2,370.4C862.8,370.2 858.9,369 855.8,365.6C851.1,360.5 853.4,349.9 860,347.5C861.9,346.8 863.8,346.4 865.8,346.4L909,346.4C912.8,346.4 913,346.3 912.9,342.5C912.9,339.4 913.6,336.4 912.5,333.4Z" style="fill:rgb(55,54,63);fill-rule:nonzero;"/>
                    <path d="M840.5,421.9L840.5,421.4C858,421.4 875.4,421.3 892.9,421.4C906.1,421.5 918.2,409.6 918.1,396.4C918,385.4 913,377.8 903.6,372.8C903.2,372.6 902.8,372.2 902.4,371.9C903.3,371.7 904,372 904.8,372.4C915.6,378.3 920.3,388.5 918.5,400.6C918.4,401 918.4,401.4 918.4,401.8C917.1,405 916.1,408.3 913.9,411.1C908.7,417.8 902.2,421.8 893.6,421.8C875.9,422 858.2,421.9 840.5,421.9Z" style="fill:rgb(55,54,63);fill-rule:nonzero;"/>
                    <path d="M423.2,378C421.4,376.2 421.7,375 423,373.2C427.5,366.8 429.2,359.9 427.3,352C424.9,342.3 414.1,333.5 404,333.5L347.8,333.5C343.2,333.5 343.2,333.5 343.2,338L343.2,378.7C343.6,390 342.6,404.1 343.6,418.1C343.8,421.3 343.7,421.4 347,421.4C365.8,421.4 384.7,421.4 403.5,421.5C407.4,421.5 411.1,420.9 414.7,419.4C424.8,415.2 430.1,406.6 430.5,396.6C430.6,389.5 428.2,383.1 423.2,378ZM363.1,350C363,347.1 363.9,346.4 366.9,346.4L395.9,346.4C404.2,346.5 409.8,354 407.7,361.9C406.5,366.5 401.3,370.3 396.2,370.3L368,370.3C364.6,370.3 364,369.5 363.6,366.1C362.8,360.8 363.2,355.4 363.1,350ZM403.9,406.1C402.2,407.2 400.3,407.4 398.4,407.4L366.9,407.4C364.8,407.4 364,406.5 363.8,404.4C363.2,398.3 363.8,392.3 363.6,386.2C363.5,384.3 364.7,383.7 366.5,383.7C371.8,383.8 377.1,383.7 382.5,383.7L397.5,383.7C403.3,383.7 407.8,387.3 409.4,392.9C410.8,398.1 408.7,403.2 403.9,406.1Z" style="fill:rgb(55,54,63);fill-rule:nonzero;"/>
                    <path d="M313,354C313,343.2 308.1,336.7 297.8,333.7C297,333.5 296.2,333.3 295.8,332.5C295.8,332.6 295.7,332.7 295.6,332.7C294.4,333.4 293,333.2 291.7,333.2L249.5,333.2C237.4,333.2 229.1,341.4 229.1,353.6L229.1,400.3C229.1,410.9 235.1,418.2 245.6,420.3C246.3,420.4 247.3,420.3 247.3,421.4L247.4,421.4C248.5,420.4 249.9,420.7 251.2,420.7C265,420.7 278.7,420.5 292.4,420.7C302.6,420.9 313.4,412.3 313.1,400C312.7,384.7 313,369.3 313,354ZM282.5,407.9C274.7,407.8 267,407.9 259.3,407.9C253.1,407.9 248.3,403.1 248.2,396.9C248.2,383.7 248.1,370.4 248.3,357.2C248.4,351.2 251.3,347 256.4,346.1C259.1,345.6 261.8,345.6 264.6,345.5C269.9,345.4 275.3,345.5 280.6,345.5C286.9,345.5 290.8,348 292.8,353C293.2,354 293.3,355.1 293.3,356.2L293.3,377.2C293.3,383.9 293.1,390.5 293.3,397.2C293.5,403.9 287.8,408 282.5,407.9Z" style="fill:rgb(55,54,63);fill-rule:nonzero;"/>
                    <path d="M204.6,370.9C204.5,370.8 204.4,370.7 204.3,370.7C203.3,369.9 203.9,368.8 204.1,367.8C205.7,358.8 204,350.6 197.8,343.6C192.6,337.8 186,334.4 178.3,334.3C159.8,334.1 141.3,334.2 122.8,334.2C119.7,334.2 119.4,334.5 119.4,337.7L119.4,416.6C119.4,420.3 119.8,420.6 123.4,420.6C128.2,420.6 133,420.8 137.8,420.4L138.6,420.4C138.5,421.8 137.5,421.9 136.4,421.9L120.2,421.9C118.3,421.9 117.6,420.9 117.6,419.1L117.6,335.6C117.6,334.7 117.6,333.8 118.2,333L180.6,333C183.5,333 186.2,334.4 189,335C194.1,338 199,341.4 202,346.7C206.4,354.3 207.8,362.4 204.6,370.9Z" style="fill:rgb(55,54,63);fill-rule:nonzero;"/>
                    <path d="M138.6,420.4L138.6,407.8C139.2,412 139.3,416.2 138.6,420.4Z" style="fill:rgb(55,54,63);fill-rule:nonzero;"/>
                    <path d="M204,367.8C205.6,358.8 203.9,350.6 197.7,343.6C192.5,337.8 185.9,334.4 178.2,334.3C159.7,334.1 141.2,334.2 122.7,334.2C119.6,334.2 119.3,334.5 119.3,337.7L119.3,416.6C119.3,420.3 119.7,420.6 123.3,420.6C128.1,420.6 132.9,420.8 137.7,420.4C137.7,420.4 137.8,420.3 137.8,420.2C137.3,419.3 137.3,418.3 137.3,417.3L137.3,394.3C137.3,390.5 138.6,389.2 142.4,389.1C151,389 159.6,389.1 168.1,389.1C171.3,389.1 173,390.7 174.3,393.6C177.7,401.7 181.1,409.7 184.8,417.6C185.8,419.8 187.3,420.7 189.7,420.6C193.4,420.5 197,420.6 200.7,420.6C203.6,420.6 203.9,420.1 202.7,417.4C198.9,408.9 195.1,400.5 191.6,392C191.2,391 190.7,390 190.5,389C190.2,387.4 190.5,385.9 191.9,385C196.4,382 199.8,378.1 202.1,373.3C202.3,372.8 202.7,372.5 203.2,372.3C203.3,372.3 203.4,372.3 203.4,372.4C203.6,372.3 203.8,372.1 203.9,371.9C203.9,371.6 203.9,371.3 204,371C204,370.9 204,370.8 204.1,370.7C203.3,369.9 203.8,368.8 204,367.8ZM178.3,374.2C175.3,376.3 171.9,376.7 168.6,376.7C159.7,376.8 150.8,376.7 141.9,376.8C139.9,376.8 139.2,375.9 139,374C138.4,365.8 138.9,357.5 138.7,349.3C138.7,347.3 139.9,346.8 141.7,346.9L156.7,346.9C161.4,346.9 166.2,346.8 170.9,346.9C177,347 183.1,351.8 184.6,357.5C186.3,364.4 183.9,370.5 178.3,374.2Z" style="fill:rgb(55,54,63);fill-rule:nonzero;"/>
                    <path d="M204.2,370.9C204.2,370.8 204.2,370.7 204.3,370.6C203.3,369.8 203.9,368.7 204.1,367.7C205.7,358.7 204,350.5 197.8,343.5C192.6,337.7 186,334.3 178.3,334.2C159.8,334 141.3,334.1 122.8,334.1C119.7,334.1 119.4,334.4 119.4,337.6L119.4,416.5C119.4,420.2 119.8,420.5 123.4,420.5C128.2,420.5 133,420.7 137.8,420.3C137.8,420.3 137.9,420.2 137.9,420.1C137.4,419.2 137.4,418.2 137.4,417.2L137.4,394.2C137.4,390.4 138.7,389.1 142.5,389C151.1,388.9 159.7,389 168.2,389C171.4,389 173.1,390.6 174.4,393.5C177.8,401.6 181.2,409.6 184.9,417.5C185.9,419.7 187.4,420.6 189.8,420.5C193.5,420.4 197.1,420.5 200.8,420.5C203.7,420.5 204,420 202.8,417.3C199,408.8 195.2,400.4 191.7,391.9C191.3,390.9 190.8,389.9 190.6,388.9C190.3,387.3 190.6,385.8 192,384.9C196.5,381.9 199.9,378 202.2,373.2C202.4,372.7 202.8,372.4 203.3,372.2C203.4,372.2 203.5,372.2 203.5,372.3C201.6,375.9 199.6,379.4 196.5,382.1C195.4,383.1 194.4,384.2 193,384.9C191.1,385.9 190.5,387.5 191.4,389.5C195.3,398.5 199.2,407.5 203.1,416.5C203.2,416.7 203.3,416.9 203.4,417.2C205.2,420.9 204.9,421.4 200.8,421.4C196.8,421.4 192.8,421.3 188.8,421.4C186.6,421.4 185.4,420.7 184.4,418.6C182.5,414.4 180.6,410.2 178.7,406C178.7,405.9 178.7,405.9 178.6,405.8C177.8,404 177.1,402.3 176.4,400.6C175.3,398 174.2,395.5 173.2,392.9C172.4,391 171,390 169,390L141.5,390C138.9,390 138,391.1 138,393.7L138,420.5C137.5,421.5 136.6,421.4 135.7,421.4C131,421.4 126.2,421.3 121.5,421.4C120.5,421.4 119.9,421.2 119.4,420.9C118.8,420.4 118.6,419.6 118.6,418.4L118.6,336.2C118.6,334.8 118.9,334 119.7,333.7C120.1,333.5 120.6,333.5 121.3,333.5C140.5,333.6 159.6,333.2 178.8,333.7C182,333.8 185,334.4 187.8,335.4C188.4,335.6 189.1,335.9 189.7,336.2C191.4,337 193,338 194.5,339.2L194.6,339.3C197.8,341.8 200.4,345.2 202.5,349.1C205.9,355.5 206.3,362.2 204.6,369.1C204.5,369.6 204.4,370 204.5,370.5C204.5,370.7 204.6,370.8 204.7,371C204.4,371.2 204.3,371.6 204.2,371.9C204.1,371.5 204.1,371.2 204.2,370.9Z" style="fill:rgb(55,54,63);fill-rule:nonzero;"/>
                    <path d="M203.5,372.3C203.5,371.6 203.8,371.1 204.5,370.9C204.6,371.9 204.5,372.9 203.5,373.5C203.6,373.1 203.6,372.7 203.5,372.3Z" style="fill:rgb(55,54,63);fill-rule:nonzero;"/>
                    <path d="M722.5,354.9C721.6,366.3 722.2,377.8 722.1,389.2C722,392.9 721.9,396.7 722.5,400.4C721.6,399.3 721.6,398 721.6,396.6L721.6,359.2C721.6,357.7 721.7,356.2 722.5,354.9Z" style="fill:rgb(55,54,63);fill-rule:nonzero;"/>
                    <path d="M727.5,411.4C729.3,412.6 730.8,414.1 732,415.9C730,414.9 728.5,413.4 727.5,411.4Z" style="fill:rgb(55,54,63);fill-rule:nonzero;"/>
                    <path d="M723.5,403.9C724.4,405.7 725.5,407.4 726,409.4C724.5,407.9 723.6,406.1 723.5,403.9Z" style="fill:rgb(55,54,63);fill-rule:nonzero;"/>
                    <path d="M724,349.4C723.5,351.2 723,353.1 722.5,354.9C722.4,352.9 722.5,351 724,349.4Z" style="fill:rgb(55,54,63);fill-rule:nonzero;"/>
                    <path d="M722.5,400.4C723.2,401.5 723.4,402.7 723.5,403.9C722.4,402.9 722.5,401.7 722.5,400.4Z" style="fill:rgb(55,54,63);fill-rule:nonzero;"/>
                    <path d="M726.5,344.9C726.5,346 725.9,346.5 725,346.9C725.1,345.9 725.7,345.4 726.5,344.9Z" style="fill:rgb(55,54,63);fill-rule:nonzero;"/>
                    <path d="M728.5,341.9C728.5,342.9 727.9,343.5 727,343.9C727.1,342.9 727.7,342.3 728.5,341.9Z" style="fill:rgb(55,54,63);fill-rule:nonzero;"/>
                    <path d="M541.7,373.1C541.3,365.7 541.8,358.3 541.3,351C540.8,342.5 532.7,334.3 523.7,334.2C507.4,334 491.1,334.1 474.7,334.1C472.8,334.1 471.1,334.8 469.4,335.5C468.6,335.8 467.8,336.4 466.8,336.1C466.7,336.2 466.6,336.2 466.5,336.3C466.3,337.4 465.4,337.9 464.7,338.5C460.4,342.4 458.1,347.2 458.1,353L458.1,401.2C458.1,412.5 466.1,420.5 477.5,420.5L520.7,420.5C522,420.5 523.4,420.3 524.6,420.9L524.7,421L524.9,421C525.6,420.1 526.8,420 527.8,419.7C534.1,417.5 538.4,413.2 540.5,406.9C541.6,403.6 541.4,400 541.5,396.5C541.9,388.8 542.1,381 541.7,373.1ZM521.9,359.9C521.4,370.4 521.8,380.9 521.6,391.4C521.6,393.7 521.8,396 521.6,398.4C521.2,403.3 517.1,407.8 512.1,407.9C503.9,408.1 495.6,408.1 487.4,407.9C481.7,407.7 477.5,403.2 477.4,397.4C477.3,390.7 477.4,384.1 477.4,377.4C477.4,370.8 477.3,364.2 477.4,357.7C477.5,350.7 481.3,346.9 488.3,346.9C495.1,346.9 502,347.2 508.8,346.8C517.8,346.3 522.3,351.5 521.9,359.9Z" style="fill:rgb(55,54,63);fill-rule:nonzero;"/>
                    <path d="M507,406.9L512,406.9C510.4,407.7 508.7,407.6 507,406.9Z" style="fill:rgb(55,54,63);fill-rule:nonzero;"/>
                    <path d="M515,406.4C515.7,405.5 516.3,404.6 517.5,404.4C516.9,405.3 516.3,406.3 515,406.4Z" style="fill:rgb(55,54,63);fill-rule:nonzero;"/>
                    <path d="M512,406.9C512.9,406 514,406.5 515,406.4C514.2,407.3 513,406.8 512,406.9Z" style="fill:rgb(55,54,63);fill-rule:nonzero;"/>
                    <path d="M483,405.4C483.8,405.4 484.5,405.7 485,406.4C484.2,406.4 483.4,406.3 483,405.4Z" style="fill:rgb(55,54,63);fill-rule:nonzero;"/>
                </g>
            </g>
        </g>
        <g id="Layer_1_1_">
        </g>
        <g id="Layer_1-2">
        </g>
    </g>
</svg>
