<?xml version="1.0" encoding="UTF-8" standalone="no"?>
<!DOCTYPE svg PUBLIC "-//W3C//DTD SVG 1.1//EN" "http://www.w3.org/Graphics/SVG/1.1/DTD/svg11.dtd">
<svg width="100%" height="100%" viewBox="0 0 236 110" version="1.1" xmlns="http://www.w3.org/2000/svg" xmlns:xlink="http://www.w3.org/1999/xlink" xml:space="preserve" xmlns:serif="http://www.serif.com/" style="fill-rule:evenodd;clip-rule:evenodd;stroke-linejoin:round;stroke-miterlimit:2;">
    <g id="Artboard4" transform="matrix(1.10779,0,0,0.927204,-1451.46,0)">
        <g>
            <rect x="1310.24" y="0" width="213.037" height="118.636" style="fill:none;"/>
            <g transform="matrix(1.1944,0,0,1.42702,1301.33,-79.1825)">
                <path d="M14.486,85.99L17.501,89.067L20.578,85.99L26.24,85.99L26.24,93.866L23.901,93.866L23.101,94.79L23.901,95.651L26.24,95.651L26.24,97.497L23.163,97.497L17.501,91.836L17.501,93.62L22.609,98.789L26.24,98.851L26.24,100.512L21.87,100.512C20.394,99.159 18.978,97.62 17.501,96.266L17.501,97.928L21.44,101.866L26.24,101.928L26.24,103.589L20.701,103.589L17.563,100.512L14.548,103.589L8.763,103.589L8.763,95.651L11.163,95.651L12.025,94.79L11.163,93.866L8.763,93.866L8.763,92.143L11.963,92.143L13.317,93.497L14.179,92.574L12.517,90.913L8.763,90.913L8.763,89.067L13.071,89.067L15.348,91.282L16.271,90.42L13.686,87.774L8.763,87.774L8.763,85.99L14.486,85.99Z"/>
                <path d="M101.929,94.913L101.991,94.913L104.206,85.928L109.868,85.867L109.929,85.99L112.083,94.728L112.145,94.79C112.944,91.836 113.56,88.82 114.237,85.867L120.575,85.867L115.775,103.589L109.498,103.589L107.099,95.097L104.698,103.589L98.484,103.589L93.561,85.867L99.96,85.867L101.929,94.913Z"/>
                <path d="M158.42,92.82L158.666,94.051L158.666,103.528L152.943,103.528L152.943,95.651C152.82,95.405 152.635,95.036 152.266,94.974C151.774,94.79 151.22,95.036 150.851,95.405C150.482,95.836 150.543,96.02 150.543,97.066C150.543,99.22 150.605,103.343 150.543,103.528L145.066,103.528L145.066,91.097L150.482,91.097C150.543,91.713 150.605,91.897 150.605,92.697C151.774,91.282 153.374,90.482 155.343,90.79C156.574,90.974 157.866,91.651 158.42,92.82Z"/>
                <path d="M144.266,90.851L144.205,95.59C142.851,95.343 141.251,95.528 140.451,96.882C140.451,96.882 140.205,96.943 140.082,97.805L140.082,103.528L134.421,103.528L134.421,91.159L140.02,91.159C140.082,91.713 140.082,92.082 140.143,92.697C141.005,91.22 142.544,90.544 144.266,90.851Z"/>
                <path d="M79.776,90.851L79.776,95.59C78.361,95.343 76.761,95.528 76.023,96.882C76.023,96.882 75.777,96.943 75.653,97.805L75.653,103.528L69.992,103.528L69.992,91.159L75.592,91.159C75.592,91.713 75.653,92.082 75.653,92.697C76.515,91.22 78.115,90.544 79.776,90.851Z"/>
                <path d="M184.511,95.774C183.281,95.467 181.804,95.651 180.942,96.574C180.635,96.943 180.45,97.374 180.45,97.866L180.45,103.528L174.604,103.528L174.604,91.159L180.204,91.159C180.327,91.59 180.204,92.266 180.327,92.636C181.25,91.159 182.911,90.605 184.511,90.913L184.511,95.774Z"/>
                <path d="M172.758,93.62C173.558,94.913 173.927,96.205 173.804,98.174L165.066,98.174C165.004,98.666 165.066,99.282 165.435,99.713C165.804,100.143 166.296,100.389 166.912,100.328C167.466,100.328 167.897,99.836 168.204,99.343L173.742,99.343C173.496,101.128 171.835,102.605 170.173,103.22C167.404,104.266 163.466,104.328 161.189,102.051C159.405,100.451 158.912,97.805 159.651,95.467C160.081,93.497 161.804,91.836 163.651,91.159C166.789,90.174 170.912,90.544 172.758,93.62ZM166.112,94.297C165.497,94.543 165.127,95.282 165.127,95.897L168.081,95.897C168.081,95.282 167.897,94.851 167.527,94.482C167.158,94.174 166.543,94.174 166.112,94.297Z"/>
                <path d="M68.638,94.851C69.623,97.189 69.13,100.266 67.285,102.051C65.069,104.328 61.254,104.574 58.485,103.405C56.146,102.543 54.608,100.082 54.485,97.682C54.547,95.282 55.777,93.066 57.931,91.836C60.577,90.482 64.515,90.605 66.915,92.513C67.715,93.189 68.208,93.99 68.638,94.851ZM61.561,95.59C60.885,95.713 60.331,96.266 60.146,96.943C59.962,97.743 60.146,98.543 60.761,99.097C61.192,99.343 61.561,99.528 62.115,99.466C62.792,99.405 63.408,98.851 63.592,98.236C63.838,97.312 63.715,96.451 62.854,95.836C62.485,95.59 61.992,95.528 61.561,95.59Z"/>
                <path d="M88.638,92.574C88.822,91.836 88.699,91.897 88.761,91.282C88.761,91.282 92.576,91.282 94.545,91.22L94.545,103.405C94.607,105.189 93.191,106.666 91.653,107.343C89.068,108.512 85.745,108.512 83.161,107.528C81.807,106.912 80.392,105.558 80.084,104.082L85.684,104.082C85.869,104.389 86.238,104.758 86.607,104.881C87.468,105.066 88.268,104.697 88.699,103.959C88.945,103.405 88.945,102.789 88.822,102.112C87.222,103.466 84.576,103.712 82.73,102.666C80.515,101.435 79.838,99.036 80.023,96.574C80.084,94.543 81.192,92.513 83.161,91.651C84.822,90.851 87.345,91.097 88.638,92.574ZM87.776,95.713C87.222,95.405 86.422,95.59 85.992,96.082C85.499,96.512 85.376,97.189 85.561,97.805C85.745,98.42 86.176,98.851 86.976,98.974C87.468,99.036 87.838,98.913 88.268,98.605C88.945,97.989 88.884,97.374 88.761,96.635C88.576,96.205 88.207,95.836 87.776,95.713Z"/>
                <path d="M127.282,92.328C127.344,91.713 127.282,91.528 127.344,91.159L133.19,91.159C133.252,94.974 133.252,99.343 133.252,103.528L127.344,103.528C127.344,102.851 127.282,102.912 127.282,102.112C126.175,103.405 124.636,104.205 122.79,103.897C121.129,103.651 119.529,102.297 118.975,100.635C118.052,98.051 118.052,94.297 120.144,92.266C121.436,90.851 123.652,90.359 125.436,91.097C126.113,91.344 126.605,91.713 127.282,92.328ZM125.682,95.651C125.19,95.651 124.698,95.897 124.329,96.328C124.021,96.882 123.898,97.62 124.144,98.174C124.39,98.605 124.821,98.851 125.252,99.036C125.929,99.159 126.605,99.036 127.036,98.482C127.467,97.989 127.529,97.128 127.282,96.574C126.975,95.959 126.359,95.713 125.682,95.651Z"/>
                <path d="M47.1,85.928C49.316,85.928 51.716,86.482 52.762,88.636C53.316,89.928 53.254,91.59 52.393,92.697C51.9,93.559 51.039,93.805 50.362,94.359C51.654,94.79 53.07,95.405 53.685,96.82C54.423,98.482 53.931,100.635 52.7,101.989C51.408,103.159 49.747,103.589 47.962,103.589L38.116,103.589L38.116,85.928L47.1,85.928ZM44.516,90.051L44.516,92.513C45.501,92.389 46.854,92.882 47.346,91.774C47.408,91.467 47.531,91.282 47.346,90.79C46.854,89.682 45.501,90.174 44.516,90.051ZM44.516,96.635L44.516,99.466C45.562,99.343 47.1,99.897 47.408,98.543C47.531,98.112 47.531,97.559 47.285,97.251C46.731,96.328 45.501,96.697 44.516,96.635Z"/>
            </g>
        </g>
    </g>
</svg>
