<?xml version="1.0" encoding="UTF-8" standalone="no"?>
<!DOCTYPE svg PUBLIC "-//W3C//DTD SVG 1.1//EN" "http://www.w3.org/Graphics/SVG/1.1/DTD/svg11.dtd">
<svg width="100%" height="100%" viewBox="0 0 236 110" version="1.1" xmlns="http://www.w3.org/2000/svg" xmlns:xlink="http://www.w3.org/1999/xlink" xml:space="preserve" xmlns:serif="http://www.serif.com/" style="fill-rule:evenodd;clip-rule:evenodd;stroke-linejoin:round;stroke-miterlimit:2;">
    <g id="Artboard4" transform="matrix(1.10779,0,0,0.927204,-1451.46,0)">
        <g>
            <rect x="1310.24" y="0" width="213.037" height="118.636" style="fill:none;"/>
            <g transform="matrix(0.947636,0,0,1.1322,1325.18,-50.5679)">
                <path d="M74.522,104.088L83.98,104.088C84.309,104.088 84.556,104.417 84.474,104.745L84.062,107.048C83.98,107.377 83.651,107.624 83.322,107.624L67.778,107.624C67.531,107.624 67.285,107.46 67.285,107.048L70.985,87.31C71.068,86.898 71.397,86.734 71.726,86.734L77.071,86.734C77.401,86.734 77.73,87.063 77.647,87.392L74.522,104.088Z"/>
                <path d="M96.235,98.577L95.165,104.088L105.117,104.088C105.446,104.088 105.693,104.417 105.61,104.745L105.199,107.048C105.117,107.377 104.788,107.707 104.459,107.624L88.504,107.624C88.257,107.624 87.928,107.46 88.01,107.048L91.629,87.392C91.711,87.063 91.958,86.734 92.451,86.734L108.242,86.734C108.571,86.734 108.736,87.063 108.653,87.31L108.242,89.53C108.242,89.777 107.995,90.188 107.584,90.188L97.715,90.188L96.81,95.205L105.281,95.205C105.528,95.205 105.857,95.37 105.775,95.781L105.363,98.002C105.363,98.248 105.117,98.577 104.623,98.577L96.235,98.577Z"/>
                <path d="M124.033,102.443L116.384,102.443L113.588,107.131C113.424,107.46 113.012,107.707 112.601,107.624L109.229,107.624C108.818,107.707 108.736,107.295 108.818,107.048L120.825,87.31C121.154,86.816 121.319,86.734 121.977,86.734L125.596,86.734C125.925,86.734 126.253,86.981 126.336,87.31L131.517,107.048C131.517,107.295 131.435,107.624 131.024,107.624L125.925,107.624C125.513,107.624 125.184,107.295 125.184,107.048L124.033,102.443ZM123.375,99.729L121.812,93.149L117.947,99.729L123.375,99.729Z"/>
                <path d="M138.755,87.639C138.837,87.063 139.166,86.898 139.577,86.816C140.646,86.734 144.183,86.652 146.486,86.652C148.953,86.652 157.26,86.652 156.19,93.149C155.532,97.426 152.49,98.084 150.269,98.577L154.957,107.131C155.039,107.295 155.039,107.624 154.545,107.624L149.364,107.624C148.953,107.624 148.542,107.46 148.377,107.131L144.759,99.564C144.594,99.317 144.429,99.235 144.265,99.235L143.114,99.235L141.716,107.048C141.633,107.377 141.386,107.624 140.975,107.624L135.711,107.624C135.3,107.624 135.136,107.377 135.218,107.048L138.755,87.639ZM143.607,96.932C145.005,97.014 149.446,97.097 150.104,93.314C150.762,89.695 147.637,89.448 145.91,89.448C145.745,89.448 145.416,89.448 144.923,89.53L143.607,96.932Z"/>
                <path d="M69.258,113.792C67.942,113.792 66.791,114.861 66.462,116.506C66.133,118.398 66.955,119.714 68.518,119.714C69.094,119.714 69.587,119.549 70.163,119.303C70.328,119.138 70.41,119.138 70.574,119.138C70.657,119.138 70.739,119.22 70.739,119.385C70.657,119.714 69.587,120.454 68.19,120.454C65.722,120.454 64.899,118.727 65.229,116.753C65.557,115.108 66.874,113.134 69.423,113.134C71.068,113.134 71.808,114.039 71.726,114.533C71.726,114.861 71.397,115.026 71.15,115.026C70.985,115.026 70.821,114.944 70.739,114.779C70.574,114.45 70.246,113.792 69.258,113.792Z"/>
                <path d="M79.786,120.454C77.812,120.454 76.578,118.974 76.989,116.835C77.318,115.026 78.716,113.134 81.184,113.134C83.404,113.134 84.227,114.861 84.062,116.589C83.733,118.727 81.924,120.454 79.786,120.454ZM81.019,113.792C80.69,113.792 80.279,113.875 79.95,114.039C78.881,114.533 78.305,115.602 78.141,116.753C78.059,117.165 78.059,117.493 78.059,117.74C78.059,119.056 78.963,119.796 79.95,119.796C80.526,119.796 81.348,119.467 81.924,118.809C82.582,118.069 82.747,117.165 82.911,116.589C83.24,114.286 81.842,113.792 81.019,113.792Z"/>
                <path d="M90.889,113.546C90.971,113.381 90.971,113.381 91.136,113.299L92.862,113.299C93.438,113.299 94.343,113.299 94.836,113.71C95.001,113.792 95.494,114.286 95.33,115.191C95.165,116.26 94.343,116.835 93.027,117.082L94.672,120.125C94.754,120.208 94.672,120.29 94.507,120.29L93.685,120.29C93.52,120.29 93.52,120.29 93.438,120.125L92.122,117.493C92.04,117.329 91.876,117.165 91.547,117.165L91.3,117.165L90.724,120.043C90.724,120.208 90.642,120.29 90.477,120.29L89.819,120.29C89.737,120.29 89.655,120.29 89.655,120.125L90.889,113.546ZM91.382,116.671L92.287,116.671C93.356,116.589 94.014,116.095 94.179,115.273C94.425,113.792 93.109,113.792 92.616,113.792C92.287,113.792 92.122,113.792 91.876,113.875L91.382,116.671Z"/>
                <path d="M124.855,113.546C124.855,113.381 124.855,113.381 125.02,113.299L126.747,113.299C127.323,113.299 128.227,113.299 128.803,113.71C128.886,113.792 129.379,114.286 129.214,115.191C129.05,116.26 128.227,116.835 126.912,117.082L128.556,120.125C128.639,120.208 128.556,120.29 128.474,120.29L127.652,120.29C127.487,120.29 127.405,120.29 127.323,120.125L126.007,117.493C125.925,117.329 125.76,117.165 125.513,117.165L125.184,117.165L124.691,120.043C124.608,120.208 124.608,120.29 124.444,120.29L123.786,120.29C123.622,120.29 123.54,120.29 123.622,120.125L124.855,113.546ZM125.267,116.671L126.171,116.671C127.24,116.589 127.899,116.095 128.063,115.273C128.31,113.792 126.994,113.792 126.5,113.792C126.171,113.792 126.007,113.792 125.842,113.875L125.267,116.671Z"/>
                <path d="M102.402,113.463L102.402,113.381C102.485,113.299 103.637,113.299 104.377,113.299C104.952,113.299 105.939,113.299 106.515,113.792C106.68,114.039 107.009,114.45 106.844,115.273C106.844,115.52 106.68,116.095 106.021,116.589C105.363,117.082 104.459,117.329 103.39,117.329L102.732,117.329L102.238,120.125C102.156,120.29 102.156,120.29 101.992,120.29L101.333,120.29C101.169,120.29 101.087,120.29 101.169,120.125L102.402,113.463ZM102.814,116.753L103.39,116.753C104.13,116.753 105.528,116.671 105.775,115.273C106.021,113.792 104.541,113.792 104.048,113.792C103.719,113.792 103.554,113.875 103.39,113.875L102.814,116.753Z"/>
                <path d="M114.081,120.454C112.108,120.454 110.792,118.974 111.203,116.835C111.532,115.026 113.012,113.134 115.479,113.134C117.7,113.134 118.522,114.861 118.276,116.589C118.029,118.727 116.22,120.454 114.081,120.454ZM115.315,113.792C114.904,113.792 114.575,113.875 114.246,114.039C113.095,114.533 112.601,115.602 112.354,116.753C112.272,117.165 112.272,117.493 112.272,117.74C112.354,119.056 113.177,119.796 114.164,119.796C114.822,119.796 115.562,119.467 116.22,118.809C116.878,118.069 117.042,117.165 117.124,116.589C117.536,114.286 116.138,113.792 115.315,113.792Z"/>
                <path d="M138.59,117.904L135.958,117.904L134.56,120.125C134.478,120.29 134.478,120.29 134.313,120.29L133.738,120.29L133.656,120.208C133.738,120.125 137.85,113.463 137.85,113.463C137.932,113.381 137.932,113.299 138.097,113.299L138.508,113.299C138.59,113.299 138.59,113.381 138.673,113.463C138.673,113.463 140.317,120.125 140.317,120.208C140.317,120.208 140.317,120.29 140.235,120.29L139.33,120.29C139.248,120.29 139.166,120.29 139.166,120.208L138.59,117.904ZM138.508,117.329L137.932,114.615L136.287,117.329L138.508,117.329Z"/>
                <path d="M148.87,113.957L147.719,120.125C147.637,120.29 147.637,120.29 147.555,120.29L146.732,120.29C146.65,120.29 146.568,120.29 146.65,120.125L147.802,113.957L145.827,113.957C145.663,113.957 145.663,113.875 145.663,113.792C145.745,113.381 145.745,113.299 145.992,113.299L150.927,113.299C151.091,113.299 151.091,113.381 151.009,113.792C151.009,113.875 150.927,113.957 150.762,113.957L148.87,113.957Z"/>
                <path d="M157.013,120.125C157.013,120.208 156.93,120.29 156.848,120.29L156.026,120.29C155.944,120.29 155.861,120.208 155.944,120.125L157.177,113.463C157.177,113.299 157.26,113.299 157.424,113.299L158.082,113.299C158.246,113.299 158.246,113.381 158.246,113.463L157.013,120.125Z"/>
                <path d="M167.129,120.454C165.073,120.454 163.839,118.974 164.25,116.835C164.58,115.026 165.978,113.134 168.445,113.134C170.665,113.134 171.57,114.861 171.323,116.589C170.994,118.727 169.185,120.454 167.129,120.454ZM168.28,113.792C167.951,113.792 167.54,113.875 167.211,114.039C166.142,114.533 165.566,115.602 165.402,116.753C165.319,117.165 165.319,117.493 165.319,117.74C165.402,119.056 166.224,119.796 167.211,119.796C167.869,119.796 168.609,119.467 169.185,118.809C169.843,118.069 170.089,117.165 170.172,116.589C170.501,114.286 169.102,113.792 168.28,113.792Z"/>
                <path d="M182.179,118.645L183.084,113.463C183.166,113.381 183.166,113.299 183.249,113.299L183.824,113.299C183.989,113.299 183.989,113.381 183.989,113.463L182.673,120.208C182.673,120.29 182.673,120.29 182.591,120.29L182.015,120.29C182.015,120.29 181.933,120.29 181.933,120.208L178.479,114.697L177.492,120.208C177.409,120.29 177.409,120.29 177.327,120.29L176.669,120.29C176.587,120.29 176.587,120.29 176.587,120.125L177.82,113.463C177.903,113.381 177.903,113.299 178.067,113.299L178.807,113.299C178.889,113.299 178.889,113.381 178.889,113.463L182.179,118.645Z"/>
                <path d="M37.101,73.657C24.271,73.657 11.934,84.102 9.632,97.014C7.411,109.845 15.964,120.372 28.877,120.372C35.456,120.372 41.789,117.658 46.806,113.299L25.093,113.299C24.682,113.381 24.271,112.97 24.353,112.394L30.275,80.401C30.44,79.826 30.933,79.414 31.426,79.497L40.144,79.497C40.72,79.414 41.213,79.99 41.049,80.566L35.95,107.624L51.905,107.624C54.126,104.417 55.689,100.798 56.346,97.014C58.649,84.102 50.013,73.657 37.101,73.657Z"/>
            </g>
        </g>
    </g>
</svg>
