<?xml version="1.0" encoding="UTF-8" standalone="no"?>
<!DOCTYPE svg PUBLIC "-//W3C//DTD SVG 1.1//EN" "http://www.w3.org/Graphics/SVG/1.1/DTD/svg11.dtd">
<svg width="100%" height="100%" viewBox="0 0 236 110" version="1.1" xmlns="http://www.w3.org/2000/svg" xmlns:xlink="http://www.w3.org/1999/xlink" xml:space="preserve" xmlns:serif="http://www.serif.com/" style="fill-rule:evenodd;clip-rule:evenodd;stroke-linejoin:round;stroke-miterlimit:2;">
    <g transform="matrix(1,0,0,1,-1310,-2.86885)">
        <g id="Artboard4" transform="matrix(1.10779,0,0,0.927204,-141.46,2.86885)">
            <rect x="1310.24" y="0" width="213.037" height="118.636" style="fill:none;"/>
            <g transform="matrix(1.0546,0,0,1.25999,1315.11,-62.4256)">
                <path d="M8.503,77.52L8.503,115.768L18.603,115.768L18.603,86.618L26.781,86.618L26.781,115.768L36.875,115.768L36.875,86.618L45.054,86.618L45.054,115.768L55.153,115.768L55.153,77.52L8.503,77.52Z" style="fill:rgb(67,101,173);"/>
                <path d="M88.981,77.52L88.981,77.477L70.359,77.477L70.359,77.52L63.853,77.52L63.853,115.768L73.945,115.768L73.945,106.891L82.125,106.891L82.125,115.768L92.223,115.768L92.223,77.52L88.981,77.52ZM73.945,86.618L82.125,86.618L82.125,97.755L73.945,97.755L73.945,86.618Z" style="fill:rgb(67,101,173);"/>
                <path d="M119.025,77.52L119.025,92.053L110.845,92.053L110.845,77.52L100.752,77.52L100.752,115.768L110.845,115.768L110.845,101.19L119.025,101.19L119.025,115.768L129.123,115.768L129.123,77.52L119.025,77.52Z" style="fill:rgb(67,101,173);"/>
                <path d="M158.316,106.61L147.222,106.61L147.222,77.52L137.124,77.52L137.124,115.768L158.316,115.747L158.316,106.61Z" style="fill:rgb(67,101,173);"/>
                <path d="M184.251,86.661L184.251,77.524L162.366,77.52L162.366,115.768L184.251,115.726L184.251,106.589L172.458,106.589L172.458,101.282L184.251,101.282L184.251,92.14L172.458,92.14L172.458,86.661L184.251,86.661Z" style="fill:rgb(67,101,173);"/>
            </g>
        </g>
        <g id="Layer_1_1_">
        </g>
        <g id="Layer_1-2">
        </g>
    </g>
</svg>
