<?xml version="1.0" encoding="UTF-8" standalone="no"?>
<!DOCTYPE svg PUBLIC "-//W3C//DTD SVG 1.1//EN" "http://www.w3.org/Graphics/SVG/1.1/DTD/svg11.dtd">
<svg width="100%" height="100%" viewBox="0 0 236 110" version="1.1" xmlns="http://www.w3.org/2000/svg" xmlns:xlink="http://www.w3.org/1999/xlink" xml:space="preserve" xmlns:serif="http://www.serif.com/" style="fill-rule:evenodd;clip-rule:evenodd;stroke-linejoin:round;stroke-miterlimit:2;">
    <g id="Artboard4" transform="matrix(1.10779,0,0,0.927204,-1451.46,0)">
        <g>
            <rect x="1310.24" y="0" width="213.037" height="118.636" style="fill:none;"/>
            <g id="Layer_1_1_" transform="matrix(0.0394416,0,0,0.0471232,1379.19,21.7651)">
                <g id="Nissan_Badge_1_">
                    <path d="M1110.05,860.597C1108.54,860.975 1102.49,860.975 1099.85,860.975L904.824,860.975L904.824,906.329L1103.25,906.329C1104.76,906.329 1116.48,906.329 1118.75,905.951C1159.19,902.171 1177.71,868.534 1177.71,839.053C1177.71,808.817 1158.43,776.313 1121.77,772.912C1114.59,772.156 1108.54,772.156 1105.89,772.156L976.257,772.156C970.588,772.156 964.163,771.778 961.895,771.022C951.69,768.376 947.911,759.305 947.911,751.746C947.911,744.943 951.69,735.872 962.273,732.849C965.297,732.093 968.698,731.715 975.879,731.715L1162.96,731.715L1162.96,687.117L972.856,687.117C964.919,687.117 958.871,687.495 953.958,688.25C921.454,692.786 898.777,718.865 898.777,752.124C898.777,779.337 915.785,811.085 953.202,816.376C960.005,817.132 969.454,817.132 973.612,817.132L1099.85,817.132C1102.12,817.132 1107.79,817.132 1108.92,817.51C1123.28,819.4 1128.19,829.982 1128.19,839.431C1128.19,848.502 1122.53,858.329 1110.05,860.597Z" style="fill-rule:nonzero;"/>
                    <path d="M740.415,860.597C738.903,860.975 732.856,860.975 730.588,860.975L535.187,860.975L535.187,906.329L733.612,906.329C735.124,906.329 746.84,906.329 749.108,905.951C789.549,902.171 808.069,868.534 808.069,839.053C808.069,808.817 788.793,776.313 752.132,772.912C744.951,772.156 738.903,772.156 736.258,772.156L606.62,772.156C600.951,772.156 594.526,771.778 592.258,771.022C582.053,768.376 578.274,759.305 578.274,751.746C578.274,744.943 582.053,735.872 592.636,732.849C595.66,732.093 599.061,731.715 606.242,731.715L793.328,731.715L793.328,687.117L603.219,687.117C595.282,687.117 589.234,687.495 584.321,688.25C551.817,692.786 529.14,718.865 529.14,752.124C529.14,779.337 546.148,811.085 583.565,816.376C590.368,817.132 599.817,817.132 603.975,817.132L730.211,817.132C732.478,817.132 738.148,817.132 739.281,817.51C753.644,819.4 758.557,829.982 758.557,839.431C758.557,848.502 753.266,858.329 740.415,860.597Z" style="fill-rule:nonzero;"/>
                    <rect x="384.385" y="685.605" width="49.134" height="221.858"/>
                    <path d="M275.912,907.463L275.912,685.605L226.779,685.605L226.779,851.148L63.125,685.605L0.007,685.605L0.007,907.463L49.141,907.463L49.141,741.164L213.928,907.463L275.912,907.463Z" style="fill-rule:nonzero;"/>
                    <path d="M1856.13,685.605L1856.13,851.148L1692.48,685.605L1629.36,685.605L1629.36,907.463L1678.49,907.463L1678.49,741.164L1842.9,907.463L1904.88,907.463L1904.88,685.605L1856.13,685.605Z" style="fill-rule:nonzero;"/>
                    <path d="M1373.49,685.605L1235.15,907.463L1294.87,907.463L1319.44,867.778L1480.82,867.778L1505.39,907.463L1564.73,907.463L1426.4,685.605L1373.49,685.605ZM1455.5,825.825L1344.76,825.825L1400.32,736.628L1455.5,825.825Z" style="fill-rule:nonzero;"/>
                    <path d="M273.267,559.747C372.29,270.614 645.171,76.346 952.824,76.346C1260.48,76.346 1533.74,270.614 1632.38,559.747L1633.14,562.015L1849.7,562.015L1849.7,535.936L1759.75,525.353C1704.19,518.928 1692.48,494.361 1677.36,463.369L1673.58,455.81C1543.56,179.149 1260.48,-0 952.824,-0C644.793,-0 362.085,179.149 232.07,456.566L228.29,464.125C213.172,495.117 201.456,519.684 145.897,526.109L55.944,536.692L55.944,562.77L272.133,562.77L273.267,559.747Z" style="fill-rule:nonzero;"/>
                    <path d="M1633.14,1031.43L1632.38,1033.7C1533.36,1322.83 1260.48,1516.72 952.824,1516.72C645.171,1516.72 371.912,1322.45 273.267,1033.32L272.511,1031.05L56.322,1031.05L56.322,1057.13L146.275,1067.71C201.834,1074.14 213.55,1098.71 228.668,1129.7L232.448,1137.26C362.463,1414.67 645.549,1593.82 953.202,1593.82C1260.86,1593.82 1543.94,1414.67 1673.96,1137.63L1677.74,1130.08C1692.85,1099.08 1704.57,1074.52 1760.13,1068.09L1850.08,1057.51L1850.08,1031.43L1633.14,1031.43Z" style="fill-rule:nonzero;"/>
                </g>
            </g>
        </g>
    </g>
</svg>
