<?xml version="1.0" encoding="UTF-8" standalone="no"?>
<!DOCTYPE svg PUBLIC "-//W3C//DTD SVG 1.1//EN" "http://www.w3.org/Graphics/SVG/1.1/DTD/svg11.dtd">
<svg width="100%" height="100%" viewBox="0 0 236 110" version="1.1" xmlns="http://www.w3.org/2000/svg" xmlns:xlink="http://www.w3.org/1999/xlink" xml:space="preserve" xmlns:serif="http://www.serif.com/" style="fill-rule:evenodd;clip-rule:evenodd;stroke-linejoin:round;stroke-miterlimit:2;">
    <g id="Artboard4" transform="matrix(1.10779,0,0,0.927204,-1451.46,0)">
        <g>
            <rect x="1310.24" y="0" width="213.037" height="118.636" style="fill:none;"/>
            <g transform="matrix(1.1944,0,0,1.42702,1301.33,-79.1822)">
                <path d="M29.164,83.617C40.474,83.617 49.637,88.843 49.637,95.357C49.637,101.799 40.474,107.096 29.164,107.096C17.926,107.096 8.763,101.799 8.763,95.357C8.763,88.843 17.926,83.617 29.164,83.617Z"/>
                <path d="M25.585,93.71L13.488,95.429L24.44,94.14C25.156,94.068 25.872,94.068 26.444,94.283L27.661,94.784L25.585,93.71Z" style="fill:white;"/>
                <path d="M25.8,97.504L23.295,100.94L25.585,98.005C25.8,97.719 26.086,97.504 26.301,97.361L27.59,96.574L25.8,97.504Z" style="fill:white;"/>
                <path d="M27.948,99.58C27.876,99.151 27.876,98.721 28.019,98.506L28.663,97.075L27.446,98.936L29.523,105.522L27.948,99.58Z" style="fill:white;"/>
                <path d="M33.245,97.504L31.455,96.574L32.457,97.218C32.815,97.433 33.102,97.576 33.531,98.149L35.75,100.94L33.245,97.504Z" style="fill:white;"/>
                <path d="M33.531,93.71L31.455,94.784L32.887,94.212C33.316,93.997 33.817,94.068 34.533,94.14L45.414,95.429L33.531,93.71Z" style="fill:white;"/>
                <path d="M32.242,91.992L31.026,93.639L32.171,92.279C32.314,92.136 32.386,92.064 32.6,91.921L35.75,89.845L32.242,91.992Z" style="fill:white;"/>
                <path d="M27.948,91.348L29.523,85.407L27.446,91.921L28.663,93.639L28.019,92.422C27.948,92.064 27.876,91.635 27.948,91.348Z" style="fill:white;"/>
                <path d="M31.598,91.921L29.523,85.335L29.523,94.927L31.598,91.921Z" style="fill:white;"/>
                <path d="M33.245,93.352L35.75,89.845L30.381,94.784L33.245,93.352Z" style="fill:white;"/>
                <path d="M45.485,95.429L30.095,95.429L33.388,97.075L45.485,95.429Z" style="fill:white;"/>
                <path d="M29.021,95.429L25.657,97.075L13.56,95.429L29.021,95.429Z" style="fill:white;"/>
                <path d="M23.295,89.845L25.8,93.352L28.735,94.784L23.295,89.845Z" style="fill:white;"/>
                <path d="M23.295,100.94L26.874,98.864L28.735,96.073L23.295,100.94Z" style="fill:white;"/>
                <path d="M35.75,100.94L30.238,96.073L32.171,98.864L35.75,100.94Z" style="fill:white;"/>
                <path d="M29.523,95.929L31.598,98.936L29.523,105.522L29.523,95.929Z" style="fill:white;"/>
                <path d="M26.874,91.921L23.295,89.845L26.23,91.706C26.731,91.992 27.017,92.35 27.017,92.35L28.019,93.639L26.874,91.921Z" style="fill:white;"/>
                <path d="M129.171,99.812L129.171,95.828L120.118,95.828L120.118,99.812L115.471,99.812L115.471,89.25C115.471,86.776 117.463,84.724 119.997,84.724L129.412,84.724C131.886,84.724 133.938,86.776 133.938,89.25L133.938,99.812L129.171,99.812ZM120.118,92.087L129.171,92.087L129.171,90.276C129.171,89.25 128.326,88.405 127.36,88.405L121.929,88.405C120.963,88.405 120.118,89.25 120.118,90.276L120.118,92.087Z"/>
                <path d="M149.327,99.812L149.327,96.975C149.327,96.311 148.845,95.828 148.241,95.828L140.275,95.828L140.275,99.812L135.628,99.812L135.628,84.724L150.293,84.724C152.405,84.724 154.035,86.414 154.035,88.466L154.035,91.725C154.035,92.992 153.069,94.018 151.802,94.018C153.069,94.018 154.035,95.044 154.035,96.251L154.035,99.812L149.327,99.812ZM140.275,92.087L147.396,92.087C148.482,92.087 149.267,91.302 149.267,90.276C149.267,89.25 148.482,88.405 147.396,88.405L140.275,88.405L140.275,92.087Z"/>
                <rect x="155.724" y="84.724" width="4.708" height="15.088"/>
                <path d="M174.192,93.958L174.795,93.958C175.338,93.958 175.821,94.44 175.821,94.983C175.821,95.587 175.338,96.07 174.795,96.07L162.122,96.07L162.122,99.812L176.847,99.812C178.899,99.812 180.588,98.122 180.588,96.01L180.588,94.26C180.588,92.208 178.899,90.518 176.847,90.518L167.855,90.518C167.312,90.518 166.829,90.035 166.829,89.432C166.829,88.888 167.312,88.405 167.855,88.405L179.744,88.405L179.744,84.724L165.924,84.724C163.811,84.724 162.122,86.414 162.122,88.466L162.122,90.216C162.122,92.268 163.811,93.958 165.924,93.958L174.614,93.958L174.192,93.958Z"/>
                <path d="M121.868,108.562L121.868,105.122L123.558,105.122L123.558,108.925C123.558,109.769 122.834,110.494 121.929,110.494L118.549,110.494C117.704,110.494 116.98,109.769 116.98,108.925L116.98,105.122L118.67,105.122L118.67,108.562C118.67,108.925 118.972,109.166 119.273,109.166L121.204,109.166C121.567,109.166 121.868,108.925 121.868,108.562Z"/>
                <path d="M142.749,110.494L142.749,109.528C142.749,109.287 142.568,109.105 142.327,109.105L139.49,109.105L139.49,110.494L137.801,110.494L137.801,105.122L143.051,105.122C143.836,105.122 144.439,105.726 144.439,106.45L144.439,107.657C144.439,108.08 144.077,108.442 143.594,108.442C144.077,108.442 144.439,108.804 144.439,109.287L144.439,110.494L142.749,110.494ZM139.49,107.778L142.025,107.778C142.387,107.778 142.689,107.476 142.689,107.114C142.689,106.752 142.387,106.45 142.025,106.45L139.49,106.45L139.49,107.778Z"/>
                <path d="M180.77,86.233C180.77,85.207 181.615,84.362 182.64,84.362C183.666,84.362 184.511,85.207 184.511,86.233C184.511,87.259 183.666,88.043 182.64,88.043C181.615,88.043 180.77,87.259 180.77,86.233ZM184.209,86.233C184.209,85.328 183.546,84.664 182.64,84.664C181.795,84.664 181.071,85.328 181.071,86.233C181.071,87.078 181.795,87.742 182.64,87.742C183.546,87.742 184.209,87.078 184.209,86.233ZM183.546,87.259L183.184,87.259L182.58,86.293L182.218,86.293L182.218,87.259L181.916,87.259L181.916,85.147L182.822,85.147C183.002,85.147 183.184,85.147 183.304,85.267C183.485,85.388 183.546,85.569 183.546,85.75C183.546,86.173 183.244,86.293 182.942,86.293L183.546,87.259ZM182.58,86.052C182.822,86.052 183.244,86.112 183.244,85.69C183.244,85.448 183.002,85.388 182.761,85.388L182.218,85.388L182.218,86.052L182.58,86.052Z"/>
                <path d="M148.965,109.166L148.965,108.442L153.612,108.442L153.612,107.114L148.965,107.114L148.965,106.45L153.612,106.45L153.612,105.122L147.275,105.122L147.275,109.709C147.275,110.132 147.638,110.494 148.06,110.494L153.612,110.494L153.612,109.166L148.965,109.166Z"/>
                <path d="M178.778,106.45L175.399,106.45C175.037,106.45 174.735,106.752 174.735,107.114L174.735,108.623C174.735,108.985 175.037,109.166 175.399,109.166L178.778,109.166L178.778,110.494L175.037,110.494C174.131,110.494 173.407,109.769 173.407,108.864L173.407,106.752C173.407,105.847 174.131,105.122 175.037,105.122L178.778,105.122L178.778,106.45Z"/>
                <rect x="144.982" y="105.122" width="1.69" height="5.372"/>
                <path d="M107.445,110.494L107.445,107.114C107.445,106.752 107.143,106.45 106.781,106.45L104.186,106.45L104.186,110.494L102.556,110.494L102.556,105.122L107.505,105.122C108.41,105.122 109.134,105.847 109.134,106.752L109.134,110.494L107.445,110.494Z"/>
                <path d="M114.747,110.494C115.592,110.494 116.316,109.769 116.316,108.864L116.316,106.752C116.316,105.847 115.592,105.122 114.747,105.122L109.859,105.122L109.859,110.494L114.747,110.494ZM111.488,106.45L114.204,106.45C114.566,106.45 114.868,106.631 114.868,106.993L114.868,108.502C114.868,108.864 114.566,109.166 114.204,109.166L111.488,109.166L111.488,106.45Z"/>
                <path d="M128.386,108.442L128.567,108.442C128.809,108.442 128.929,108.623 128.929,108.804C128.929,108.985 128.809,109.166 128.567,109.166L124.041,109.166L124.041,110.494L129.291,110.494C130.076,110.494 130.679,109.89 130.679,109.166L130.679,108.562C130.679,107.778 130.076,107.174 129.291,107.174L126.093,107.174C125.912,107.174 125.731,107.054 125.731,106.812C125.731,106.631 125.912,106.45 126.093,106.45L130.317,106.45L130.317,105.122L125.429,105.122C124.644,105.122 124.041,105.726 124.041,106.45L124.041,107.114C124.041,107.838 124.644,108.442 125.429,108.442L128.507,108.442L128.386,108.442Z" style="fill:rgb(9,86,152);"/>
                <path d="M158.682,108.442L158.863,108.442C159.044,108.442 159.225,108.623 159.225,108.804C159.225,108.985 159.044,109.166 158.863,109.166L154.337,109.166L154.337,110.494L159.587,110.494C160.311,110.494 160.915,109.89 160.915,109.166L160.915,108.562C160.915,107.778 160.311,107.174 159.587,107.174L156.388,107.174C156.207,107.174 156.026,107.054 156.026,106.812C156.026,106.631 156.207,106.45 156.388,106.45L160.613,106.45L160.613,105.122L155.664,105.122C154.94,105.122 154.337,105.726 154.337,106.45L154.337,107.114C154.337,107.838 154.94,108.442 155.664,108.442L158.802,108.442L158.682,108.442Z"/>
                <rect x="179.321" y="109.166" width="1.328" height="1.328"/>
                <rect x="57.837" y="101.682" width="122.751" height="0.845"/>
                <rect x="164.113" y="105.062" width="1.69" height="5.371"/>
                <path d="M171.295,110.433L171.295,106.993C171.295,106.631 170.993,106.39 170.631,106.39L168.036,106.39L168.036,110.433L166.406,110.433L166.406,105.062L171.355,105.062C172.26,105.062 172.985,105.786 172.985,106.631L172.985,110.433L171.295,110.433Z"/>
                <path d="M137.197,105.122L130.86,105.122L130.86,106.45L133.214,106.45L133.214,110.494L134.904,110.494L134.904,106.45L137.197,106.45L137.197,105.122Z"/>
                <path d="M113.782,96.01L105.996,96.01C105.212,96.01 104.488,95.346 104.488,94.501L104.488,84.724L99.84,84.724L99.84,97.518C99.84,98.786 100.867,99.812 102.074,99.812L113.782,99.812L113.782,96.01Z"/>
                <rect x="99.78" y="105.122" width="1.69" height="5.372"/>
                <path d="M121.868,108.562L121.868,105.122L123.558,105.122L123.558,108.925C123.558,109.769 122.834,110.494 121.929,110.494L118.549,110.494C117.704,110.494 116.98,109.769 116.98,108.925L116.98,105.122L118.67,105.122L118.67,108.562C118.67,108.925 118.972,109.166 119.273,109.166L121.204,109.166C121.567,109.166 121.868,108.925 121.868,108.562Z"/>
                <path d="M142.749,110.494L142.749,109.528C142.749,109.287 142.568,109.105 142.327,109.105L139.49,109.105L139.49,110.494L137.801,110.494L137.801,105.122L143.051,105.122C143.836,105.122 144.439,105.726 144.439,106.45L144.439,107.657C144.439,108.08 144.077,108.442 143.594,108.442C144.077,108.442 144.439,108.804 144.439,109.287L144.439,110.494L142.749,110.494ZM139.49,107.778L142.025,107.778C142.387,107.778 142.689,107.476 142.689,107.114C142.689,106.752 142.387,106.45 142.025,106.45L139.49,106.45L139.49,107.778Z"/>
                <path d="M148.965,109.166L148.965,108.442L153.612,108.442L153.612,107.114L148.965,107.114L148.965,106.45L153.612,106.45L153.612,105.122L147.275,105.122L147.275,109.709C147.275,110.132 147.638,110.494 148.06,110.494L153.612,110.494L153.612,109.166L148.965,109.166Z"/>
                <path d="M178.778,106.45L175.399,106.45C175.037,106.45 174.735,106.752 174.735,107.114L174.735,108.623C174.735,108.985 175.037,109.166 175.399,109.166L178.778,109.166L178.778,110.494L175.037,110.494C174.131,110.494 173.407,109.769 173.407,108.864L173.407,106.752C173.407,105.847 174.131,105.122 175.037,105.122L178.778,105.122L178.778,106.45Z"/>
                <rect x="144.982" y="105.122" width="1.69" height="5.372"/>
                <path d="M114.747,110.494C115.592,110.494 116.316,109.769 116.316,108.864L116.316,106.752C116.316,105.847 115.592,105.122 114.747,105.122L109.859,105.122L109.859,110.494L114.747,110.494ZM111.488,106.45L114.204,106.45C114.566,106.45 114.868,106.631 114.868,106.993L114.868,108.502C114.868,108.864 114.566,109.166 114.204,109.166L111.488,109.166L111.488,106.45Z"/>
                <path d="M128.386,108.442L128.567,108.442C128.809,108.442 128.929,108.623 128.929,108.804C128.929,108.985 128.809,109.166 128.567,109.166L124.041,109.166L124.041,110.494L129.291,110.494C130.076,110.494 130.679,109.89 130.679,109.166L130.679,108.562C130.679,107.778 130.076,107.174 129.291,107.174L126.093,107.174C125.912,107.174 125.731,107.054 125.731,106.812C125.731,106.631 125.912,106.45 126.093,106.45L130.317,106.45L130.317,105.122L125.429,105.122C124.644,105.122 124.041,105.726 124.041,106.45L124.041,107.114C124.041,107.838 124.644,108.442 125.429,108.442L128.507,108.442L128.386,108.442Z"/>
                <rect x="179.321" y="109.166" width="1.328" height="1.328"/>
                <rect x="164.113" y="105.062" width="1.69" height="5.371"/>
                <path d="M171.295,110.433L171.295,106.993C171.295,106.631 170.993,106.39 170.631,106.39L168.036,106.39L168.036,110.433L166.406,110.433L166.406,105.062L171.355,105.062C172.26,105.062 172.985,105.786 172.985,106.631L172.985,110.433L171.295,110.433Z"/>
                <path d="M137.197,105.122L130.86,105.122L130.86,106.45L133.214,106.45L133.214,110.494L134.904,110.494L134.904,106.45L137.197,106.45L137.197,105.122Z"/>
                <path d="M62.544,88.405L70.45,88.405C71.114,88.405 71.597,88.949 71.597,89.552L71.597,90.94C71.597,91.544 71.114,92.087 70.45,92.087L62.544,92.087L62.544,88.405ZM72.562,84.724L57.837,84.724L57.837,99.812L62.544,99.812L62.544,95.768L72.562,95.768C74.614,95.768 76.304,94.139 76.304,92.026L76.304,88.466C76.304,86.414 74.614,84.724 72.562,84.724Z"/>
                <path d="M82.52,99.812C79.985,99.812 77.994,97.76 77.994,95.285L77.994,89.25C77.994,86.776 79.985,84.724 82.52,84.724L93.444,84.724C95.918,84.724 97.97,86.776 97.97,89.25L97.97,95.285C97.97,97.76 95.918,99.812 93.444,99.812L82.52,99.812ZM87.952,85.509L86.805,90.216L84.391,88.647L85.719,91.121L79.141,92.268L85.719,93.354L84.391,95.828C84.391,95.768 86.805,94.32 86.805,94.32L87.952,99.027L89.098,94.32C89.098,94.32 91.512,95.768 91.573,95.828L90.245,93.354L96.823,92.268L90.245,91.121L91.573,88.647L89.098,90.216L87.952,85.509Z"/>
            </g>
        </g>
    </g>
</svg>
